<ttFont>
<head>
    <!-- Most of this table will be recalculated by the compiler -->
    <tableVersion value="1.0"/>
    <fontRevision value="2.202"/>
    <checkSumAdjustment value="0x36615471"/>
    <magicNumber value="0x5f0f3cf5"/>
    <flags value="00000000 00000011"/>
    <unitsPerEm value="1000"/>
    <created value="Thu Mar 17 16:28:16 2016"/>
    <modified value="Thu Mar 17 16:31:57 2016"/>
    <xMin value="-92"/>
    <yMin value="-250"/>
    <xMax value="995"/>
    <yMax value="1020"/>
    <macStyle value="00000000 00000000"/>
    <lowestRecPPEM value="5"/>
    <fontDirectionHint value="2"/>
    <indexToLocFormat value="0"/>
    <glyphDataFormat value="0"/>
  </head>
    <TTGlyph name=".notdef" xMin="0" yMin="-200" xMax="500" yMax="800">
      <contour>
        <pt x="0" y="-200" on="1"/>
        <pt x="0" y="800" on="1"/>
        <pt x="500" y="800" on="1"/>
        <pt x="500" y="-200" on="1"/>
      </contour>
      <contour>
        <pt x="71" y="750" on="1"/>
        <pt x="250" y="360" on="1"/>
        <pt x="429" y="750" on="1"/>
      </contour>
      <contour>
        <pt x="450" y="676" on="1"/>
        <pt x="278" y="300" on="1"/>
        <pt x="450" y="-76" on="1"/>
      </contour>
      <contour>
        <pt x="50" y="-76" on="1"/>
        <pt x="222" y="300" on="1"/>
        <pt x="50" y="676" on="1"/>
      </contour>
      <contour>
        <pt x="250" y="240" on="1"/>
        <pt x="71" y="-150" on="1"/>
        <pt x="429" y="-150" on="1"/>
      </contour>
    </TTGlyph>
    <TTGlyph name="A" xMin="8" yMin="-8" xMax="612" yMax="692">
      <contour>
        <pt x="443" y="-8" on="1"/>
        <pt x="401" y="143" on="1"/>
        <pt x="209" y="143" on="1"/>
        <pt x="171" y="0" on="1"/>
        <pt x="8" y="0" on="1"/>
        <pt x="217" y="692" on="1"/>
        <pt x="408" y="692" on="1"/>
        <pt x="612" y="19" on="1"/>
      </contour>
      <contour>
        <pt x="304" y="511" on="1"/>
        <pt x="242" y="274" on="1"/>
        <pt x="368" y="274" on="1"/>
      </contour>
    </TTGlyph>
    <TTGlyph name="A.flat" xMin="8" yMin="0" xMax="617" yMax="692">
      <contour>
        <pt x="304" y="511" on="1"/>
        <pt x="242" y="274" on="1"/>
        <pt x="368" y="274" on="1"/>
      </contour>
      <contour>
        <pt x="441" y="0" on="1"/>
        <pt x="402" y="143" on="1"/>
        <pt x="209" y="143" on="1"/>
        <pt x="170" y="0" on="1"/>
        <pt x="8" y="0" on="1"/>
        <pt x="217" y="692" on="1"/>
        <pt x="408" y="692" on="1"/>
        <pt x="617" y="0" on="1"/>
      </contour>
    </TTGlyph>
    <TTGlyph name="AE" xMin="-1" yMin="0" xMax="793" yMax="690">
      <contour>
        <pt x="391" y="274" on="1"/>
        <pt x="391" y="575" on="1"/>
        <pt x="276" y="274" on="1"/>
      </contour>
      <contour>
        <pt x="391" y="0" on="1"/>
        <pt x="391" y="144" on="1"/>
        <pt x="227" y="144" on="1"/>
        <pt x="170" y="0" on="1"/>
        <pt x="-1" y="0" on="1"/>
        <pt x="288" y="690" on="1"/>
        <pt x="784" y="690" on="1"/>
        <pt x="784" y="553" on="1"/>
        <pt x="553" y="553" on="1"/>
        <pt x="553" y="424" on="1"/>
        <pt x="725" y="424" on="1"/>
        <pt x="748" y="286" on="1"/>
        <pt x="553" y="286" on="1"/>
        <pt x="553" y="137" on="1"/>
        <pt x="793" y="137" on="1"/>
        <pt x="793" y="0" on="1"/>
      </contour>
    </TTGlyph>
    <TTGlyph name="AE.flat" xMin="-1" yMin="0" xMax="793" yMax="690">
      <contour>
        <pt x="391" y="274" on="1"/>
        <pt x="391" y="575" on="1"/>
        <pt x="276" y="274" on="1"/>
      </contour>
      <contour>
        <pt x="391" y="0" on="1"/>
        <pt x="391" y="144" on="1"/>
        <pt x="227" y="144" on="1"/>
        <pt x="170" y="0" on="1"/>
        <pt x="-1" y="0" on="1"/>
        <pt x="288" y="690" on="1"/>
        <pt x="784" y="690" on="1"/>
        <pt x="784" y="553" on="1"/>
        <pt x="553" y="553" on="1"/>
        <pt x="553" y="424" on="1"/>
        <pt x="736" y="424" on="1"/>
        <pt x="736" y="286" on="1"/>
        <pt x="553" y="286" on="1"/>
        <pt x="553" y="137" on="1"/>
        <pt x="793" y="137" on="1"/>
        <pt x="793" y="0" on="1"/>
      </contour>
    </TTGlyph>
    <TTGlyph name="AEacute" xMin="-1" yMin="0" xMax="793" yMax="885">
      <component glyphName="AE" x="0" y="0" flags="0x204"/>
      <component glyphName="acute" x="306" y="194" flags="0x4"/>
    </TTGlyph>
    <TTGlyph name="AEacute.flat" xMin="-1" yMin="0" xMax="793" yMax="885">
      <component glyphName="AE.flat" x="0" y="0" flags="0x204"/>
      <component glyphName="acute" x="306" y="194" flags="0x4"/>
    </TTGlyph>
    <TTGlyph name="Aacute" xMin="8" yMin="-8" xMax="612" yMax="892">
      <component glyphName="A" x="0" y="0" flags="0x204"/>
      <component glyphName="acute" x="158" y="201" flags="0x4"/>
    </TTGlyph>
    <TTGlyph name="Aacute.flat" xMin="8" yMin="0" xMax="617" yMax="892">
      <component glyphName="A.flat" x="0" y="0" flags="0x204"/>
      <component glyphName="acute" x="157" y="201" flags="0x4"/>
    </TTGlyph>
    <TTGlyph name="Abreve" xMin="8" yMin="-8" xMax="612" yMax="889">
      <component glyphName="A" x="0" y="0" flags="0x204"/>
      <component glyphName="breve" x="108" y="201" flags="0x4"/>
    </TTGlyph>
    <TTGlyph name="Abreve.flat" xMin="8" yMin="0" xMax="617" yMax="889">
      <component glyphName="A.flat" x="0" y="0" flags="0x204"/>
      <component glyphName="breve" x="107" y="201" flags="0x4"/>
    </TTGlyph>
    <TTGlyph name="Acircumflex" xMin="8" yMin="-8" xMax="612" yMax="889">
      <component glyphName="A" x="0" y="0" flags="0x4"/>
      <component glyphName="circumflex" x="108" y="201" flags="0x4"/>
    </TTGlyph>
    <TTGlyph name="Acircumflex.flat" xMin="8" yMin="0" xMax="617" yMax="889">
      <component glyphName="A.flat" x="0" y="0" flags="0x4"/>
      <component glyphName="circumflex" x="107" y="201" flags="0x4"/>
    </TTGlyph>
    <TTGlyph name="Adieresis" xMin="8" yMin="-8" xMax="612" yMax="873">
      <component glyphName="A" x="0" y="0" flags="0x204"/>
      <component glyphName="dieresis" x="108" y="201" flags="0x4"/>
    </TTGlyph>
    <TTGlyph name="Adieresis.flat" xMin="8" yMin="0" xMax="617" yMax="873">
      <component glyphName="A.flat" x="0" y="0" flags="0x204"/>
      <component glyphName="dieresis" x="107" y="201" flags="0x4"/>
    </TTGlyph>
    <TTGlyph name="Agrave" xMin="8" yMin="-8" xMax="612" yMax="892">
      <component glyphName="A" x="0" y="0" flags="0x204"/>
      <component glyphName="grave" x="58" y="201" flags="0x4"/>
    </TTGlyph>
    <TTGlyph name="Agrave.flat" xMin="8" yMin="0" xMax="617" yMax="892">
      <component glyphName="A.flat" x="0" y="0" flags="0x204"/>
      <component glyphName="grave" x="57" y="201" flags="0x4"/>
    </TTGlyph>
    <TTGlyph name="Amacron" xMin="8" yMin="-8" xMax="612" yMax="855">
      <component glyphName="A" x="0" y="0" flags="0x204"/>
      <component glyphName="macron" x="108" y="201" flags="0x4"/>
    </TTGlyph>
    <TTGlyph name="Amacron.flat" xMin="8" yMin="0" xMax="617" yMax="855">
      <component glyphName="A.flat" x="0" y="0" flags="0x204"/>
      <component glyphName="macron" x="107" y="201" flags="0x4"/>
    </TTGlyph>
    <TTGlyph name="Aogonek" xMin="8" yMin="-198" xMax="612" yMax="692">
      <component glyphName="A" x="0" y="0" flags="0x204"/>
      <component glyphName="ogonek" x="273" y="0" flags="0x4"/>
    </TTGlyph>
    <TTGlyph name="Aogonek.flat" xMin="8" yMin="-198" xMax="617" yMax="692">
      <component glyphName="A.flat" x="0" y="0" flags="0x4"/>
      <component glyphName="ogonek" x="268" y="0" flags="0x4"/>
    </TTGlyph>
    <TTGlyph name="Aring" xMin="8" yMin="-8" xMax="613" yMax="854">
      <contour>
        <pt x="445" y="-8" on="1"/>
        <pt x="402" y="143" on="1"/>
        <pt x="208" y="143" on="1"/>
        <pt x="170" y="0" on="1"/>
        <pt x="8" y="0" on="1"/>
        <pt x="211" y="669" on="1"/>
        <pt x="197" y="683" on="0"/>
        <pt x="181" y="722" on="0"/>
        <pt x="181" y="744" on="1"/>
        <pt x="181" y="793" on="0"/>
        <pt x="252" y="854" on="0"/>
        <pt x="312" y="854" on="1"/>
        <pt x="372" y="854" on="0"/>
        <pt x="442" y="793" on="0"/>
        <pt x="442" y="744" on="1"/>
        <pt x="442" y="722" on="0"/>
        <pt x="428" y="685" on="0"/>
        <pt x="415" y="671" on="1"/>
        <pt x="613" y="19" on="1"/>
      </contour>
      <contour>
        <pt x="360" y="744" on="1"/>
        <pt x="360" y="768" on="0"/>
        <pt x="335" y="798" on="0"/>
        <pt x="312" y="798" on="1"/>
        <pt x="289" y="798" on="0"/>
        <pt x="263" y="768" on="0"/>
        <pt x="263" y="744" on="1"/>
        <pt x="263" y="720" on="0"/>
        <pt x="289" y="690" on="0"/>
        <pt x="312" y="690" on="1"/>
        <pt x="335" y="690" on="0"/>
        <pt x="360" y="720" on="0"/>
      </contour>
      <contour>
        <pt x="305" y="511" on="1"/>
        <pt x="242" y="274" on="1"/>
        <pt x="369" y="274" on="1"/>
      </contour>
    </TTGlyph>
    <TTGlyph name="Aring.flat" xMin="8" yMin="0" xMax="619" yMax="854">
      <contour>
        <pt x="360" y="744" on="1"/>
        <pt x="360" y="768" on="0"/>
        <pt x="335" y="798" on="0"/>
        <pt x="312" y="798" on="1"/>
        <pt x="289" y="798" on="0"/>
        <pt x="263" y="768" on="0"/>
        <pt x="263" y="744" on="1"/>
        <pt x="263" y="720" on="0"/>
        <pt x="289" y="690" on="0"/>
        <pt x="312" y="690" on="1"/>
        <pt x="335" y="690" on="0"/>
        <pt x="360" y="720" on="0"/>
      </contour>
      <contour>
        <pt x="305" y="511" on="1"/>
        <pt x="242" y="274" on="1"/>
        <pt x="369" y="274" on="1"/>
      </contour>
      <contour>
        <pt x="442" y="0" on="1"/>
        <pt x="402" y="143" on="1"/>
        <pt x="208" y="143" on="1"/>
        <pt x="170" y="0" on="1"/>
        <pt x="8" y="0" on="1"/>
        <pt x="211" y="669" on="1"/>
        <pt x="197" y="683" on="0"/>
        <pt x="181" y="722" on="0"/>
        <pt x="181" y="744" on="1"/>
        <pt x="181" y="793" on="0"/>
        <pt x="252" y="854" on="0"/>
        <pt x="312" y="854" on="1"/>
        <pt x="372" y="854" on="0"/>
        <pt x="442" y="793" on="0"/>
        <pt x="442" y="744" on="1"/>
        <pt x="442" y="722" on="0"/>
        <pt x="428" y="685" on="0"/>
        <pt x="415" y="671" on="1"/>
        <pt x="619" y="0" on="1"/>
      </contour>
    </TTGlyph>
    <TTGlyph name="Aringacute" xMin="8" yMin="-8" xMax="613" yMax="1020">
      <component glyphName="acute" x="162" y="329" flags="0x4"/>
      <component glyphName="Aring" x="0" y="0" flags="0x204"/>
    </TTGlyph>
    <TTGlyph name="Aringacute.flat" xMin="8" yMin="0" xMax="619" yMax="1020">
      <component glyphName="Aring.flat" x="0" y="0" flags="0x204"/>
      <component glyphName="acute" x="162" y="329" flags="0x4"/>
    </TTGlyph>
    <TTGlyph name="Atilde" xMin="8" yMin="-8" xMax="612" yMax="896">
      <component glyphName="A" x="0" y="0" flags="0x204"/>
      <component glyphName="tilde" x="111" y="201" flags="0x4"/>
    </TTGlyph>
    <TTGlyph name="Atilde.flat" xMin="8" yMin="0" xMax="617" yMax="896">
      <component glyphName="A.flat" x="0" y="0" flags="0x204"/>
      <component glyphName="tilde" x="110" y="201" flags="0x4"/>
    </TTGlyph>
    <TTGlyph name="B" xMin="51" yMin="0" xMax="522" yMax="690">
      <contour>
        <pt x="522" y="198" on="1"/>
        <pt x="522" y="98" on="0"/>
        <pt x="379" y="0" on="0"/>
        <pt x="259" y="0" on="1"/>
        <pt x="51" y="0" on="1"/>
        <pt x="51" y="690" on="1"/>
        <pt x="263" y="690" on="1"/>
        <pt x="382" y="690" on="0"/>
        <pt x="501" y="597" on="0"/>
        <pt x="501" y="513" on="1"/>
        <pt x="501" y="459" on="0"/>
        <pt x="446" y="384" on="0"/>
        <pt x="403" y="365" on="1"/>
        <pt x="457" y="346" on="0"/>
        <pt x="522" y="267" on="0"/>
      </contour>
      <contour>
        <pt x="344" y="492" on="1"/>
        <pt x="344" y="526" on="0"/>
        <pt x="303" y="569" on="0"/>
        <pt x="256" y="569" on="1"/>
        <pt x="213" y="569" on="1"/>
        <pt x="213" y="411" on="1"/>
        <pt x="254" y="411" on="1"/>
        <pt x="299" y="411" on="0"/>
        <pt x="344" y="455" on="0"/>
      </contour>
      <contour>
        <pt x="360" y="209" on="1"/>
        <pt x="360" y="254" on="0"/>
        <pt x="305" y="299" on="0"/>
        <pt x="253" y="299" on="1"/>
        <pt x="213" y="299" on="1"/>
        <pt x="213" y="121" on="1"/>
        <pt x="256" y="121" on="1"/>
        <pt x="305" y="121" on="0"/>
        <pt x="360" y="166" on="0"/>
      </contour>
    </TTGlyph>
    <TTGlyph name="C" xMin="30" yMin="-11" xMax="506" yMax="701">
      <contour>
        <pt x="506" y="37" on="1"/>
        <pt x="467" y="15" on="0"/>
        <pt x="381" y="-11" on="0"/>
        <pt x="329" y="-11" on="1"/>
        <pt x="186" y="-11" on="0"/>
        <pt x="30" y="178" on="0"/>
        <pt x="30" y="344" on="1"/>
        <pt x="30" y="426" on="0"/>
        <pt x="71" y="558" on="0"/>
        <pt x="149" y="651" on="0"/>
        <pt x="262" y="701" on="0"/>
        <pt x="334" y="701" on="1"/>
        <pt x="384" y="701" on="0"/>
        <pt x="463" y="679" on="0"/>
        <pt x="497" y="660" on="1"/>
        <pt x="474" y="509" on="1"/>
        <pt x="444" y="531" on="0"/>
        <pt x="385" y="556" on="0"/>
        <pt x="349" y="556" on="1"/>
        <pt x="280" y="556" on="0"/>
        <pt x="200" y="447" on="0"/>
        <pt x="200" y="345" on="1"/>
        <pt x="200" y="242" on="0"/>
        <pt x="282" y="133" on="0"/>
        <pt x="351" y="133" on="1"/>
        <pt x="385" y="133" on="0"/>
        <pt x="449" y="157" on="0"/>
        <pt x="484" y="179" on="1"/>
      </contour>
    </TTGlyph>
    <TTGlyph name="Cacute" xMin="30" yMin="-11" xMax="506" yMax="892">
      <component glyphName="C" x="0" y="0" flags="0x204"/>
      <component glyphName="acute" x="162" y="201" flags="0x4"/>
    </TTGlyph>
    <TTGlyph name="Ccaron" xMin="30" yMin="-11" xMax="506" yMax="889">
      <component glyphName="C" x="0" y="0" flags="0x204"/>
      <component glyphName="caron" x="112" y="201" flags="0x4"/>
    </TTGlyph>
    <TTGlyph name="Ccedilla" xMin="30" yMin="-183" xMax="506" yMax="701">
      <component glyphName="C" x="0" y="0" flags="0x204"/>
      <component glyphName="cedilla" x="97" y="-4" flags="0x4"/>
    </TTGlyph>
    <TTGlyph name="Cdotaccent" xMin="30" yMin="-11" xMax="506" yMax="873">
      <component glyphName="C" x="0" y="0" flags="0x204"/>
      <component glyphName="dotaccent" x="112" y="201" flags="0x4"/>
    </TTGlyph>
    <TTGlyph name="D" xMin="51" yMin="0" xMax="594" yMax="690">
      <contour>
        <pt x="594" y="346" on="1"/>
        <pt x="594" y="184" on="0"/>
        <pt x="420" y="0" on="0"/>
        <pt x="255" y="0" on="1"/>
        <pt x="51" y="0" on="1"/>
        <pt x="51" y="690" on="1"/>
        <pt x="257" y="690" on="1"/>
        <pt x="426" y="690" on="0"/>
        <pt x="594" y="505" on="0"/>
      </contour>
      <contour>
        <pt x="423" y="345" on="1"/>
        <pt x="423" y="458" on="0"/>
        <pt x="332" y="556" on="0"/>
        <pt x="256" y="556" on="1"/>
        <pt x="219" y="556" on="1"/>
        <pt x="219" y="134" on="1"/>
        <pt x="255" y="134" on="1"/>
        <pt x="334" y="134" on="0"/>
        <pt x="423" y="231" on="0"/>
      </contour>
    </TTGlyph>
    <TTGlyph name="Dcaron" xMin="51" yMin="0" xMax="594" yMax="882">
      <component glyphName="D" x="0" y="0" flags="0x204"/>
      <component glyphName="caron" x="94" y="194" flags="0x4"/>
    </TTGlyph>
    <TTGlyph name="Dcroat" xMin="4" yMin="0" xMax="618" yMax="690">
      <component glyphName="Eth" x="0" y="0" flags="0x4"/>
    </TTGlyph>
    <TTGlyph name="Dcroat.flat" xMin="13" yMin="0" xMax="618" yMax="690">
      <component glyphName="Eth.flat" x="0" y="0" flags="0x4"/>
    </TTGlyph>
    <TTGlyph name="E" xMin="51" yMin="0" xMax="457" yMax="690">
      <contour>
        <pt x="457" y="0" on="1"/>
        <pt x="51" y="0" on="1"/>
        <pt x="51" y="690" on="1"/>
        <pt x="448" y="690" on="1"/>
        <pt x="448" y="553" on="1"/>
        <pt x="217" y="553" on="1"/>
        <pt x="217" y="424" on="1"/>
        <pt x="389" y="424" on="1"/>
        <pt x="412" y="286" on="1"/>
        <pt x="217" y="286" on="1"/>
        <pt x="217" y="137" on="1"/>
        <pt x="457" y="137" on="1"/>
      </contour>
    </TTGlyph>
    <TTGlyph name="E.flat" xMin="51" yMin="0" xMax="457" yMax="690">
      <contour>
        <pt x="457" y="0" on="1"/>
        <pt x="51" y="0" on="1"/>
        <pt x="51" y="690" on="1"/>
        <pt x="448" y="690" on="1"/>
        <pt x="448" y="553" on="1"/>
        <pt x="217" y="553" on="1"/>
        <pt x="217" y="424" on="1"/>
        <pt x="400" y="424" on="1"/>
        <pt x="400" y="286" on="1"/>
        <pt x="217" y="286" on="1"/>
        <pt x="217" y="137" on="1"/>
        <pt x="457" y="137" on="1"/>
      </contour>
    </TTGlyph>
    <TTGlyph name="Eacute" xMin="51" yMin="0" xMax="457" yMax="885">
      <component glyphName="E" x="0" y="0" flags="0x204"/>
      <component glyphName="acute" x="100" y="194" flags="0x4"/>
    </TTGlyph>
    <TTGlyph name="Eacute.flat" xMin="51" yMin="0" xMax="457" yMax="885">
      <component glyphName="E.flat" x="0" y="0" flags="0x204"/>
      <component glyphName="acute" x="100" y="194" flags="0x4"/>
    </TTGlyph>
    <TTGlyph name="Ebreve" xMin="51" yMin="0" xMax="457" yMax="882">
      <component glyphName="E" x="0" y="0" flags="0x204"/>
      <component glyphName="breve" x="50" y="194" flags="0x4"/>
    </TTGlyph>
    <TTGlyph name="Ebreve.flat" xMin="51" yMin="0" xMax="457" yMax="882">
      <component glyphName="E.flat" x="0" y="0" flags="0x204"/>
      <component glyphName="breve" x="50" y="194" flags="0x4"/>
    </TTGlyph>
    <TTGlyph name="Ecaron" xMin="51" yMin="0" xMax="457" yMax="882">
      <component glyphName="E" x="0" y="0" flags="0x204"/>
      <component glyphName="caron" x="50" y="194" flags="0x4"/>
    </TTGlyph>
    <TTGlyph name="Ecaron.flat" xMin="51" yMin="0" xMax="457" yMax="882">
      <component glyphName="E.flat" x="0" y="0" flags="0x204"/>
      <component glyphName="caron" x="50" y="194" flags="0x4"/>
    </TTGlyph>
    <TTGlyph name="Ecircumflex" xMin="51" yMin="0" xMax="457" yMax="882">
      <component glyphName="E" x="0" y="0" flags="0x204"/>
      <component glyphName="circumflex" x="49" y="194" flags="0x4"/>
    </TTGlyph>
    <TTGlyph name="Ecircumflex.flat" xMin="51" yMin="0" xMax="457" yMax="882">
      <component glyphName="E.flat" x="0" y="0" flags="0x204"/>
      <component glyphName="circumflex" x="49" y="194" flags="0x4"/>
    </TTGlyph>
    <TTGlyph name="Edieresis" xMin="51" yMin="0" xMax="457" yMax="866">
      <component glyphName="E" x="0" y="0" flags="0x204"/>
      <component glyphName="dieresis" x="50" y="194" flags="0x4"/>
    </TTGlyph>
    <TTGlyph name="Edieresis.flat" xMin="51" yMin="0" xMax="457" yMax="866">
      <component glyphName="E.flat" x="0" y="0" flags="0x204"/>
      <component glyphName="dieresis" x="50" y="194" flags="0x4"/>
    </TTGlyph>
    <TTGlyph name="Edotaccent" xMin="51" yMin="0" xMax="457" yMax="866">
      <component glyphName="E" x="0" y="0" flags="0x204"/>
      <component glyphName="dotaccent" x="50" y="194" flags="0x4"/>
    </TTGlyph>
    <TTGlyph name="Edotaccent.flat" xMin="51" yMin="0" xMax="457" yMax="866">
      <component glyphName="E.flat" x="0" y="0" flags="0x204"/>
      <component glyphName="dotaccent" x="50" y="194" flags="0x4"/>
    </TTGlyph>
    <TTGlyph name="Egrave" xMin="51" yMin="0" xMax="457" yMax="885">
      <component glyphName="E" x="0" y="0" flags="0x204"/>
      <component glyphName="grave" x="-1" y="194" flags="0x4"/>
    </TTGlyph>
    <TTGlyph name="Egrave.flat" xMin="51" yMin="0" xMax="457" yMax="885">
      <component glyphName="E.flat" x="0" y="0" flags="0x204"/>
      <component glyphName="grave" x="-1" y="194" flags="0x4"/>
    </TTGlyph>
    <TTGlyph name="Emacron" xMin="51" yMin="0" xMax="457" yMax="848">
      <component glyphName="E" x="0" y="0" flags="0x204"/>
      <component glyphName="macron" x="50" y="194" flags="0x4"/>
    </TTGlyph>
    <TTGlyph name="Emacron.flat" xMin="51" yMin="0" xMax="457" yMax="848">
      <component glyphName="E.flat" x="0" y="0" flags="0x204"/>
      <component glyphName="macron" x="50" y="194" flags="0x4"/>
    </TTGlyph>
    <TTGlyph name="Eogonek" xMin="51" yMin="-198" xMax="461" yMax="690">
      <component glyphName="E" x="0" y="0" flags="0x204"/>
      <component glyphName="ogonek" x="147" y="0" flags="0x4"/>
    </TTGlyph>
    <TTGlyph name="Eogonek.flat" xMin="51" yMin="-198" xMax="461" yMax="690">
      <component glyphName="E.flat" x="0" y="0" flags="0x204"/>
      <component glyphName="ogonek" x="147" y="0" flags="0x4"/>
    </TTGlyph>
    <TTGlyph name="Eth" xMin="4" yMin="0" xMax="618" yMax="690">
      <contour>
        <pt x="241" y="134" on="1"/>
        <pt x="279" y="134" on="1"/>
        <pt x="357" y="134" on="0"/>
        <pt x="446" y="231" on="0"/>
        <pt x="446" y="345" on="1"/>
        <pt x="446" y="458" on="0"/>
        <pt x="356" y="556" on="0"/>
        <pt x="279" y="556" on="1"/>
        <pt x="241" y="556" on="1"/>
        <pt x="241" y="420" on="1"/>
        <pt x="344" y="420" on="1"/>
        <pt x="344" y="287" on="1"/>
        <pt x="241" y="287" on="1"/>
      </contour>
      <contour>
        <pt x="278" y="0" on="1"/>
        <pt x="75" y="0" on="1"/>
        <pt x="75" y="284" on="1"/>
        <pt x="25" y="284" on="1"/>
        <pt x="4" y="422" on="1"/>
        <pt x="75" y="422" on="1"/>
        <pt x="75" y="690" on="1"/>
        <pt x="281" y="690" on="1"/>
        <pt x="449" y="690" on="0"/>
        <pt x="618" y="505" on="0"/>
        <pt x="618" y="346" on="1"/>
        <pt x="618" y="184" on="0"/>
        <pt x="443" y="0" on="0"/>
      </contour>
    </TTGlyph>
    <TTGlyph name="Eth.flat" xMin="13" yMin="0" xMax="618" yMax="690">
      <contour>
        <pt x="241" y="134" on="1"/>
        <pt x="279" y="134" on="1"/>
        <pt x="357" y="134" on="0"/>
        <pt x="446" y="231" on="0"/>
        <pt x="446" y="345" on="1"/>
        <pt x="446" y="458" on="0"/>
        <pt x="356" y="556" on="0"/>
        <pt x="279" y="556" on="1"/>
        <pt x="241" y="556" on="1"/>
        <pt x="241" y="420" on="1"/>
        <pt x="344" y="420" on="1"/>
        <pt x="344" y="287" on="1"/>
        <pt x="241" y="287" on="1"/>
      </contour>
      <contour>
        <pt x="278" y="0" on="1"/>
        <pt x="75" y="0" on="1"/>
        <pt x="75" y="284" on="1"/>
        <pt x="13" y="284" on="1"/>
        <pt x="13" y="422" on="1"/>
        <pt x="75" y="422" on="1"/>
        <pt x="75" y="690" on="1"/>
        <pt x="281" y="690" on="1"/>
        <pt x="449" y="690" on="0"/>
        <pt x="618" y="505" on="0"/>
        <pt x="618" y="346" on="1"/>
        <pt x="618" y="184" on="0"/>
        <pt x="443" y="0" on="0"/>
      </contour>
    </TTGlyph>
    <TTGlyph name="Euro" xMin="14" yMin="-12" xMax="549" yMax="695">
      <contour>
        <pt x="549" y="30" on="1"/>
        <pt x="512" y="11" on="0"/>
        <pt x="427" y="-12" on="0"/>
        <pt x="376" y="-12" on="1"/>
        <pt x="254" y="-12" on="0"/>
        <pt x="116" y="118" on="0"/>
        <pt x="96" y="231" on="1"/>
        <pt x="25" y="231" on="1"/>
        <pt x="14" y="307" on="1"/>
        <pt x="88" y="307" on="1"/>
        <pt x="87" y="315" on="0"/>
        <pt x="87" y="332" on="0"/>
        <pt x="87" y="341" on="1"/>
        <pt x="87" y="352" on="0"/>
        <pt x="87" y="374" on="0"/>
        <pt x="88" y="384" on="1"/>
        <pt x="19" y="384" on="1"/>
        <pt x="19" y="461" on="1"/>
        <pt x="99" y="461" on="1"/>
        <pt x="123" y="566" on="0"/>
        <pt x="261" y="695" on="0"/>
        <pt x="375" y="695" on="1"/>
        <pt x="425" y="695" on="0"/>
        <pt x="504" y="675" on="0"/>
        <pt x="538" y="658" on="1"/>
        <pt x="516" y="525" on="1"/>
        <pt x="485" y="544" on="0"/>
        <pt x="427" y="564" on="0"/>
        <pt x="391" y="564" on="1"/>
        <pt x="340" y="564" on="0"/>
        <pt x="273" y="510" on="0"/>
        <pt x="259" y="461" on="1"/>
        <pt x="443" y="461" on="1"/>
        <pt x="455" y="384" on="1"/>
        <pt x="246" y="384" on="1"/>
        <pt x="245" y="374" on="0"/>
        <pt x="245" y="352" on="0"/>
        <pt x="245" y="342" on="1"/>
        <pt x="245" y="333" on="0"/>
        <pt x="245" y="315" on="0"/>
        <pt x="246" y="307" on="1"/>
        <pt x="449" y="307" on="1"/>
        <pt x="449" y="231" on="1"/>
        <pt x="256" y="231" on="1"/>
        <pt x="271" y="176" on="0"/>
        <pt x="343" y="119" on="0"/>
        <pt x="400" y="119" on="1"/>
        <pt x="435" y="119" on="0"/>
        <pt x="495" y="138" on="0"/>
        <pt x="528" y="155" on="1"/>
      </contour>
    </TTGlyph>
    <TTGlyph name="Euro.flat" xMin="19" yMin="-12" xMax="549" yMax="695">
      <contour>
        <pt x="549" y="30" on="1"/>
        <pt x="512" y="11" on="0"/>
        <pt x="427" y="-12" on="0"/>
        <pt x="376" y="-12" on="1"/>
        <pt x="254" y="-12" on="0"/>
        <pt x="116" y="118" on="0"/>
        <pt x="96" y="231" on="1"/>
        <pt x="19" y="231" on="1"/>
        <pt x="19" y="307" on="1"/>
        <pt x="88" y="307" on="1"/>
        <pt x="87" y="315" on="0"/>
        <pt x="87" y="332" on="0"/>
        <pt x="87" y="341" on="1"/>
        <pt x="87" y="352" on="0"/>
        <pt x="87" y="374" on="0"/>
        <pt x="88" y="384" on="1"/>
        <pt x="19" y="384" on="1"/>
        <pt x="19" y="461" on="1"/>
        <pt x="99" y="461" on="1"/>
        <pt x="123" y="566" on="0"/>
        <pt x="261" y="695" on="0"/>
        <pt x="375" y="695" on="1"/>
        <pt x="425" y="695" on="0"/>
        <pt x="504" y="675" on="0"/>
        <pt x="538" y="658" on="1"/>
        <pt x="516" y="525" on="1"/>
        <pt x="485" y="544" on="0"/>
        <pt x="427" y="564" on="0"/>
        <pt x="391" y="564" on="1"/>
        <pt x="340" y="564" on="0"/>
        <pt x="273" y="510" on="0"/>
        <pt x="259" y="461" on="1"/>
        <pt x="449" y="461" on="1"/>
        <pt x="449" y="384" on="1"/>
        <pt x="246" y="384" on="1"/>
        <pt x="245" y="374" on="0"/>
        <pt x="245" y="352" on="0"/>
        <pt x="245" y="342" on="1"/>
        <pt x="245" y="333" on="0"/>
        <pt x="245" y="315" on="0"/>
        <pt x="246" y="307" on="1"/>
        <pt x="449" y="307" on="1"/>
        <pt x="449" y="231" on="1"/>
        <pt x="256" y="231" on="1"/>
        <pt x="271" y="176" on="0"/>
        <pt x="343" y="119" on="0"/>
        <pt x="400" y="119" on="1"/>
        <pt x="435" y="119" on="0"/>
        <pt x="495" y="138" on="0"/>
        <pt x="528" y="155" on="1"/>
      </contour>
    </TTGlyph>
    <TTGlyph name="Euro.tab" xMin="10" yMin="-10" xMax="475" yMax="696">
      <contour>
        <pt x="475" y="30" on="1"/>
        <pt x="443" y="12" on="0"/>
        <pt x="367" y="-10" on="0"/>
        <pt x="320" y="-10" on="1"/>
        <pt x="211" y="-10" on="0"/>
        <pt x="96" y="117" on="0"/>
        <pt x="80" y="232" on="1"/>
        <pt x="21" y="232" on="1"/>
        <pt x="10" y="308" on="1"/>
        <pt x="74" y="308" on="1"/>
        <pt x="73" y="316" on="0"/>
        <pt x="73" y="333" on="0"/>
        <pt x="73" y="342" on="1"/>
        <pt x="73" y="352" on="0"/>
        <pt x="73" y="374" on="0"/>
        <pt x="74" y="384" on="1"/>
        <pt x="15" y="384" on="1"/>
        <pt x="15" y="460" on="1"/>
        <pt x="82" y="460" on="1"/>
        <pt x="101" y="568" on="0"/>
        <pt x="219" y="696" on="0"/>
        <pt x="323" y="696" on="1"/>
        <pt x="367" y="696" on="0"/>
        <pt x="435" y="676" on="0"/>
        <pt x="465" y="660" on="1"/>
        <pt x="444" y="536" on="1"/>
        <pt x="415" y="555" on="0"/>
        <pt x="366" y="575" on="0"/>
        <pt x="330" y="575" on="1"/>
        <pt x="284" y="575" on="0"/>
        <pt x="232" y="513" on="0"/>
        <pt x="221" y="460" on="1"/>
        <pt x="386" y="460" on="1"/>
        <pt x="397" y="384" on="1"/>
        <pt x="212" y="384" on="1"/>
        <pt x="211" y="374" on="0"/>
        <pt x="211" y="353" on="0"/>
        <pt x="211" y="343" on="1"/>
        <pt x="211" y="334" on="0"/>
        <pt x="211" y="316" on="0"/>
        <pt x="212" y="308" on="1"/>
        <pt x="392" y="308" on="1"/>
        <pt x="392" y="232" on="1"/>
        <pt x="220" y="232" on="1"/>
        <pt x="231" y="174" on="0"/>
        <pt x="290" y="111" on="0"/>
        <pt x="344" y="111" on="1"/>
        <pt x="378" y="111" on="0"/>
        <pt x="425" y="128" on="0"/>
        <pt x="455" y="147" on="1"/>
      </contour>
    </TTGlyph>
    <TTGlyph name="Euro.tab_flat" xMin="15" yMin="-10" xMax="475" yMax="696">
      <contour>
        <pt x="475" y="30" on="1"/>
        <pt x="443" y="12" on="0"/>
        <pt x="367" y="-10" on="0"/>
        <pt x="320" y="-10" on="1"/>
        <pt x="211" y="-10" on="0"/>
        <pt x="96" y="117" on="0"/>
        <pt x="80" y="232" on="1"/>
        <pt x="15" y="232" on="1"/>
        <pt x="15" y="308" on="1"/>
        <pt x="74" y="308" on="1"/>
        <pt x="73" y="316" on="0"/>
        <pt x="73" y="333" on="0"/>
        <pt x="73" y="342" on="1"/>
        <pt x="73" y="352" on="0"/>
        <pt x="73" y="374" on="0"/>
        <pt x="74" y="384" on="1"/>
        <pt x="15" y="384" on="1"/>
        <pt x="15" y="460" on="1"/>
        <pt x="82" y="460" on="1"/>
        <pt x="101" y="568" on="0"/>
        <pt x="219" y="696" on="0"/>
        <pt x="323" y="696" on="1"/>
        <pt x="367" y="696" on="0"/>
        <pt x="435" y="676" on="0"/>
        <pt x="465" y="660" on="1"/>
        <pt x="444" y="536" on="1"/>
        <pt x="415" y="555" on="0"/>
        <pt x="366" y="575" on="0"/>
        <pt x="330" y="575" on="1"/>
        <pt x="284" y="575" on="0"/>
        <pt x="232" y="513" on="0"/>
        <pt x="221" y="460" on="1"/>
        <pt x="392" y="460" on="1"/>
        <pt x="392" y="384" on="1"/>
        <pt x="212" y="384" on="1"/>
        <pt x="211" y="374" on="0"/>
        <pt x="211" y="353" on="0"/>
        <pt x="211" y="343" on="1"/>
        <pt x="211" y="334" on="0"/>
        <pt x="211" y="316" on="0"/>
        <pt x="212" y="308" on="1"/>
        <pt x="392" y="308" on="1"/>
        <pt x="392" y="232" on="1"/>
        <pt x="220" y="232" on="1"/>
        <pt x="231" y="174" on="0"/>
        <pt x="290" y="111" on="0"/>
        <pt x="344" y="111" on="1"/>
        <pt x="378" y="111" on="0"/>
        <pt x="425" y="128" on="0"/>
        <pt x="455" y="147" on="1"/>
      </contour>
    </TTGlyph>
    <TTGlyph name="F" xMin="51" yMin="0" xMax="433" yMax="690">
      <contour>
        <pt x="433" y="548" on="1"/>
        <pt x="219" y="548" on="1"/>
        <pt x="219" y="406" on="1"/>
        <pt x="373" y="406" on="1"/>
        <pt x="397" y="263" on="1"/>
        <pt x="219" y="263" on="1"/>
        <pt x="219" y="0" on="1"/>
        <pt x="51" y="0" on="1"/>
        <pt x="51" y="690" on="1"/>
        <pt x="433" y="690" on="1"/>
      </contour>
    </TTGlyph>
    <TTGlyph name="F.flat" xMin="51" yMin="0" xMax="433" yMax="690">
      <contour>
        <pt x="433" y="548" on="1"/>
        <pt x="219" y="548" on="1"/>
        <pt x="219" y="406" on="1"/>
        <pt x="385" y="406" on="1"/>
        <pt x="385" y="263" on="1"/>
        <pt x="219" y="263" on="1"/>
        <pt x="219" y="0" on="1"/>
        <pt x="51" y="0" on="1"/>
        <pt x="51" y="690" on="1"/>
        <pt x="433" y="690" on="1"/>
      </contour>
    </TTGlyph>
    <TTGlyph name="G" xMin="30" yMin="-13" xMax="558" yMax="702">
      <contour>
        <pt x="558" y="52" on="1"/>
        <pt x="509" y="22" on="0"/>
        <pt x="399" y="-13" on="0"/>
        <pt x="334" y="-13" on="1"/>
        <pt x="260" y="-13" on="0"/>
        <pt x="146" y="37" on="0"/>
        <pt x="69" y="128" on="0"/>
        <pt x="30" y="260" on="0"/>
        <pt x="30" y="341" on="1"/>
        <pt x="30" y="421" on="0"/>
        <pt x="71" y="555" on="0"/>
        <pt x="151" y="649" on="0"/>
        <pt x="270" y="702" on="0"/>
        <pt x="346" y="702" on="1"/>
        <pt x="401" y="702" on="0"/>
        <pt x="495" y="678" on="0"/>
        <pt x="533" y="657" on="1"/>
        <pt x="510" y="508" on="1"/>
        <pt x="473" y="532" on="0"/>
        <pt x="398" y="558" on="0"/>
        <pt x="355" y="558" on="1"/>
        <pt x="277" y="558" on="0"/>
        <pt x="200" y="446" on="0"/>
        <pt x="200" y="345" on="1"/>
        <pt x="200" y="244" on="0"/>
        <pt x="271" y="125" on="0"/>
        <pt x="345" y="125" on="1"/>
        <pt x="364" y="125" on="0"/>
        <pt x="395" y="133" on="0"/>
        <pt x="409" y="140" on="1"/>
        <pt x="409" y="271" on="1"/>
        <pt x="318" y="271" on="1"/>
        <pt x="298" y="395" on="1"/>
        <pt x="558" y="395" on="1"/>
      </contour>
    </TTGlyph>
    <TTGlyph name="G.flat" xMin="30" yMin="-13" xMax="558" yMax="702">
      <contour>
        <pt x="558" y="52" on="1"/>
        <pt x="509" y="22" on="0"/>
        <pt x="399" y="-13" on="0"/>
        <pt x="334" y="-13" on="1"/>
        <pt x="260" y="-13" on="0"/>
        <pt x="146" y="37" on="0"/>
        <pt x="69" y="128" on="0"/>
        <pt x="30" y="260" on="0"/>
        <pt x="30" y="341" on="1"/>
        <pt x="30" y="421" on="0"/>
        <pt x="71" y="555" on="0"/>
        <pt x="151" y="649" on="0"/>
        <pt x="270" y="702" on="0"/>
        <pt x="346" y="702" on="1"/>
        <pt x="401" y="702" on="0"/>
        <pt x="495" y="678" on="0"/>
        <pt x="533" y="657" on="1"/>
        <pt x="510" y="508" on="1"/>
        <pt x="473" y="532" on="0"/>
        <pt x="398" y="558" on="0"/>
        <pt x="355" y="558" on="1"/>
        <pt x="277" y="558" on="0"/>
        <pt x="200" y="446" on="0"/>
        <pt x="200" y="345" on="1"/>
        <pt x="200" y="244" on="0"/>
        <pt x="271" y="125" on="0"/>
        <pt x="345" y="125" on="1"/>
        <pt x="364" y="125" on="0"/>
        <pt x="395" y="133" on="0"/>
        <pt x="409" y="140" on="1"/>
        <pt x="409" y="271" on="1"/>
        <pt x="308" y="271" on="1"/>
        <pt x="308" y="395" on="1"/>
        <pt x="558" y="395" on="1"/>
      </contour>
    </TTGlyph>
    <TTGlyph name="Gbreve" xMin="30" yMin="-13" xMax="558" yMax="889">
      <component glyphName="G" x="0" y="0" flags="0x204"/>
      <component glyphName="breve" x="124" y="201" flags="0x4"/>
    </TTGlyph>
    <TTGlyph name="Gbreve.flat" xMin="30" yMin="-13" xMax="558" yMax="889">
      <component glyphName="G.flat" x="0" y="0" flags="0x204"/>
      <component glyphName="breve" x="124" y="201" flags="0x4"/>
    </TTGlyph>
    <TTGlyph name="Gcommaaccent" xMin="30" yMin="-250" xMax="558" yMax="702">
      <component glyphName="G" x="0" y="0" flags="0x204"/>
      <component glyphName="commaaccent" x="121" y="-7" flags="0x4"/>
    </TTGlyph>
    <TTGlyph name="Gcommaaccent.flat" xMin="30" yMin="-250" xMax="558" yMax="702">
      <component glyphName="G.flat" x="0" y="0" flags="0x204"/>
      <component glyphName="commaaccent" x="121" y="-7" flags="0x4"/>
    </TTGlyph>
    <TTGlyph name="Gdotaccent" xMin="30" yMin="-13" xMax="558" yMax="873">
      <component glyphName="G" x="0" y="0" flags="0x204"/>
      <component glyphName="dotaccent" x="124" y="201" flags="0x4"/>
    </TTGlyph>
    <TTGlyph name="Gdotaccent.flat" xMin="30" yMin="-13" xMax="558" yMax="873">
      <component glyphName="G.flat" x="0" y="0" flags="0x204"/>
      <component glyphName="dotaccent" x="124" y="201" flags="0x4"/>
    </TTGlyph>
    <TTGlyph name="H" xMin="51" yMin="0" xMax="579" yMax="690">
      <contour>
        <pt x="579" y="0" on="1"/>
        <pt x="410" y="0" on="1"/>
        <pt x="410" y="280" on="1"/>
        <pt x="220" y="280" on="1"/>
        <pt x="220" y="0" on="1"/>
        <pt x="51" y="0" on="1"/>
        <pt x="51" y="690" on="1"/>
        <pt x="220" y="690" on="1"/>
        <pt x="220" y="429" on="1"/>
        <pt x="410" y="429" on="1"/>
        <pt x="410" y="690" on="1"/>
        <pt x="579" y="690" on="1"/>
      </contour>
    </TTGlyph>
    <TTGlyph name="Hbar" xMin="2" yMin="0" xMax="672" yMax="690">
      <contour>
        <pt x="245" y="419" on="1"/>
        <pt x="437" y="419" on="1"/>
        <pt x="437" y="514" on="1"/>
        <pt x="245" y="514" on="1"/>
      </contour>
      <contour>
        <pt x="246" y="275" on="1"/>
        <pt x="246" y="0" on="1"/>
        <pt x="77" y="0" on="1"/>
        <pt x="77" y="505" on="1"/>
        <pt x="18" y="505" on="1"/>
        <pt x="2" y="616" on="1"/>
        <pt x="77" y="616" on="1"/>
        <pt x="77" y="690" on="1"/>
        <pt x="245" y="690" on="1"/>
        <pt x="245" y="616" on="1"/>
        <pt x="437" y="616" on="1"/>
        <pt x="437" y="690" on="1"/>
        <pt x="605" y="690" on="1"/>
        <pt x="605" y="616" on="1"/>
        <pt x="672" y="616" on="1"/>
        <pt x="672" y="505" on="1"/>
        <pt x="605" y="505" on="1"/>
        <pt x="605" y="0" on="1"/>
        <pt x="436" y="0" on="1"/>
        <pt x="436" y="275" on="1"/>
      </contour>
    </TTGlyph>
    <TTGlyph name="Hbar.flat" xMin="10" yMin="0" xMax="672" yMax="690">
      <contour>
        <pt x="245" y="419" on="1"/>
        <pt x="437" y="419" on="1"/>
        <pt x="437" y="514" on="1"/>
        <pt x="245" y="514" on="1"/>
      </contour>
      <contour>
        <pt x="246" y="275" on="1"/>
        <pt x="246" y="0" on="1"/>
        <pt x="77" y="0" on="1"/>
        <pt x="77" y="505" on="1"/>
        <pt x="10" y="505" on="1"/>
        <pt x="10" y="616" on="1"/>
        <pt x="77" y="616" on="1"/>
        <pt x="77" y="690" on="1"/>
        <pt x="245" y="690" on="1"/>
        <pt x="245" y="616" on="1"/>
        <pt x="437" y="616" on="1"/>
        <pt x="437" y="690" on="1"/>
        <pt x="605" y="690" on="1"/>
        <pt x="605" y="616" on="1"/>
        <pt x="672" y="616" on="1"/>
        <pt x="672" y="505" on="1"/>
        <pt x="605" y="505" on="1"/>
        <pt x="605" y="0" on="1"/>
        <pt x="436" y="0" on="1"/>
        <pt x="436" y="275" on="1"/>
      </contour>
    </TTGlyph>
    <TTGlyph name="I" xMin="54" yMin="0" xMax="223" yMax="690">
      <contour>
        <pt x="223" y="0" on="1"/>
        <pt x="54" y="0" on="1"/>
        <pt x="54" y="690" on="1"/>
        <pt x="223" y="690" on="1"/>
      </contour>
    </TTGlyph>
    <TTGlyph name="Iacute" xMin="54" yMin="0" xMax="315" yMax="885">
      <component glyphName="I" x="0" y="0" flags="0x204"/>
      <component glyphName="acute" x="-15" y="194" flags="0x4"/>
    </TTGlyph>
    <TTGlyph name="Ibreve" xMin="-10" yMin="0" xMax="287" yMax="882">
      <component glyphName="I" x="0" y="0" flags="0x204"/>
      <component glyphName="breve" x="-65" y="194" flags="0x4"/>
    </TTGlyph>
    <TTGlyph name="Icircumflex" xMin="-23" yMin="0" xMax="299" yMax="882">
      <component glyphName="I" x="0" y="0" flags="0x204"/>
      <component glyphName="circumflex" x="-66" y="194" flags="0x4"/>
    </TTGlyph>
    <TTGlyph name="Idieresis" xMin="-15" yMin="0" xMax="292" yMax="866">
      <component glyphName="I" x="0" y="0" flags="0x204"/>
      <component glyphName="dieresis" x="-65" y="194" flags="0x4"/>
    </TTGlyph>
    <TTGlyph name="Idotaccent" xMin="54" yMin="0" xMax="223" yMax="866">
      <component glyphName="I" x="0" y="0" flags="0x204"/>
      <component glyphName="dotaccent" x="-65" y="194" flags="0x4"/>
    </TTGlyph>
    <TTGlyph name="Igrave" xMin="-40" yMin="0" xMax="223" yMax="885">
      <component glyphName="I" x="0" y="0" flags="0x204"/>
      <component glyphName="grave" x="-116" y="194" flags="0x4"/>
    </TTGlyph>
    <TTGlyph name="Imacron" xMin="-5" yMin="0" xMax="282" yMax="848">
      <component glyphName="I" x="0" y="0" flags="0x204"/>
      <component glyphName="macron" x="-65" y="194" flags="0x4"/>
    </TTGlyph>
    <TTGlyph name="Iogonek" xMin="39" yMin="-198" xMax="234" yMax="690">
      <component glyphName="I" x="0" y="0" flags="0x204"/>
      <component glyphName="ogonek" x="-80" y="0" flags="0x4"/>
    </TTGlyph>
    <TTGlyph name="J" xMin="12" yMin="-7" xMax="334" yMax="690">
      <contour>
        <pt x="334" y="205" on="1"/>
        <pt x="334" y="92" on="0"/>
        <pt x="219" y="-7" on="0"/>
        <pt x="122" y="-7" on="1"/>
        <pt x="98" y="-7" on="0"/>
        <pt x="49" y="-2" on="0"/>
        <pt x="36" y="0" on="1"/>
        <pt x="12" y="144" on="1"/>
        <pt x="27" y="140" on="0"/>
        <pt x="58" y="136" on="0"/>
        <pt x="81" y="136" on="1"/>
        <pt x="120" y="136" on="0"/>
        <pt x="165" y="177" on="0"/>
        <pt x="165" y="228" on="1"/>
        <pt x="165" y="690" on="1"/>
        <pt x="334" y="690" on="1"/>
      </contour>
    </TTGlyph>
    <TTGlyph name="K" xMin="51" yMin="-8" xMax="583" yMax="690">
      <contour>
        <pt x="583" y="20" on="1"/>
        <pt x="405" y="-8" on="1"/>
        <pt x="220" y="319" on="1"/>
        <pt x="220" y="0" on="1"/>
        <pt x="51" y="0" on="1"/>
        <pt x="51" y="690" on="1"/>
        <pt x="220" y="690" on="1"/>
        <pt x="220" y="395" on="1"/>
        <pt x="390" y="690" on="1"/>
        <pt x="574" y="690" on="1"/>
        <pt x="375" y="369" on="1"/>
      </contour>
    </TTGlyph>
    <TTGlyph name="K.flat" xMin="51" yMin="0" xMax="591" yMax="690">
      <contour>
        <pt x="591" y="0" on="1"/>
        <pt x="398" y="0" on="1"/>
        <pt x="220" y="319" on="1"/>
        <pt x="220" y="0" on="1"/>
        <pt x="51" y="0" on="1"/>
        <pt x="51" y="690" on="1"/>
        <pt x="220" y="690" on="1"/>
        <pt x="220" y="395" on="1"/>
        <pt x="390" y="690" on="1"/>
        <pt x="574" y="690" on="1"/>
        <pt x="375" y="369" on="1"/>
      </contour>
    </TTGlyph>
    <TTGlyph name="Kcommaaccent" xMin="51" yMin="-237" xMax="583" yMax="690">
      <component glyphName="K" x="0" y="0" flags="0x204"/>
      <component glyphName="commaaccent" x="96" y="6" flags="0x4"/>
    </TTGlyph>
    <TTGlyph name="Kcommaaccent.flat" xMin="51" yMin="-237" xMax="591" yMax="690">
      <component glyphName="K.flat" x="0" y="0" flags="0x204"/>
      <component glyphName="commaaccent" x="96" y="6" flags="0x4"/>
    </TTGlyph>
    <TTGlyph name="L" xMin="51" yMin="0" xMax="430" yMax="690">
      <contour>
        <pt x="430" y="0" on="1"/>
        <pt x="51" y="0" on="1"/>
        <pt x="51" y="690" on="1"/>
        <pt x="220" y="690" on="1"/>
        <pt x="220" y="147" on="1"/>
        <pt x="406" y="147" on="1"/>
      </contour>
    </TTGlyph>
    <TTGlyph name="L.flat" xMin="51" yMin="0" xMax="421" yMax="690">
      <contour>
        <pt x="421" y="0" on="1"/>
        <pt x="51" y="0" on="1"/>
        <pt x="51" y="690" on="1"/>
        <pt x="220" y="690" on="1"/>
        <pt x="220" y="147" on="1"/>
        <pt x="421" y="147" on="1"/>
      </contour>
    </TTGlyph>
    <TTGlyph name="Lacute" xMin="51" yMin="0" xMax="430" yMax="888">
      <component glyphName="L" x="0" y="0" flags="0x204"/>
      <component glyphName="acute" x="2" y="197" flags="0x4"/>
    </TTGlyph>
    <TTGlyph name="Lacute.flat" xMin="51" yMin="0" xMax="421" yMax="888">
      <component glyphName="L.flat" x="0" y="0" flags="0x204"/>
      <component glyphName="acute" x="2" y="197" flags="0x4"/>
    </TTGlyph>
    <TTGlyph name="Lcaron" xMin="51" yMin="0" xMax="430" yMax="700">
      <component glyphName="L" x="0" y="0" flags="0x204"/>
      <component glyphName="caron.alt" x="126" y="-8" flags="0x4"/>
    </TTGlyph>
    <TTGlyph name="Lcaron.flat" xMin="51" yMin="0" xMax="421" yMax="700">
      <component glyphName="L.flat" x="0" y="0" flags="0x204"/>
      <component glyphName="caron.alt" x="126" y="-8" flags="0x4"/>
    </TTGlyph>
    <TTGlyph name="Lcommaaccent" xMin="51" yMin="-247" xMax="430" yMax="690">
      <component glyphName="L" x="0" y="0" flags="0x204"/>
      <component glyphName="commaaccent" x="32" y="-4" flags="0x4"/>
    </TTGlyph>
    <TTGlyph name="Lcommaaccent.flat" xMin="51" yMin="-247" xMax="421" yMax="690">
      <component glyphName="L.flat" x="0" y="0" flags="0x204"/>
      <component glyphName="commaaccent" x="32" y="-4" flags="0x4"/>
    </TTGlyph>
    <TTGlyph name="Ldot" xMin="51" yMin="0" xMax="430" yMax="690">
      <contour>
        <pt x="430" y="0" on="1"/>
        <pt x="51" y="0" on="1"/>
        <pt x="51" y="690" on="1"/>
        <pt x="220" y="690" on="1"/>
        <pt x="220" y="147" on="1"/>
        <pt x="406" y="147" on="1"/>
      </contour>
      <contour>
        <pt x="418" y="304" on="1"/>
        <pt x="297" y="304" on="1"/>
        <pt x="297" y="436" on="1"/>
        <pt x="418" y="436" on="1"/>
      </contour>
    </TTGlyph>
    <TTGlyph name="Ldot.flat" xMin="51" yMin="0" xMax="421" yMax="690">
      <contour>
        <pt x="421" y="0" on="1"/>
        <pt x="51" y="0" on="1"/>
        <pt x="51" y="690" on="1"/>
        <pt x="220" y="690" on="1"/>
        <pt x="220" y="147" on="1"/>
        <pt x="421" y="147" on="1"/>
      </contour>
      <contour>
        <pt x="419" y="304" on="1"/>
        <pt x="298" y="304" on="1"/>
        <pt x="298" y="436" on="1"/>
        <pt x="419" y="436" on="1"/>
      </contour>
    </TTGlyph>
    <TTGlyph name="Lslash" xMin="4" yMin="0" xMax="456" yMax="690">
      <contour>
        <pt x="456" y="0" on="1"/>
        <pt x="78" y="0" on="1"/>
        <pt x="78" y="246" on="1"/>
        <pt x="25" y="220" on="1"/>
        <pt x="4" y="347" on="1"/>
        <pt x="78" y="381" on="1"/>
        <pt x="78" y="690" on="1"/>
        <pt x="246" y="690" on="1"/>
        <pt x="246" y="459" on="1"/>
        <pt x="353" y="509" on="1"/>
        <pt x="353" y="373" on="1"/>
        <pt x="246" y="324" on="1"/>
        <pt x="246" y="147" on="1"/>
        <pt x="433" y="147" on="1"/>
      </contour>
    </TTGlyph>
    <TTGlyph name="Lslash.flat" xMin="13" yMin="0" xMax="449" yMax="690">
      <contour>
        <pt x="449" y="0" on="1"/>
        <pt x="78" y="0" on="1"/>
        <pt x="78" y="246" on="1"/>
        <pt x="13" y="215" on="1"/>
        <pt x="13" y="351" on="1"/>
        <pt x="78" y="381" on="1"/>
        <pt x="78" y="690" on="1"/>
        <pt x="246" y="690" on="1"/>
        <pt x="246" y="459" on="1"/>
        <pt x="353" y="509" on="1"/>
        <pt x="353" y="373" on="1"/>
        <pt x="246" y="324" on="1"/>
        <pt x="246" y="147" on="1"/>
        <pt x="447" y="147" on="1"/>
      </contour>
    </TTGlyph>
    <TTGlyph name="M" xMin="35" yMin="-1" xMax="775" yMax="690">
      <contour>
        <pt x="775" y="0" on="1"/>
        <pt x="609" y="0" on="1"/>
        <pt x="584" y="479" on="1"/>
        <pt x="476" y="-1" on="1"/>
        <pt x="314" y="-1" on="1"/>
        <pt x="206" y="479" on="1"/>
        <pt x="181" y="0" on="1"/>
        <pt x="35" y="0" on="1"/>
        <pt x="74" y="690" on="1"/>
        <pt x="298" y="690" on="1"/>
        <pt x="406" y="218" on="1"/>
        <pt x="515" y="690" on="1"/>
        <pt x="735" y="690" on="1"/>
      </contour>
    </TTGlyph>
    <TTGlyph name="M.alt" xMin="51" yMin="-3" xMax="755" yMax="690">
      <contour>
        <pt x="755" y="0" on="1"/>
        <pt x="595" y="0" on="1"/>
        <pt x="596" y="478" on="1"/>
        <pt x="470" y="-3" on="1"/>
        <pt x="320" y="-3" on="1"/>
        <pt x="194" y="478" on="1"/>
        <pt x="194" y="0" on="1"/>
        <pt x="51" y="0" on="1"/>
        <pt x="51" y="690" on="1"/>
        <pt x="281" y="690" on="1"/>
        <pt x="405" y="222" on="1"/>
        <pt x="528" y="690" on="1"/>
        <pt x="755" y="690" on="1"/>
      </contour>
    </TTGlyph>
    <TTGlyph name="N" xMin="51" yMin="0" xMax="577" yMax="690">
      <contour>
        <pt x="577" y="0" on="1"/>
        <pt x="429" y="0" on="1"/>
        <pt x="206" y="400" on="1"/>
        <pt x="207" y="0" on="1"/>
        <pt x="51" y="0" on="1"/>
        <pt x="51" y="690" on="1"/>
        <pt x="214" y="690" on="1"/>
        <pt x="422" y="315" on="1"/>
        <pt x="421" y="690" on="1"/>
        <pt x="577" y="690" on="1"/>
      </contour>
    </TTGlyph>
    <TTGlyph name="Nacute" xMin="51" yMin="0" xMax="577" yMax="882">
      <component glyphName="N" x="0" y="0" flags="0x204"/>
      <component glyphName="acute" x="162" y="191" flags="0x4"/>
    </TTGlyph>
    <TTGlyph name="Ncaron" xMin="51" yMin="0" xMax="577" yMax="879">
      <component glyphName="N" x="0" y="0" flags="0x204"/>
      <component glyphName="caron" x="113" y="191" flags="0x4"/>
    </TTGlyph>
    <TTGlyph name="Ncommaaccent" xMin="51" yMin="-237" xMax="577" yMax="690">
      <component glyphName="N" x="0" y="0" flags="0x204"/>
      <component glyphName="commaaccent" x="109" y="6" flags="0x4"/>
    </TTGlyph>
    <TTGlyph name="Ntilde" xMin="51" yMin="0" xMax="577" yMax="886">
      <component glyphName="N" x="0" y="0" flags="0x204"/>
      <component glyphName="tilde" x="115" y="191" flags="0x4"/>
    </TTGlyph>
    <TTGlyph name="O" xMin="30" yMin="-13" xMax="620" yMax="703">
      <contour>
        <pt x="620" y="346" on="1"/>
        <pt x="620" y="265" on="0"/>
        <pt x="579" y="131" on="0"/>
        <pt x="503" y="38" on="0"/>
        <pt x="393" y="-13" on="0"/>
        <pt x="324" y="-13" on="1"/>
        <pt x="255" y="-13" on="0"/>
        <pt x="146" y="37" on="0"/>
        <pt x="70" y="130" on="0"/>
        <pt x="30" y="263" on="0"/>
        <pt x="30" y="344" on="1"/>
        <pt x="30" y="425" on="0"/>
        <pt x="71" y="559" on="0"/>
        <pt x="147" y="652" on="0"/>
        <pt x="257" y="703" on="0"/>
        <pt x="326" y="703" on="1"/>
        <pt x="395" y="703" on="0"/>
        <pt x="504" y="653" on="0"/>
        <pt x="580" y="560" on="0"/>
        <pt x="620" y="427" on="0"/>
      </contour>
      <contour>
        <pt x="449" y="345" on="1"/>
        <pt x="449" y="449" on="0"/>
        <pt x="385" y="568" on="0"/>
        <pt x="325" y="568" on="1"/>
        <pt x="265" y="568" on="0"/>
        <pt x="201" y="449" on="0"/>
        <pt x="201" y="345" on="1"/>
        <pt x="201" y="241" on="0"/>
        <pt x="265" y="122" on="0"/>
        <pt x="325" y="122" on="1"/>
        <pt x="385" y="122" on="0"/>
        <pt x="449" y="241" on="0"/>
      </contour>
    </TTGlyph>
    <TTGlyph name="OE" xMin="31" yMin="0" xMax="793" yMax="690">
      <contour>
        <pt x="793" y="0" on="1"/>
        <pt x="367" y="0" on="1"/>
        <pt x="199" y="0" on="0"/>
        <pt x="31" y="185" on="0"/>
        <pt x="31" y="344" on="1"/>
        <pt x="31" y="505" on="0"/>
        <pt x="204" y="690" on="0"/>
        <pt x="369" y="690" on="1"/>
        <pt x="784" y="690" on="1"/>
        <pt x="784" y="553" on="1"/>
        <pt x="553" y="553" on="1"/>
        <pt x="553" y="424" on="1"/>
        <pt x="725" y="424" on="1"/>
        <pt x="747" y="286" on="1"/>
        <pt x="553" y="286" on="1"/>
        <pt x="553" y="137" on="1"/>
        <pt x="793" y="137" on="1"/>
      </contour>
      <contour>
        <pt x="388" y="134" on="1"/>
        <pt x="388" y="556" on="1"/>
        <pt x="369" y="556" on="1"/>
        <pt x="291" y="556" on="0"/>
        <pt x="201" y="459" on="0"/>
        <pt x="201" y="345" on="1"/>
        <pt x="201" y="232" on="0"/>
        <pt x="292" y="134" on="0"/>
        <pt x="369" y="134" on="1"/>
      </contour>
    </TTGlyph>
    <TTGlyph name="OE.flat" xMin="31" yMin="0" xMax="793" yMax="690">
      <contour>
        <pt x="793" y="0" on="1"/>
        <pt x="367" y="0" on="1"/>
        <pt x="199" y="0" on="0"/>
        <pt x="31" y="185" on="0"/>
        <pt x="31" y="344" on="1"/>
        <pt x="31" y="505" on="0"/>
        <pt x="204" y="690" on="0"/>
        <pt x="369" y="690" on="1"/>
        <pt x="784" y="690" on="1"/>
        <pt x="784" y="553" on="1"/>
        <pt x="553" y="553" on="1"/>
        <pt x="553" y="424" on="1"/>
        <pt x="736" y="424" on="1"/>
        <pt x="736" y="286" on="1"/>
        <pt x="553" y="286" on="1"/>
        <pt x="553" y="137" on="1"/>
        <pt x="793" y="137" on="1"/>
      </contour>
      <contour>
        <pt x="388" y="134" on="1"/>
        <pt x="388" y="556" on="1"/>
        <pt x="369" y="556" on="1"/>
        <pt x="291" y="556" on="0"/>
        <pt x="201" y="459" on="0"/>
        <pt x="201" y="345" on="1"/>
        <pt x="201" y="232" on="0"/>
        <pt x="292" y="134" on="0"/>
        <pt x="369" y="134" on="1"/>
      </contour>
    </TTGlyph>
    <TTGlyph name="Oacute" xMin="30" yMin="-13" xMax="620" yMax="892">
      <component glyphName="O" x="0" y="0" flags="0x204"/>
      <component glyphName="acute" x="172" y="201" flags="0x4"/>
    </TTGlyph>
    <TTGlyph name="Obreve" xMin="30" yMin="-13" xMax="620" yMax="889">
      <component glyphName="O" x="0" y="0" flags="0x204"/>
      <component glyphName="breve" x="122" y="201" flags="0x4"/>
    </TTGlyph>
    <TTGlyph name="Ocircumflex" xMin="30" yMin="-13" xMax="620" yMax="889">
      <component glyphName="O" x="0" y="0" flags="0x204"/>
      <component glyphName="circumflex" x="121" y="201" flags="0x4"/>
    </TTGlyph>
    <TTGlyph name="Odieresis" xMin="30" yMin="-13" xMax="620" yMax="873">
      <component glyphName="O" x="0" y="0" flags="0x204"/>
      <component glyphName="dieresis" x="122" y="201" flags="0x4"/>
    </TTGlyph>
    <TTGlyph name="Ograve" xMin="30" yMin="-13" xMax="620" yMax="892">
      <component glyphName="O" x="0" y="0" flags="0x204"/>
      <component glyphName="grave" x="71" y="201" flags="0x4"/>
    </TTGlyph>
    <TTGlyph name="Ohungarumlaut" xMin="30" yMin="-13" xMax="620" yMax="892">
      <component glyphName="O" x="0" y="0" flags="0x204"/>
      <component glyphName="hungarumlaut" x="171" y="201" flags="0x4"/>
    </TTGlyph>
    <TTGlyph name="Omacron" xMin="30" yMin="-13" xMax="620" yMax="855">
      <component glyphName="O" x="0" y="0" flags="0x204"/>
      <component glyphName="macron" x="122" y="201" flags="0x4"/>
    </TTGlyph>
    <TTGlyph name="Oslash" xMin="17" yMin="-13" xMax="633" yMax="703">
      <contour>
        <pt x="325" y="-13" on="1"/>
        <pt x="276" y="-13" on="0"/>
        <pt x="192" y="14" on="0"/>
        <pt x="158" y="39" on="1"/>
        <pt x="122" y="-10" on="1"/>
        <pt x="17" y="14" on="1"/>
        <pt x="90" y="114" on="1"/>
        <pt x="61" y="159" on="0"/>
        <pt x="30" y="276" on="0"/>
        <pt x="30" y="345" on="1"/>
        <pt x="30" y="426" on="0"/>
        <pt x="71" y="559" on="0"/>
        <pt x="147" y="652" on="0"/>
        <pt x="257" y="703" on="0"/>
        <pt x="325" y="703" on="1"/>
        <pt x="374" y="703" on="0"/>
        <pt x="458" y="676" on="0"/>
        <pt x="492" y="651" on="1"/>
        <pt x="528" y="700" on="1"/>
        <pt x="633" y="676" on="1"/>
        <pt x="560" y="576" on="1"/>
        <pt x="589" y="531" on="0"/>
        <pt x="620" y="414" on="0"/>
        <pt x="620" y="345" on="1"/>
        <pt x="620" y="264" on="0"/>
        <pt x="579" y="131" on="0"/>
        <pt x="503" y="38" on="0"/>
        <pt x="393" y="-13" on="0"/>
      </contour>
      <contour>
        <pt x="198" y="345" on="1"/>
        <pt x="198" y="316" on="0"/>
        <pt x="203" y="265" on="0"/>
        <pt x="208" y="243" on="1"/>
        <pt x="407" y="530" on="1"/>
        <pt x="391" y="550" on="0"/>
        <pt x="350" y="572" on="0"/>
        <pt x="325" y="572" on="1"/>
        <pt x="265" y="572" on="0"/>
        <pt x="198" y="452" on="0"/>
      </contour>
      <contour>
        <pt x="325" y="118" on="1"/>
        <pt x="385" y="118" on="0"/>
        <pt x="452" y="238" on="0"/>
        <pt x="452" y="345" on="1"/>
        <pt x="452" y="374" on="0"/>
        <pt x="447" y="425" on="0"/>
        <pt x="442" y="447" on="1"/>
        <pt x="243" y="160" on="1"/>
        <pt x="259" y="140" on="0"/>
        <pt x="300" y="118" on="0"/>
      </contour>
    </TTGlyph>
    <TTGlyph name="Oslashacute" xMin="17" yMin="-13" xMax="633" yMax="892">
      <component glyphName="Oslash" x="0" y="0" flags="0x204"/>
      <component glyphName="acute" x="173" y="201" flags="0x4"/>
    </TTGlyph>
    <TTGlyph name="Otilde" xMin="30" yMin="-13" xMax="620" yMax="896">
      <component glyphName="O" x="0" y="0" flags="0x204"/>
      <component glyphName="tilde" x="124" y="201" flags="0x4"/>
    </TTGlyph>
    <TTGlyph name="P" xMin="51" yMin="0" xMax="515" yMax="690">
      <contour>
        <pt x="51" y="0" on="1"/>
        <pt x="51" y="690" on="1"/>
        <pt x="252" y="690" on="1"/>
        <pt x="374" y="690" on="0"/>
        <pt x="515" y="578" on="0"/>
        <pt x="515" y="463" on="1"/>
        <pt x="515" y="403" on="0"/>
        <pt x="476" y="314" on="0"/>
        <pt x="406" y="256" on="0"/>
        <pt x="306" y="227" on="0"/>
        <pt x="246" y="227" on="1"/>
        <pt x="219" y="227" on="1"/>
        <pt x="219" y="0" on="1"/>
      </contour>
      <contour>
        <pt x="350" y="460" on="1"/>
        <pt x="350" y="511" on="0"/>
        <pt x="296" y="561" on="0"/>
        <pt x="244" y="561" on="1"/>
        <pt x="218" y="561" on="1"/>
        <pt x="218" y="356" on="1"/>
        <pt x="242" y="356" on="1"/>
        <pt x="294" y="356" on="0"/>
        <pt x="350" y="406" on="0"/>
      </contour>
    </TTGlyph>
    <TTGlyph name="Q" xMin="30" yMin="-130" xMax="620" yMax="703">
      <contour>
        <pt x="585" y="-130" on="1"/>
        <pt x="266" y="-12" on="1"/>
        <pt x="145" y="32" on="0"/>
        <pt x="30" y="195" on="0"/>
        <pt x="30" y="344" on="1"/>
        <pt x="30" y="425" on="0"/>
        <pt x="71" y="559" on="0"/>
        <pt x="147" y="652" on="0"/>
        <pt x="257" y="703" on="0"/>
        <pt x="326" y="703" on="1"/>
        <pt x="395" y="703" on="0"/>
        <pt x="504" y="653" on="0"/>
        <pt x="580" y="563" on="0"/>
        <pt x="620" y="434" on="0"/>
        <pt x="620" y="356" on="1"/>
        <pt x="620" y="245" on="0"/>
        <pt x="545" y="94" on="0"/>
        <pt x="478" y="53" on="1"/>
        <pt x="617" y="12" on="1"/>
      </contour>
      <contour>
        <pt x="449" y="344" on="1"/>
        <pt x="449" y="446" on="0"/>
        <pt x="385" y="568" on="0"/>
        <pt x="325" y="568" on="1"/>
        <pt x="265" y="568" on="0"/>
        <pt x="201" y="446" on="0"/>
        <pt x="201" y="344" on="1"/>
        <pt x="201" y="243" on="0"/>
        <pt x="265" y="119" on="0"/>
        <pt x="325" y="119" on="1"/>
        <pt x="385" y="119" on="0"/>
        <pt x="449" y="243" on="0"/>
      </contour>
    </TTGlyph>
    <TTGlyph name="Q.alt" xMin="30" yMin="-14" xMax="640" yMax="703">
      <contour>
        <pt x="611" y="-14" on="1"/>
        <pt x="518" y="67" on="1"/>
        <pt x="481" y="30" on="0"/>
        <pt x="382" y="-11" on="0"/>
        <pt x="324" y="-11" on="1"/>
        <pt x="255" y="-11" on="0"/>
        <pt x="146" y="39" on="0"/>
        <pt x="70" y="131" on="0"/>
        <pt x="30" y="263" on="0"/>
        <pt x="30" y="344" on="1"/>
        <pt x="30" y="425" on="0"/>
        <pt x="71" y="559" on="0"/>
        <pt x="147" y="652" on="0"/>
        <pt x="257" y="703" on="0"/>
        <pt x="326" y="703" on="1"/>
        <pt x="396" y="703" on="0"/>
        <pt x="506" y="652" on="0"/>
        <pt x="581" y="559" on="0"/>
        <pt x="620" y="428" on="0"/>
        <pt x="620" y="349" on="1"/>
        <pt x="620" y="302" on="0"/>
        <pt x="605" y="216" on="0"/>
        <pt x="590" y="179" on="1"/>
        <pt x="640" y="141" on="1"/>
      </contour>
      <contour>
        <pt x="327" y="120" on="1"/>
        <pt x="352" y="120" on="0"/>
        <pt x="392" y="141" on="0"/>
        <pt x="407" y="160" on="1"/>
        <pt x="288" y="258" on="1"/>
        <pt x="430" y="306" on="1"/>
        <pt x="449" y="291" on="1"/>
        <pt x="450" y="304" on="0"/>
        <pt x="451" y="331" on="0"/>
        <pt x="451" y="346" on="1"/>
        <pt x="451" y="450" on="0"/>
        <pt x="386" y="568" on="0"/>
        <pt x="327" y="568" on="1"/>
        <pt x="265" y="568" on="0"/>
        <pt x="200" y="449" on="0"/>
        <pt x="200" y="344" on="1"/>
        <pt x="200" y="239" on="0"/>
        <pt x="267" y="120" on="0"/>
      </contour>
    </TTGlyph>
    <TTGlyph name="Q.alt_flat" xMin="30" yMin="-14" xMax="632" yMax="703">
      <contour>
        <pt x="632" y="-14" on="1"/>
        <pt x="517" y="66" on="1"/>
        <pt x="480" y="29" on="0"/>
        <pt x="382" y="-11" on="0"/>
        <pt x="324" y="-11" on="1"/>
        <pt x="255" y="-11" on="0"/>
        <pt x="146" y="39" on="0"/>
        <pt x="70" y="131" on="0"/>
        <pt x="30" y="263" on="0"/>
        <pt x="30" y="344" on="1"/>
        <pt x="30" y="425" on="0"/>
        <pt x="71" y="559" on="0"/>
        <pt x="147" y="652" on="0"/>
        <pt x="257" y="703" on="0"/>
        <pt x="326" y="703" on="1"/>
        <pt x="396" y="703" on="0"/>
        <pt x="506" y="652" on="0"/>
        <pt x="581" y="559" on="0"/>
        <pt x="620" y="428" on="0"/>
        <pt x="620" y="349" on="1"/>
        <pt x="620" y="300" on="0"/>
        <pt x="604" y="212" on="0"/>
        <pt x="588" y="174" on="1"/>
        <pt x="632" y="146" on="1"/>
      </contour>
      <contour>
        <pt x="328" y="120" on="1"/>
        <pt x="349" y="120" on="0"/>
        <pt x="385" y="135" on="0"/>
        <pt x="398" y="149" on="1"/>
        <pt x="326" y="198" on="1"/>
        <pt x="326" y="349" on="1"/>
        <pt x="446" y="267" on="1"/>
        <pt x="448" y="285" on="0"/>
        <pt x="451" y="324" on="0"/>
        <pt x="451" y="346" on="1"/>
        <pt x="451" y="450" on="0"/>
        <pt x="386" y="568" on="0"/>
        <pt x="327" y="568" on="1"/>
        <pt x="265" y="568" on="0"/>
        <pt x="200" y="449" on="0"/>
        <pt x="200" y="344" on="1"/>
        <pt x="200" y="239" on="0"/>
        <pt x="268" y="120" on="0"/>
      </contour>
    </TTGlyph>
    <TTGlyph name="R" xMin="51" yMin="-8" xMax="559" yMax="690">
      <contour>
        <pt x="385" y="-8" on="1"/>
        <pt x="249" y="243" on="1"/>
        <pt x="219" y="243" on="1"/>
        <pt x="219" y="0" on="1"/>
        <pt x="51" y="0" on="1"/>
        <pt x="51" y="690" on="1"/>
        <pt x="268" y="690" on="1"/>
        <pt x="388" y="690" on="0"/>
        <pt x="525" y="580" on="0"/>
        <pt x="525" y="475" on="1"/>
        <pt x="525" y="406" on="0"/>
        <pt x="460" y="310" on="0"/>
        <pt x="406" y="285" on="1"/>
        <pt x="559" y="19" on="1"/>
      </contour>
      <contour>
        <pt x="360" y="465" on="1"/>
        <pt x="360" y="514" on="0"/>
        <pt x="305" y="562" on="0"/>
        <pt x="254" y="562" on="1"/>
        <pt x="217" y="562" on="1"/>
        <pt x="217" y="364" on="1"/>
        <pt x="252" y="364" on="1"/>
        <pt x="303" y="364" on="0"/>
        <pt x="360" y="415" on="0"/>
      </contour>
    </TTGlyph>
    <TTGlyph name="R.flat" xMin="51" yMin="0" xMax="567" yMax="690">
      <contour>
        <pt x="360" y="465" on="1"/>
        <pt x="360" y="514" on="0"/>
        <pt x="305" y="562" on="0"/>
        <pt x="254" y="562" on="1"/>
        <pt x="217" y="562" on="1"/>
        <pt x="217" y="364" on="1"/>
        <pt x="252" y="364" on="1"/>
        <pt x="303" y="364" on="0"/>
        <pt x="360" y="415" on="0"/>
      </contour>
      <contour>
        <pt x="219" y="0" on="1"/>
        <pt x="51" y="0" on="1"/>
        <pt x="51" y="690" on="1"/>
        <pt x="268" y="690" on="1"/>
        <pt x="388" y="690" on="0"/>
        <pt x="525" y="580" on="0"/>
        <pt x="525" y="475" on="1"/>
        <pt x="525" y="406" on="0"/>
        <pt x="460" y="310" on="0"/>
        <pt x="406" y="285" on="1"/>
        <pt x="567" y="0" on="1"/>
        <pt x="377" y="0" on="1"/>
        <pt x="249" y="243" on="1"/>
        <pt x="219" y="243" on="1"/>
      </contour>
    </TTGlyph>
    <TTGlyph name="R_p" xMin="60" yMin="-180" xMax="995" yMax="683">
      <contour>
        <pt x="385" y="-8" on="1"/>
        <pt x="251" y="241" on="1"/>
        <pt x="215" y="241" on="1"/>
        <pt x="215" y="0" on="1"/>
        <pt x="60" y="0" on="1"/>
        <pt x="60" y="683" on="1"/>
        <pt x="261" y="683" on="1"/>
        <pt x="380" y="683" on="0"/>
        <pt x="516" y="574" on="0"/>
        <pt x="516" y="470" on="1"/>
        <pt x="516" y="402" on="0"/>
        <pt x="451" y="307" on="0"/>
        <pt x="397" y="282" on="1"/>
        <pt x="547" y="19" on="1"/>
      </contour>
      <contour>
        <pt x="359" y="460" on="1"/>
        <pt x="359" y="509" on="0"/>
        <pt x="304" y="558" on="0"/>
        <pt x="253" y="558" on="1"/>
        <pt x="213" y="558" on="1"/>
        <pt x="213" y="360" on="1"/>
        <pt x="251" y="360" on="1"/>
        <pt x="302" y="360" on="0"/>
        <pt x="359" y="410" on="0"/>
      </contour>
      <contour>
        <pt x="851" y="249" on="1"/>
        <pt x="851" y="312" on="0"/>
        <pt x="812" y="369" on="0"/>
        <pt x="783" y="369" on="1"/>
        <pt x="764" y="369" on="0"/>
        <pt x="734" y="349" on="0"/>
        <pt x="718" y="333" on="1"/>
        <pt x="718" y="124" on="1"/>
        <pt x="729" y="119" on="0"/>
        <pt x="750" y="113" on="0"/>
        <pt x="765" y="113" on="1"/>
        <pt x="803" y="113" on="0"/>
        <pt x="851" y="177" on="0"/>
      </contour>
      <contour>
        <pt x="995" y="261" on="1"/>
        <pt x="995" y="190" on="0"/>
        <pt x="962" y="89" on="0"/>
        <pt x="906" y="26" on="0"/>
        <pt x="833" y="-4" on="0"/>
        <pt x="793" y="-4" on="1"/>
        <pt x="771" y="-4" on="0"/>
        <pt x="735" y="3" on="0"/>
        <pt x="719" y="8" on="1"/>
        <pt x="719" y="-157" on="1"/>
        <pt x="573" y="-180" on="1"/>
        <pt x="573" y="491" on="1"/>
        <pt x="699" y="491" on="1"/>
        <pt x="708" y="435" on="1"/>
        <pt x="732" y="460" on="0"/>
        <pt x="793" y="501" on="0"/>
        <pt x="835" y="501" on="1"/>
        <pt x="904" y="501" on="0"/>
        <pt x="995" y="380" on="0"/>
      </contour>
    </TTGlyph>
    <TTGlyph name="R_p.flat" xMin="60" yMin="-180" xMax="995" yMax="683">
      <contour>
        <pt x="359" y="460" on="1"/>
        <pt x="359" y="509" on="0"/>
        <pt x="304" y="558" on="0"/>
        <pt x="253" y="558" on="1"/>
        <pt x="213" y="558" on="1"/>
        <pt x="213" y="360" on="1"/>
        <pt x="251" y="360" on="1"/>
        <pt x="302" y="360" on="0"/>
        <pt x="359" y="410" on="0"/>
      </contour>
      <contour>
        <pt x="851" y="249" on="1"/>
        <pt x="851" y="312" on="0"/>
        <pt x="812" y="369" on="0"/>
        <pt x="783" y="369" on="1"/>
        <pt x="764" y="369" on="0"/>
        <pt x="734" y="349" on="0"/>
        <pt x="718" y="333" on="1"/>
        <pt x="718" y="124" on="1"/>
        <pt x="729" y="119" on="0"/>
        <pt x="750" y="113" on="0"/>
        <pt x="765" y="113" on="1"/>
        <pt x="803" y="113" on="0"/>
        <pt x="851" y="177" on="0"/>
      </contour>
      <contour>
        <pt x="381" y="0" on="1"/>
        <pt x="251" y="241" on="1"/>
        <pt x="215" y="241" on="1"/>
        <pt x="215" y="0" on="1"/>
        <pt x="60" y="0" on="1"/>
        <pt x="60" y="683" on="1"/>
        <pt x="261" y="683" on="1"/>
        <pt x="380" y="683" on="0"/>
        <pt x="516" y="574" on="0"/>
        <pt x="516" y="470" on="1"/>
        <pt x="516" y="402" on="0"/>
        <pt x="451" y="307" on="0"/>
        <pt x="397" y="282" on="1"/>
        <pt x="558" y="0" on="1"/>
      </contour>
      <contour>
        <pt x="995" y="261" on="1"/>
        <pt x="995" y="190" on="0"/>
        <pt x="962" y="89" on="0"/>
        <pt x="906" y="26" on="0"/>
        <pt x="833" y="-4" on="0"/>
        <pt x="793" y="-4" on="1"/>
        <pt x="771" y="-4" on="0"/>
        <pt x="735" y="3" on="0"/>
        <pt x="719" y="8" on="1"/>
        <pt x="719" y="-157" on="1"/>
        <pt x="573" y="-180" on="1"/>
        <pt x="573" y="491" on="1"/>
        <pt x="699" y="491" on="1"/>
        <pt x="708" y="435" on="1"/>
        <pt x="732" y="460" on="0"/>
        <pt x="793" y="501" on="0"/>
        <pt x="835" y="501" on="1"/>
        <pt x="904" y="501" on="0"/>
        <pt x="995" y="380" on="0"/>
      </contour>
    </TTGlyph>
    <TTGlyph name="Racute" xMin="51" yMin="-8" xMax="559" yMax="885">
      <component glyphName="R" x="0" y="0" flags="0x204"/>
      <component glyphName="acute" x="119" y="194" flags="0x4"/>
    </TTGlyph>
    <TTGlyph name="Racute.flat" xMin="51" yMin="0" xMax="567" yMax="885">
      <component glyphName="R.flat" x="0" y="0" flags="0x204"/>
      <component glyphName="acute" x="119" y="194" flags="0x4"/>
    </TTGlyph>
    <TTGlyph name="Rcaron" xMin="51" yMin="-8" xMax="559" yMax="882">
      <component glyphName="R" x="0" y="0" flags="0x204"/>
      <component glyphName="caron" x="69" y="194" flags="0x4"/>
    </TTGlyph>
    <TTGlyph name="Rcaron.flat" xMin="51" yMin="0" xMax="567" yMax="882">
      <component glyphName="R.flat" x="0" y="0" flags="0x204"/>
      <component glyphName="caron" x="69" y="194" flags="0x4"/>
    </TTGlyph>
    <TTGlyph name="Rcommaaccent" xMin="51" yMin="-237" xMax="559" yMax="690">
      <component glyphName="R" x="0" y="0" flags="0x204"/>
      <component glyphName="commaaccent" x="80" y="6" flags="0x4"/>
    </TTGlyph>
    <TTGlyph name="Rcommaaccent.flat" xMin="51" yMin="-237" xMax="567" yMax="690">
      <component glyphName="R.flat" x="0" y="0" flags="0x204"/>
      <component glyphName="commaaccent" x="80" y="6" flags="0x4"/>
    </TTGlyph>
    <TTGlyph name="S" xMin="25" yMin="-9" xMax="475" yMax="699">
      <contour>
        <pt x="475" y="202" on="1"/>
        <pt x="475" y="150" on="0"/>
        <pt x="440" y="71" on="0"/>
        <pt x="378" y="18" on="0"/>
        <pt x="291" y="-9" on="0"/>
        <pt x="241" y="-9" on="1"/>
        <pt x="179" y="-9" on="0"/>
        <pt x="74" y="17" on="0"/>
        <pt x="25" y="39" on="1"/>
        <pt x="48" y="183" on="1"/>
        <pt x="98" y="157" on="0"/>
        <pt x="193" y="125" on="0"/>
        <pt x="237" y="125" on="1"/>
        <pt x="271" y="125" on="0"/>
        <pt x="312" y="157" on="0"/>
        <pt x="312" y="185" on="1"/>
        <pt x="312" y="214" on="0"/>
        <pt x="269" y="255" on="0"/>
        <pt x="206" y="288" on="1"/>
        <pt x="122" y="330" on="0"/>
        <pt x="39" y="422" on="0"/>
        <pt x="39" y="500" on="1"/>
        <pt x="39" y="594" on="0"/>
        <pt x="165" y="699" on="0"/>
        <pt x="263" y="699" on="1"/>
        <pt x="320" y="699" on="0"/>
        <pt x="406" y="678" on="0"/>
        <pt x="446" y="658" on="1"/>
        <pt x="423" y="515" on="1"/>
        <pt x="381" y="540" on="0"/>
        <pt x="302" y="565" on="0"/>
        <pt x="270" y="565" on="1"/>
        <pt x="236" y="565" on="0"/>
        <pt x="202" y="535" on="0"/>
        <pt x="202" y="512" on="1"/>
        <pt x="202" y="487" on="0"/>
        <pt x="241" y="450" on="0"/>
        <pt x="298" y="420" on="1"/>
        <pt x="390" y="374" on="0"/>
        <pt x="475" y="280" on="0"/>
      </contour>
    </TTGlyph>
    <TTGlyph name="Sacute" xMin="25" yMin="-9" xMax="475" yMax="892">
      <component glyphName="S" x="0" y="0" flags="0x204"/>
      <component glyphName="acute" x="108" y="201" flags="0x4"/>
    </TTGlyph>
    <TTGlyph name="Scaron" xMin="25" yMin="-9" xMax="475" yMax="889">
      <component glyphName="S" x="0" y="0" flags="0x204"/>
      <component glyphName="caron" x="58" y="201" flags="0x4"/>
    </TTGlyph>
    <TTGlyph name="Scedilla" xMin="25" yMin="-183" xMax="475" yMax="699">
      <component glyphName="S" x="0" y="0" flags="0x204"/>
      <component glyphName="cedilla" x="39" y="-4" flags="0x4"/>
    </TTGlyph>
    <TTGlyph name="Scommaaccent" xMin="25" yMin="-249" xMax="475" yMax="699">
      <component glyphName="S" x="0" y="0" flags="0x204"/>
      <component glyphName="commaaccent" x="48" y="-6" flags="0x4"/>
    </TTGlyph>
    <TTGlyph name="T" xMin="18" yMin="0" xMax="532" yMax="690">
      <contour>
        <pt x="532" y="546" on="1"/>
        <pt x="356" y="546" on="1"/>
        <pt x="356" y="0" on="1"/>
        <pt x="187" y="0" on="1"/>
        <pt x="187" y="546" on="1"/>
        <pt x="18" y="546" on="1"/>
        <pt x="18" y="690" on="1"/>
        <pt x="509" y="690" on="1"/>
      </contour>
    </TTGlyph>
    <TTGlyph name="T.flat" xMin="18" yMin="0" xMax="524" yMax="690">
      <contour>
        <pt x="524" y="546" on="1"/>
        <pt x="356" y="546" on="1"/>
        <pt x="356" y="0" on="1"/>
        <pt x="187" y="0" on="1"/>
        <pt x="187" y="546" on="1"/>
        <pt x="18" y="546" on="1"/>
        <pt x="18" y="690" on="1"/>
        <pt x="524" y="690" on="1"/>
      </contour>
    </TTGlyph>
    <TTGlyph name="Tcaron" xMin="18" yMin="0" xMax="532" yMax="882">
      <component glyphName="T" x="0" y="0" flags="0x204"/>
      <component glyphName="caron" x="70" y="194" flags="0x4"/>
    </TTGlyph>
    <TTGlyph name="Tcaron.flat" xMin="18" yMin="0" xMax="524" yMax="882">
      <component glyphName="T.flat" x="0" y="0" flags="0x204"/>
      <component glyphName="caron" x="69" y="194" flags="0x4"/>
    </TTGlyph>
    <TTGlyph name="Tcommaaccent" xMin="18" yMin="-247" xMax="532" yMax="690">
      <component glyphName="T" x="0" y="0" flags="0x204"/>
      <component glyphName="commaaccent" x="66" y="-4" flags="0x4"/>
    </TTGlyph>
    <TTGlyph name="Tcommaaccent.flat" xMin="18" yMin="-247" xMax="524" yMax="690">
      <component glyphName="T.flat" x="0" y="0" flags="0x204"/>
      <component glyphName="commaaccent" x="66" y="-4" flags="0x4"/>
    </TTGlyph>
    <TTGlyph name="Thorn" xMin="51" yMin="0" xMax="514" yMax="690">
      <contour>
        <pt x="514" y="358" on="1"/>
        <pt x="514" y="239" on="0"/>
        <pt x="366" y="122" on="0"/>
        <pt x="246" y="122" on="1"/>
        <pt x="219" y="122" on="1"/>
        <pt x="219" y="0" on="1"/>
        <pt x="51" y="0" on="1"/>
        <pt x="51" y="690" on="1"/>
        <pt x="219" y="690" on="1"/>
        <pt x="219" y="585" on="1"/>
        <pt x="252" y="585" on="1"/>
        <pt x="374" y="585" on="0"/>
        <pt x="514" y="473" on="0"/>
      </contour>
      <contour>
        <pt x="350" y="356" on="1"/>
        <pt x="350" y="407" on="0"/>
        <pt x="296" y="456" on="0"/>
        <pt x="244" y="456" on="1"/>
        <pt x="218" y="456" on="1"/>
        <pt x="218" y="251" on="1"/>
        <pt x="242" y="251" on="1"/>
        <pt x="294" y="252" on="0"/>
        <pt x="350" y="302" on="0"/>
      </contour>
    </TTGlyph>
    <TTGlyph name="U" xMin="46" yMin="-11" xMax="570" yMax="690">
      <contour>
        <pt x="570" y="248" on="1"/>
        <pt x="570" y="120" on="0"/>
        <pt x="427" y="-11" on="0"/>
        <pt x="307" y="-11" on="1"/>
        <pt x="185" y="-11" on="0"/>
        <pt x="46" y="119" on="0"/>
        <pt x="46" y="247" on="1"/>
        <pt x="46" y="690" on="1"/>
        <pt x="215" y="690" on="1"/>
        <pt x="215" y="244" on="1"/>
        <pt x="215" y="191" on="0"/>
        <pt x="262" y="131" on="0"/>
        <pt x="308" y="131" on="1"/>
        <pt x="355" y="131" on="0"/>
        <pt x="402" y="190" on="0"/>
        <pt x="402" y="242" on="1"/>
        <pt x="402" y="690" on="1"/>
        <pt x="570" y="690" on="1"/>
      </contour>
    </TTGlyph>
    <TTGlyph name="U.alt" xMin="49" yMin="-8" xMax="571" yMax="690">
      <contour>
        <pt x="429" y="0" on="1"/>
        <pt x="420" y="57" on="1"/>
        <pt x="376" y="27" on="0"/>
        <pt x="288" y="-8" on="0"/>
        <pt x="236" y="-8" on="1"/>
        <pt x="152" y="-8" on="0"/>
        <pt x="49" y="88" on="0"/>
        <pt x="49" y="194" on="1"/>
        <pt x="49" y="690" on="1"/>
        <pt x="217" y="690" on="1"/>
        <pt x="217" y="221" on="1"/>
        <pt x="217" y="180" on="0"/>
        <pt x="254" y="140" on="0"/>
        <pt x="291" y="140" on="1"/>
        <pt x="317" y="140" on="0"/>
        <pt x="372" y="163" on="0"/>
        <pt x="402" y="184" on="1"/>
        <pt x="402" y="690" on="1"/>
        <pt x="571" y="690" on="1"/>
        <pt x="571" y="0" on="1"/>
      </contour>
    </TTGlyph>
    <TTGlyph name="Uacute" xMin="46" yMin="-11" xMax="570" yMax="882">
      <component glyphName="U" x="0" y="0" flags="0x204"/>
      <component glyphName="acute" x="155" y="191" flags="0x4"/>
    </TTGlyph>
    <TTGlyph name="Uacute.alt" xMin="49" yMin="-8" xMax="571" yMax="882">
      <component glyphName="U.alt" x="0" y="0" flags="0x204"/>
      <component glyphName="acute" x="156" y="191" flags="0x4"/>
    </TTGlyph>
    <TTGlyph name="Ubreve" xMin="46" yMin="-11" xMax="570" yMax="876">
      <component glyphName="U" x="0" y="0" flags="0x204"/>
      <component glyphName="breve" x="105" y="188" flags="0x4"/>
    </TTGlyph>
    <TTGlyph name="Ubreve.alt" xMin="49" yMin="-8" xMax="571" yMax="876">
      <component glyphName="U.alt" x="0" y="0" flags="0x204"/>
      <component glyphName="breve" x="106" y="188" flags="0x4"/>
    </TTGlyph>
    <TTGlyph name="Ucircumflex" xMin="46" yMin="-11" xMax="570" yMax="879">
      <component glyphName="U" x="0" y="0" flags="0x204"/>
      <component glyphName="circumflex" x="104" y="191" flags="0x4"/>
    </TTGlyph>
    <TTGlyph name="Ucircumflex.alt" xMin="49" yMin="-8" xMax="571" yMax="879">
      <component glyphName="U.alt" x="0" y="0" flags="0x204"/>
      <component glyphName="circumflex" x="105" y="191" flags="0x4"/>
    </TTGlyph>
    <TTGlyph name="Udieresis" xMin="46" yMin="-11" xMax="570" yMax="863">
      <component glyphName="U" x="0" y="0" flags="0x204"/>
      <component glyphName="dieresis" x="105" y="191" flags="0x4"/>
    </TTGlyph>
    <TTGlyph name="Udieresis.alt" xMin="49" yMin="-8" xMax="571" yMax="863">
      <component glyphName="U.alt" x="0" y="0" flags="0x204"/>
      <component glyphName="dieresis" x="106" y="191" flags="0x4"/>
    </TTGlyph>
    <TTGlyph name="Ugrave" xMin="46" yMin="-11" xMax="570" yMax="882">
      <component glyphName="U" x="0" y="0" flags="0x204"/>
      <component glyphName="grave" x="55" y="191" flags="0x4"/>
    </TTGlyph>
    <TTGlyph name="Ugrave.alt" xMin="49" yMin="-8" xMax="571" yMax="882">
      <component glyphName="U.alt" x="0" y="0" flags="0x204"/>
      <component glyphName="grave" x="56" y="191" flags="0x4"/>
    </TTGlyph>
    <TTGlyph name="Uhungarumlaut" xMin="46" yMin="-11" xMax="570" yMax="882">
      <component glyphName="U" x="0" y="0" flags="0x204"/>
      <component glyphName="hungarumlaut" x="154" y="191" flags="0x4"/>
    </TTGlyph>
    <TTGlyph name="Uhungarumlaut.alt" xMin="49" yMin="-8" xMax="571" yMax="882">
      <component glyphName="U.alt" x="0" y="0" flags="0x204"/>
      <component glyphName="hungarumlaut" x="155" y="191" flags="0x4"/>
    </TTGlyph>
    <TTGlyph name="Umacron" xMin="46" yMin="-11" xMax="570" yMax="845">
      <component glyphName="U" x="0" y="0" flags="0x204"/>
      <component glyphName="macron" x="105" y="191" flags="0x4"/>
    </TTGlyph>
    <TTGlyph name="Umacron.alt" xMin="49" yMin="-8" xMax="571" yMax="845">
      <component glyphName="U.alt" x="0" y="0" flags="0x204"/>
      <component glyphName="macron" x="106" y="191" flags="0x4"/>
    </TTGlyph>
    <TTGlyph name="Uogonek" xMin="46" yMin="-198" xMax="570" yMax="690">
      <component glyphName="U" x="0" y="0" flags="0x204"/>
      <component glyphName="ogonek" x="93" y="0" flags="0x4"/>
    </TTGlyph>
    <TTGlyph name="Uogonek.alt" xMin="49" yMin="-198" xMax="571" yMax="690">
      <component glyphName="U.alt" x="0" y="0" flags="0x204"/>
      <component glyphName="ogonek" x="252" y="0" flags="0x4"/>
    </TTGlyph>
    <TTGlyph name="Uring" xMin="46" yMin="-11" xMax="570" yMax="941">
      <component glyphName="U" x="0" y="0" flags="0x204"/>
      <component glyphName="ring" x="105" y="184" flags="0x4"/>
    </TTGlyph>
    <TTGlyph name="Uring.alt" xMin="49" yMin="-8" xMax="571" yMax="941">
      <component glyphName="U.alt" x="0" y="0" flags="0x204"/>
      <component glyphName="ring" x="106" y="184" flags="0x4"/>
    </TTGlyph>
    <TTGlyph name="V" xMin="9" yMin="-2" xMax="606" yMax="698">
      <contour>
        <pt x="606" y="690" on="1"/>
        <pt x="398" y="-2" on="1"/>
        <pt x="212" y="-2" on="1"/>
        <pt x="9" y="670" on="1"/>
        <pt x="188" y="698" on="1"/>
        <pt x="313" y="210" on="1"/>
        <pt x="433" y="690" on="1"/>
      </contour>
    </TTGlyph>
    <TTGlyph name="V.flat" xMin="8" yMin="-2" xMax="609" yMax="690">
      <contour>
        <pt x="609" y="690" on="1"/>
        <pt x="400" y="-2" on="1"/>
        <pt x="217" y="-2" on="1"/>
        <pt x="8" y="690" on="1"/>
        <pt x="196" y="690" on="1"/>
        <pt x="317" y="210" on="1"/>
        <pt x="437" y="690" on="1"/>
      </contour>
    </TTGlyph>
    <TTGlyph name="W" xMin="13" yMin="0" xMax="882" yMax="698">
      <contour>
        <pt x="882" y="690" on="1"/>
        <pt x="719" y="0" on="1"/>
        <pt x="546" y="0" on="1"/>
        <pt x="444" y="455" on="1"/>
        <pt x="344" y="0" on="1"/>
        <pt x="172" y="0" on="1"/>
        <pt x="13" y="671" on="1"/>
        <pt x="190" y="698" on="1"/>
        <pt x="276" y="250" on="1"/>
        <pt x="369" y="690" on="1"/>
        <pt x="542" y="690" on="1"/>
        <pt x="636" y="250" on="1"/>
        <pt x="718" y="690" on="1"/>
      </contour>
    </TTGlyph>
    <TTGlyph name="W.alt" xMin="10" yMin="-2" xMax="888" yMax="698">
      <contour>
        <pt x="527" y="-2" on="1"/>
        <pt x="447" y="296" on="1"/>
        <pt x="363" y="-2" on="1"/>
        <pt x="197" y="-2" on="1"/>
        <pt x="10" y="671" on="1"/>
        <pt x="186" y="698" on="1"/>
        <pt x="303" y="224" on="1"/>
        <pt x="382" y="503" on="1"/>
        <pt x="335" y="673" on="1"/>
        <pt x="509" y="698" on="1"/>
        <pt x="616" y="224" on="1"/>
        <pt x="722" y="690" on="1"/>
        <pt x="888" y="690" on="1"/>
        <pt x="694" y="-2" on="1"/>
      </contour>
    </TTGlyph>
    <TTGlyph name="W.alt_flat" xMin="8" yMin="-2" xMax="892" yMax="690">
      <contour>
        <pt x="530" y="-2" on="1"/>
        <pt x="450" y="296" on="1"/>
        <pt x="366" y="-2" on="1"/>
        <pt x="200" y="-2" on="1"/>
        <pt x="8" y="690" on="1"/>
        <pt x="191" y="690" on="1"/>
        <pt x="306" y="224" on="1"/>
        <pt x="385" y="503" on="1"/>
        <pt x="333" y="690" on="1"/>
        <pt x="514" y="690" on="1"/>
        <pt x="619" y="224" on="1"/>
        <pt x="725" y="690" on="1"/>
        <pt x="892" y="690" on="1"/>
        <pt x="697" y="-2" on="1"/>
      </contour>
    </TTGlyph>
    <TTGlyph name="W.flat" xMin="10" yMin="0" xMax="884" yMax="690">
      <contour>
        <pt x="884" y="690" on="1"/>
        <pt x="721" y="0" on="1"/>
        <pt x="548" y="0" on="1"/>
        <pt x="446" y="455" on="1"/>
        <pt x="347" y="0" on="1"/>
        <pt x="175" y="0" on="1"/>
        <pt x="10" y="690" on="1"/>
        <pt x="194" y="690" on="1"/>
        <pt x="279" y="250" on="1"/>
        <pt x="371" y="690" on="1"/>
        <pt x="545" y="690" on="1"/>
        <pt x="639" y="250" on="1"/>
        <pt x="721" y="690" on="1"/>
      </contour>
    </TTGlyph>
    <TTGlyph name="Wacute" xMin="13" yMin="0" xMax="882" yMax="885">
      <component glyphName="W" x="0" y="0" flags="0x204"/>
      <component glyphName="acute" x="301" y="194" flags="0x4"/>
    </TTGlyph>
    <TTGlyph name="Wacute.alt" xMin="10" yMin="-2" xMax="888" yMax="885">
      <component glyphName="W.alt" x="0" y="0" flags="0x204"/>
      <component glyphName="acute" x="295" y="194" flags="0x4"/>
    </TTGlyph>
    <TTGlyph name="Wacute.alt_flat" xMin="8" yMin="-2" xMax="892" yMax="885">
      <component glyphName="W.alt_flat" x="0" y="0" flags="0x204"/>
      <component glyphName="acute" x="296" y="194" flags="0x4"/>
    </TTGlyph>
    <TTGlyph name="Wacute.flat" xMin="10" yMin="0" xMax="884" yMax="885">
      <component glyphName="W.flat" x="0" y="0" flags="0x204"/>
      <component glyphName="acute" x="304" y="194" flags="0x4"/>
    </TTGlyph>
    <TTGlyph name="Wcircumflex" xMin="13" yMin="0" xMax="882" yMax="882">
      <component glyphName="W" x="0" y="0" flags="0x204"/>
      <component glyphName="circumflex" x="250" y="194" flags="0x4"/>
    </TTGlyph>
    <TTGlyph name="Wcircumflex.alt" xMin="10" yMin="-2" xMax="888" yMax="882">
      <component glyphName="W.alt" x="0" y="0" flags="0x204"/>
      <component glyphName="circumflex" x="244" y="194" flags="0x4"/>
    </TTGlyph>
    <TTGlyph name="Wcircumflex.alt_flat" xMin="8" yMin="-2" xMax="892" yMax="882">
      <component glyphName="W.alt_flat" x="0" y="0" flags="0x204"/>
      <component glyphName="circumflex" x="245" y="194" flags="0x4"/>
    </TTGlyph>
    <TTGlyph name="Wcircumflex.flat" xMin="10" yMin="0" xMax="884" yMax="882">
      <component glyphName="W.flat" x="0" y="0" flags="0x204"/>
      <component glyphName="circumflex" x="253" y="194" flags="0x4"/>
    </TTGlyph>
    <TTGlyph name="Wdieresis" xMin="13" yMin="0" xMax="882" yMax="866">
      <component glyphName="W" x="0" y="0" flags="0x204"/>
      <component glyphName="dieresis" x="251" y="194" flags="0x4"/>
    </TTGlyph>
    <TTGlyph name="Wdieresis.alt" xMin="10" yMin="-2" xMax="888" yMax="866">
      <component glyphName="W.alt" x="0" y="0" flags="0x204"/>
      <component glyphName="dieresis" x="245" y="194" flags="0x4"/>
    </TTGlyph>
    <TTGlyph name="Wdieresis.alt_flat" xMin="8" yMin="-2" xMax="892" yMax="866">
      <component glyphName="W.alt_flat" x="0" y="0" flags="0x204"/>
      <component glyphName="dieresis" x="246" y="194" flags="0x4"/>
    </TTGlyph>
    <TTGlyph name="Wdieresis.flat" xMin="10" yMin="0" xMax="884" yMax="866">
      <component glyphName="W.flat" x="0" y="0" flags="0x204"/>
      <component glyphName="dieresis" x="254" y="194" flags="0x4"/>
    </TTGlyph>
    <TTGlyph name="Wgrave" xMin="13" yMin="0" xMax="882" yMax="885">
      <component glyphName="W" x="0" y="0" flags="0x204"/>
      <component glyphName="grave" x="201" y="194" flags="0x4"/>
    </TTGlyph>
    <TTGlyph name="Wgrave.alt" xMin="10" yMin="-2" xMax="888" yMax="885">
      <component glyphName="W.alt" x="0" y="0" flags="0x204"/>
      <component glyphName="grave" x="194" y="194" flags="0x4"/>
    </TTGlyph>
    <TTGlyph name="Wgrave.alt_flat" xMin="8" yMin="-2" xMax="892" yMax="885">
      <component glyphName="W.alt_flat" x="0" y="0" flags="0x204"/>
      <component glyphName="grave" x="196" y="194" flags="0x4"/>
    </TTGlyph>
    <TTGlyph name="Wgrave.flat" xMin="10" yMin="0" xMax="884" yMax="885">
      <component glyphName="W.flat" x="0" y="0" flags="0x204"/>
      <component glyphName="grave" x="204" y="194" flags="0x4"/>
    </TTGlyph>
    <TTGlyph name="X" xMin="5" yMin="-8" xMax="581" yMax="698">
      <contour>
        <pt x="405" y="-8" on="1"/>
        <pt x="289" y="232" on="1"/>
        <pt x="178" y="0" on="1"/>
        <pt x="5" y="0" on="1"/>
        <pt x="192" y="350" on="1"/>
        <pt x="19" y="672" on="1"/>
        <pt x="194" y="698" on="1"/>
        <pt x="297" y="482" on="1"/>
        <pt x="394" y="690" on="1"/>
        <pt x="567" y="690" on="1"/>
        <pt x="394" y="363" on="1"/>
        <pt x="581" y="18" on="1"/>
      </contour>
    </TTGlyph>
    <TTGlyph name="X.flat" xMin="5" yMin="0" xMax="580" yMax="690">
      <contour>
        <pt x="391" y="0" on="1"/>
        <pt x="287" y="227" on="1"/>
        <pt x="178" y="0" on="1"/>
        <pt x="5" y="0" on="1"/>
        <pt x="191" y="347" on="1"/>
        <pt x="14" y="690" on="1"/>
        <pt x="203" y="690" on="1"/>
        <pt x="298" y="480" on="1"/>
        <pt x="396" y="690" on="1"/>
        <pt x="570" y="690" on="1"/>
        <pt x="394" y="359" on="1"/>
        <pt x="580" y="0" on="1"/>
      </contour>
    </TTGlyph>
    <TTGlyph name="Y" xMin="2" yMin="0" xMax="595" yMax="698">
      <contour>
        <pt x="595" y="690" on="1"/>
        <pt x="380" y="250" on="1"/>
        <pt x="380" y="0" on="1"/>
        <pt x="212" y="0" on="1"/>
        <pt x="212" y="247" on="1"/>
        <pt x="2" y="673" on="1"/>
        <pt x="180" y="698" on="1"/>
        <pt x="303" y="415" on="1"/>
        <pt x="418" y="690" on="1"/>
      </contour>
    </TTGlyph>
    <TTGlyph name="Y.flat" xMin="-2" yMin="0" xMax="596" yMax="690">
      <contour>
        <pt x="596" y="690" on="1"/>
        <pt x="381" y="250" on="1"/>
        <pt x="381" y="0" on="1"/>
        <pt x="212" y="0" on="1"/>
        <pt x="212" y="247" on="1"/>
        <pt x="-2" y="690" on="1"/>
        <pt x="188" y="690" on="1"/>
        <pt x="304" y="415" on="1"/>
        <pt x="419" y="690" on="1"/>
      </contour>
    </TTGlyph>
    <TTGlyph name="Yacute" xMin="2" yMin="0" xMax="595" yMax="882">
      <component glyphName="Y" x="0" y="0" flags="0x204"/>
      <component glyphName="acute" x="151" y="191" flags="0x4"/>
    </TTGlyph>
    <TTGlyph name="Yacute.flat" xMin="-2" yMin="0" xMax="596" yMax="882">
      <component glyphName="Y.flat" x="0" y="0" flags="0x204"/>
      <component glyphName="acute" x="151" y="191" flags="0x4"/>
    </TTGlyph>
    <TTGlyph name="Ycircumflex" xMin="2" yMin="0" xMax="595" yMax="879">
      <component glyphName="Y" x="0" y="0" flags="0x204"/>
      <component glyphName="circumflex" x="100" y="191" flags="0x4"/>
    </TTGlyph>
    <TTGlyph name="Ycircumflex.flat" xMin="-2" yMin="0" xMax="596" yMax="879">
      <component glyphName="Y.flat" x="0" y="0" flags="0x204"/>
      <component glyphName="circumflex" x="100" y="191" flags="0x4"/>
    </TTGlyph>
    <TTGlyph name="Ydieresis" xMin="2" yMin="0" xMax="595" yMax="863">
      <component glyphName="Y" x="0" y="0" flags="0x204"/>
      <component glyphName="dieresis" x="101" y="191" flags="0x4"/>
    </TTGlyph>
    <TTGlyph name="Ydieresis.flat" xMin="-2" yMin="0" xMax="596" yMax="863">
      <component glyphName="Y.flat" x="0" y="0" flags="0x204"/>
      <component glyphName="dieresis" x="101" y="191" flags="0x4"/>
    </TTGlyph>
    <TTGlyph name="Ygrave" xMin="2" yMin="0" xMax="595" yMax="882">
      <component glyphName="Y" x="0" y="0" flags="0x204"/>
      <component glyphName="grave" x="51" y="191" flags="0x4"/>
    </TTGlyph>
    <TTGlyph name="Ygrave.flat" xMin="-2" yMin="0" xMax="596" yMax="882">
      <component glyphName="Y.flat" x="0" y="0" flags="0x204"/>
      <component glyphName="grave" x="51" y="191" flags="0x4"/>
    </TTGlyph>
    <TTGlyph name="Z" xMin="30" yMin="0" xMax="512" yMax="690">
      <contour>
        <pt x="512" y="0" on="1"/>
        <pt x="30" y="0" on="1"/>
        <pt x="30" y="124" on="1"/>
        <pt x="305" y="555" on="1"/>
        <pt x="60" y="555" on="1"/>
        <pt x="39" y="690" on="1"/>
        <pt x="505" y="690" on="1"/>
        <pt x="505" y="566" on="1"/>
        <pt x="230" y="135" on="1"/>
        <pt x="492" y="135" on="1"/>
      </contour>
    </TTGlyph>
    <TTGlyph name="Z.flat" xMin="30" yMin="0" xMax="505" yMax="690">
      <contour>
        <pt x="504" y="0" on="1"/>
        <pt x="30" y="0" on="1"/>
        <pt x="30" y="124" on="1"/>
        <pt x="305" y="555" on="1"/>
        <pt x="48" y="555" on="1"/>
        <pt x="48" y="690" on="1"/>
        <pt x="505" y="690" on="1"/>
        <pt x="505" y="566" on="1"/>
        <pt x="230" y="135" on="1"/>
        <pt x="504" y="135" on="1"/>
      </contour>
    </TTGlyph>
    <TTGlyph name="Zacute" xMin="30" yMin="0" xMax="512" yMax="885">
      <component glyphName="Z" x="0" y="0" flags="0x204"/>
      <component glyphName="acute" x="121" y="194" flags="0x4"/>
    </TTGlyph>
    <TTGlyph name="Zacute.flat" xMin="30" yMin="0" xMax="505" yMax="885">
      <component glyphName="Z.flat" x="0" y="0" flags="0x204"/>
      <component glyphName="acute" x="121" y="194" flags="0x4"/>
    </TTGlyph>
    <TTGlyph name="Zcaron" xMin="30" yMin="0" xMax="512" yMax="882">
      <component glyphName="Z" x="0" y="0" flags="0x204"/>
      <component glyphName="caron" x="71" y="194" flags="0x4"/>
    </TTGlyph>
    <TTGlyph name="Zcaron.flat" xMin="30" yMin="0" xMax="505" yMax="882">
      <component glyphName="Z.flat" x="0" y="0" flags="0x204"/>
      <component glyphName="caron" x="71" y="194" flags="0x4"/>
    </TTGlyph>
    <TTGlyph name="Zdotaccent" xMin="30" yMin="0" xMax="512" yMax="866">
      <component glyphName="Z" x="0" y="0" flags="0x204"/>
      <component glyphName="dotaccent" x="71" y="194" flags="0x4"/>
    </TTGlyph>
    <TTGlyph name="Zdotaccent.flat" xMin="30" yMin="0" xMax="505" yMax="866">
      <component glyphName="Z.flat" x="0" y="0" flags="0x204"/>
      <component glyphName="dotaccent" x="71" y="194" flags="0x4"/>
    </TTGlyph>
    <TTGlyph name="a" xMin="21" yMin="-10" xMax="423" yMax="499">
      <contour>
        <pt x="274" y="128" on="1"/>
        <pt x="274" y="236" on="1"/>
        <pt x="212" y="223" on="0"/>
        <pt x="164" y="176" on="0"/>
        <pt x="164" y="145" on="1"/>
        <pt x="164" y="122" on="0"/>
        <pt x="187" y="96" on="0"/>
        <pt x="206" y="96" on="1"/>
        <pt x="223" y="96" on="0"/>
        <pt x="256" y="112" on="0"/>
      </contour>
      <contour>
        <pt x="423" y="0" on="1"/>
        <pt x="293" y="0" on="1"/>
        <pt x="283" y="56" on="1"/>
        <pt x="254" y="26" on="0"/>
        <pt x="188" y="-10" on="0"/>
        <pt x="146" y="-10" on="1"/>
        <pt x="92" y="-10" on="0"/>
        <pt x="21" y="60" on="0"/>
        <pt x="21" y="126" on="1"/>
        <pt x="21" y="208" on="0"/>
        <pt x="149" y="296" on="0"/>
        <pt x="274" y="310" on="1"/>
        <pt x="274" y="323" on="1"/>
        <pt x="274" y="354" on="0"/>
        <pt x="243" y="383" on="0"/>
        <pt x="209" y="383" on="1"/>
        <pt x="175" y="383" on="0"/>
        <pt x="104" y="363" on="0"/>
        <pt x="67" y="345" on="1"/>
        <pt x="49" y="461" on="1"/>
        <pt x="88" y="477" on="0"/>
        <pt x="181" y="499" on="0"/>
        <pt x="235" y="499" on="1"/>
        <pt x="328" y="499" on="0"/>
        <pt x="423" y="421" on="0"/>
        <pt x="423" y="330" on="1"/>
      </contour>
    </TTGlyph>
    <TTGlyph name="aacute" xMin="21" yMin="-10" xMax="423" yMax="694">
      <component glyphName="a" x="0" y="0" flags="0x204"/>
      <component glyphName="acute" x="80" y="3" flags="0x4"/>
    </TTGlyph>
    <TTGlyph name="abreve" xMin="21" yMin="-10" xMax="423" yMax="691">
      <component glyphName="a" x="0" y="0" flags="0x204"/>
      <component glyphName="breve" x="30" y="3" flags="0x4"/>
    </TTGlyph>
    <TTGlyph name="acircumflex" xMin="21" yMin="-10" xMax="423" yMax="691">
      <component glyphName="a" x="0" y="0" flags="0x204"/>
      <component glyphName="circumflex" x="29" y="3" flags="0x4"/>
    </TTGlyph>
    <TTGlyph name="acute" xMin="97" yMin="541" xMax="330" yMax="691">
      <contour>
        <pt x="330" y="660" on="1"/>
        <pt x="192" y="541" on="1"/>
        <pt x="97" y="541" on="1"/>
        <pt x="151" y="691" on="1"/>
      </contour>
    </TTGlyph>
    <TTGlyph name="adieresis" xMin="21" yMin="-10" xMax="423" yMax="675">
      <component glyphName="a" x="0" y="0" flags="0x204"/>
      <component glyphName="dieresis" x="30" y="3" flags="0x4"/>
    </TTGlyph>
    <TTGlyph name="ae" xMin="21" yMin="-10" xMax="687" yMax="501">
      <contour>
        <pt x="416" y="291" on="1"/>
        <pt x="546" y="291" on="1"/>
        <pt x="545" y="345" on="0"/>
        <pt x="511" y="400" on="0"/>
        <pt x="482" y="400" on="1"/>
        <pt x="455" y="400" on="0"/>
        <pt x="420" y="347" on="0"/>
      </contour>
      <contour>
        <pt x="210" y="97" on="1"/>
        <pt x="229" y="97" on="0"/>
        <pt x="267" y="115" on="0"/>
        <pt x="286" y="132" on="1"/>
        <pt x="279" y="154" on="0"/>
        <pt x="270" y="206" on="0"/>
        <pt x="270" y="234" on="1"/>
        <pt x="270" y="235" on="1"/>
        <pt x="210" y="222" on="0"/>
        <pt x="164" y="175" on="0"/>
        <pt x="164" y="146" on="1"/>
        <pt x="164" y="123" on="0"/>
        <pt x="189" y="97" on="0"/>
      </contour>
      <contour>
        <pt x="165" y="-10" on="1"/>
        <pt x="101" y="-10" on="0"/>
        <pt x="21" y="60" on="0"/>
        <pt x="21" y="126" on="1"/>
        <pt x="21" y="207" on="0"/>
        <pt x="147" y="296" on="0"/>
        <pt x="273" y="310" on="1"/>
        <pt x="273" y="323" on="1"/>
        <pt x="273" y="354" on="0"/>
        <pt x="244" y="383" on="0"/>
        <pt x="210" y="383" on="1"/>
        <pt x="175" y="383" on="0"/>
        <pt x="104" y="363" on="0"/>
        <pt x="67" y="345" on="1"/>
        <pt x="49" y="461" on="1"/>
        <pt x="87" y="477" on="0"/>
        <pt x="178" y="499" on="0"/>
        <pt x="228" y="499" on="1"/>
        <pt x="279" y="499" on="0"/>
        <pt x="344" y="472" on="0"/>
        <pt x="364" y="443" on="1"/>
        <pt x="388" y="471" on="0"/>
        <pt x="452" y="501" on="0"/>
        <pt x="494" y="501" on="1"/>
        <pt x="543" y="501" on="0"/>
        <pt x="616" y="463" on="0"/>
        <pt x="664" y="396" on="0"/>
        <pt x="687" y="304" on="0"/>
        <pt x="687" y="251" on="1"/>
        <pt x="687" y="241" on="0"/>
        <pt x="686" y="208" on="0"/>
        <pt x="685" y="203" on="1"/>
        <pt x="418" y="203" on="1"/>
        <pt x="425" y="151" on="0"/>
        <pt x="481" y="103" on="0"/>
        <pt x="527" y="103" on="1"/>
        <pt x="563" y="103" on="0"/>
        <pt x="633" y="126" on="0"/>
        <pt x="670" y="148" on="1"/>
        <pt x="686" y="40" on="1"/>
        <pt x="650" y="18" on="0"/>
        <pt x="558" y="-9" on="0"/>
        <pt x="504" y="-9" on="1"/>
        <pt x="449" y="-9" on="0"/>
        <pt x="360" y="24" on="0"/>
        <pt x="329" y="57" on="1"/>
        <pt x="293" y="27" on="0"/>
        <pt x="213" y="-10" on="0"/>
      </contour>
    </TTGlyph>
    <TTGlyph name="aeacute" xMin="21" yMin="-10" xMax="687" yMax="691">
      <component glyphName="ae" x="0" y="0" flags="0x204"/>
      <component glyphName="acute" x="210" y="0" flags="0x4"/>
    </TTGlyph>
    <TTGlyph name="agrave" xMin="21" yMin="-10" xMax="423" yMax="694">
      <component glyphName="a" x="0" y="0" flags="0x204"/>
      <component glyphName="grave" x="-20" y="3" flags="0x4"/>
    </TTGlyph>
    <TTGlyph name="amacron" xMin="21" yMin="-10" xMax="423" yMax="657">
      <component glyphName="a" x="0" y="0" flags="0x204"/>
      <component glyphName="macron" x="30" y="3" flags="0x4"/>
    </TTGlyph>
    <TTGlyph name="ampersand" xMin="20" yMin="-12" xMax="614" yMax="703">
      <contour>
        <pt x="248" y="111" on="1"/>
        <pt x="270" y="111" on="0"/>
        <pt x="310" y="131" on="0"/>
        <pt x="329" y="151" on="1"/>
        <pt x="221" y="292" on="1"/>
        <pt x="197" y="270" on="0"/>
        <pt x="170" y="220" on="0"/>
        <pt x="170" y="190" on="1"/>
        <pt x="170" y="154" on="0"/>
        <pt x="214" y="111" on="0"/>
      </contour>
      <contour>
        <pt x="452" y="-6" on="1"/>
        <pt x="401" y="58" on="1"/>
        <pt x="364" y="24" on="0"/>
        <pt x="277" y="-12" on="0"/>
        <pt x="224" y="-12" on="1"/>
        <pt x="131" y="-12" on="0"/>
        <pt x="20" y="91" on="0"/>
        <pt x="20" y="178" on="1"/>
        <pt x="20" y="249" on="0"/>
        <pt x="93" y="349" on="0"/>
        <pt x="151" y="382" on="1"/>
        <pt x="121" y="424" on="0"/>
        <pt x="97" y="492" on="0"/>
        <pt x="97" y="532" on="1"/>
        <pt x="97" y="604" on="0"/>
        <pt x="201" y="703" on="0"/>
        <pt x="291" y="703" on="1"/>
        <pt x="342" y="703" on="0"/>
        <pt x="423" y="681" on="0"/>
        <pt x="460" y="665" on="1"/>
        <pt x="437" y="529" on="1"/>
        <pt x="400" y="549" on="0"/>
        <pt x="338" y="571" on="0"/>
        <pt x="310" y="571" on="1"/>
        <pt x="282" y="571" on="0"/>
        <pt x="252" y="542" on="0"/>
        <pt x="252" y="519" on="1"/>
        <pt x="252" y="500" on="0"/>
        <pt x="270" y="465" on="0"/>
        <pt x="289" y="440" on="1"/>
        <pt x="406" y="287" on="1"/>
        <pt x="414" y="314" on="0"/>
        <pt x="429" y="377" on="0"/>
        <pt x="434" y="414" on="1"/>
        <pt x="559" y="382" on="1"/>
        <pt x="549" y="322" on="0"/>
        <pt x="515" y="218" on="0"/>
        <pt x="491" y="175" on="1"/>
        <pt x="614" y="15" on="1"/>
      </contour>
    </TTGlyph>
    <TTGlyph name="ampersand.flat" xMin="20" yMin="-12" xMax="622" yMax="703">
      <contour>
        <pt x="248" y="111" on="1"/>
        <pt x="270" y="111" on="0"/>
        <pt x="310" y="131" on="0"/>
        <pt x="329" y="151" on="1"/>
        <pt x="220" y="292" on="1"/>
        <pt x="197" y="270" on="0"/>
        <pt x="170" y="220" on="0"/>
        <pt x="170" y="190" on="1"/>
        <pt x="170" y="154" on="0"/>
        <pt x="214" y="111" on="0"/>
      </contour>
      <contour>
        <pt x="444" y="0" on="1"/>
        <pt x="400" y="57" on="1"/>
        <pt x="363" y="24" on="0"/>
        <pt x="276" y="-12" on="0"/>
        <pt x="224" y="-12" on="1"/>
        <pt x="131" y="-12" on="0"/>
        <pt x="20" y="91" on="0"/>
        <pt x="20" y="178" on="1"/>
        <pt x="20" y="249" on="0"/>
        <pt x="93" y="349" on="0"/>
        <pt x="151" y="382" on="1"/>
        <pt x="121" y="424" on="0"/>
        <pt x="97" y="492" on="0"/>
        <pt x="97" y="532" on="1"/>
        <pt x="97" y="604" on="0"/>
        <pt x="201" y="703" on="0"/>
        <pt x="291" y="703" on="1"/>
        <pt x="342" y="703" on="0"/>
        <pt x="423" y="681" on="0"/>
        <pt x="460" y="665" on="1"/>
        <pt x="437" y="529" on="1"/>
        <pt x="400" y="549" on="0"/>
        <pt x="338" y="571" on="0"/>
        <pt x="310" y="571" on="1"/>
        <pt x="282" y="571" on="0"/>
        <pt x="252" y="542" on="0"/>
        <pt x="252" y="519" on="1"/>
        <pt x="252" y="500" on="0"/>
        <pt x="270" y="465" on="0"/>
        <pt x="289" y="440" on="1"/>
        <pt x="405" y="286" on="1"/>
        <pt x="414" y="313" on="0"/>
        <pt x="429" y="377" on="0"/>
        <pt x="434" y="414" on="1"/>
        <pt x="559" y="382" on="1"/>
        <pt x="549" y="322" on="0"/>
        <pt x="514" y="217" on="0"/>
        <pt x="491" y="174" on="1"/>
        <pt x="622" y="0" on="1"/>
      </contour>
    </TTGlyph>
    <TTGlyph name="aogonek" xMin="21" yMin="-198" xMax="430" yMax="499">
      <component glyphName="a" x="0" y="0" flags="0x204"/>
      <component glyphName="ogonek" x="116" y="0" flags="0x4"/>
    </TTGlyph>
    <TTGlyph name="aring" xMin="21" yMin="-10" xMax="423" yMax="760">
      <component glyphName="a" x="0" y="0" flags="0x204"/>
      <component glyphName="ring" x="30" y="3" flags="0x4"/>
    </TTGlyph>
    <TTGlyph name="aringacute" xMin="21" yMin="-10" xMax="423" yMax="933">
      <component glyphName="a" x="0" y="0" flags="0x204"/>
      <component glyphName="ring" x="31" y="3" flags="0x4"/>
      <component glyphName="acute" x="87" y="242" flags="0x4"/>
    </TTGlyph>
    <TTGlyph name="asciicircum" xMin="40" yMin="512" xMax="369" yMax="696">
      <contour>
        <pt x="369" y="512" on="1"/>
        <pt x="267" y="512" on="1"/>
        <pt x="204" y="597" on="1"/>
        <pt x="141" y="512" on="1"/>
        <pt x="40" y="512" on="1"/>
        <pt x="145" y="696" on="1"/>
        <pt x="264" y="696" on="1"/>
      </contour>
    </TTGlyph>
    <TTGlyph name="asciitilde" xMin="33" yMin="232" xMax="388" yMax="405">
      <contour>
        <pt x="388" y="390" on="1"/>
        <pt x="378" y="309" on="0"/>
        <pt x="331" y="236" on="0"/>
        <pt x="288" y="236" on="1"/>
        <pt x="269" y="236" on="0"/>
        <pt x="231" y="250" on="0"/>
        <pt x="209" y="262" on="1"/>
        <pt x="183" y="275" on="0"/>
        <pt x="156" y="286" on="0"/>
        <pt x="145" y="286" on="1"/>
        <pt x="134" y="286" on="0"/>
        <pt x="120" y="264" on="0"/>
        <pt x="113" y="232" on="1"/>
        <pt x="33" y="247" on="1"/>
        <pt x="43" y="328" on="0"/>
        <pt x="91" y="401" on="0"/>
        <pt x="134" y="401" on="1"/>
        <pt x="153" y="401" on="0"/>
        <pt x="190" y="387" on="0"/>
        <pt x="212" y="375" on="1"/>
        <pt x="238" y="362" on="0"/>
        <pt x="265" y="351" on="0"/>
        <pt x="276" y="351" on="1"/>
        <pt x="287" y="351" on="0"/>
        <pt x="302" y="373" on="0"/>
        <pt x="309" y="405" on="1"/>
      </contour>
    </TTGlyph>
    <TTGlyph name="asterisk" xMin="21" yMin="364" xMax="370" yMax="696">
      <contour>
        <pt x="370" y="557" on="1"/>
        <pt x="270" y="493" on="1"/>
        <pt x="314" y="383" on="1"/>
        <pt x="286" y="364" on="1"/>
        <pt x="195" y="438" on="1"/>
        <pt x="105" y="364" on="1"/>
        <pt x="77" y="383" on="1"/>
        <pt x="120" y="493" on="1"/>
        <pt x="21" y="557" on="1"/>
        <pt x="31" y="589" on="1"/>
        <pt x="149" y="583" on="1"/>
        <pt x="177" y="696" on="1"/>
        <pt x="213" y="696" on="1"/>
        <pt x="241" y="583" on="1"/>
        <pt x="360" y="589" on="1"/>
      </contour>
    </TTGlyph>
    <TTGlyph name="at" xMin="32" yMin="-138" xMax="728" yMax="637">
      <contour>
        <pt x="339" y="-138" on="1"/>
        <pt x="197" y="-138" on="0"/>
        <pt x="32" y="29" on="0"/>
        <pt x="32" y="183" on="1"/>
        <pt x="32" y="274" on="0"/>
        <pt x="95" y="440" on="0"/>
        <pt x="204" y="564" on="0"/>
        <pt x="351" y="637" on="0"/>
        <pt x="433" y="637" on="1"/>
        <pt x="499" y="637" on="0"/>
        <pt x="608" y="596" on="0"/>
        <pt x="685" y="518" on="0"/>
        <pt x="728" y="401" on="0"/>
        <pt x="728" y="326" on="1"/>
        <pt x="728" y="198" on="0"/>
        <pt x="626" y="44" on="0"/>
        <pt x="540" y="44" on="1"/>
        <pt x="492" y="44" on="0"/>
        <pt x="428" y="89" on="0"/>
        <pt x="418" y="127" on="1"/>
        <pt x="384" y="85" on="0"/>
        <pt x="321" y="44" on="0"/>
        <pt x="287" y="44" on="1"/>
        <pt x="242" y="44" on="0"/>
        <pt x="187" y="113" on="0"/>
        <pt x="187" y="177" on="1"/>
        <pt x="187" y="239" on="0"/>
        <pt x="224" y="344" on="0"/>
        <pt x="289" y="420" on="0"/>
        <pt x="378" y="463" on="0"/>
        <pt x="429" y="463" on="1"/>
        <pt x="466" y="463" on="0"/>
        <pt x="541" y="447" on="0"/>
        <pt x="572" y="434" on="1"/>
        <pt x="532" y="189" on="1"/>
        <pt x="531" y="180" on="0"/>
        <pt x="528" y="158" on="0"/>
        <pt x="528" y="148" on="1"/>
        <pt x="528" y="127" on="0"/>
        <pt x="550" y="102" on="0"/>
        <pt x="575" y="102" on="1"/>
        <pt x="618" y="102" on="0"/>
        <pt x="685" y="223" on="0"/>
        <pt x="685" y="324" on="1"/>
        <pt x="685" y="466" on="0"/>
        <pt x="543" y="600" on="0"/>
        <pt x="430" y="600" on="1"/>
        <pt x="358" y="600" on="0"/>
        <pt x="228" y="534" on="0"/>
        <pt x="132" y="422" on="0"/>
        <pt x="75" y="270" on="0"/>
        <pt x="75" y="184" on="1"/>
        <pt x="75" y="111" on="0"/>
        <pt x="114" y="3" on="0"/>
        <pt x="184" y="-68" on="0"/>
        <pt x="283" y="-103" on="0"/>
        <pt x="342" y="-103" on="1"/>
        <pt x="397" y="-103" on="0"/>
        <pt x="496" y="-76" on="0"/>
        <pt x="539" y="-51" on="1"/>
        <pt x="545" y="-87" on="1"/>
        <pt x="505" y="-109" on="0"/>
        <pt x="399" y="-138" on="0"/>
      </contour>
      <contour>
        <pt x="339" y="148" on="1"/>
        <pt x="354" y="148" on="0"/>
        <pt x="391" y="176" on="0"/>
        <pt x="415" y="206" on="1"/>
        <pt x="441" y="362" on="1"/>
        <pt x="436" y="364" on="0"/>
        <pt x="422" y="367" on="0"/>
        <pt x="413" y="367" on="1"/>
        <pt x="392" y="367" on="0"/>
        <pt x="354" y="340" on="0"/>
        <pt x="325" y="295" on="0"/>
        <pt x="307" y="235" on="0"/>
        <pt x="307" y="201" on="1"/>
        <pt x="307" y="173" on="0"/>
        <pt x="324" y="148" on="0"/>
      </contour>
    </TTGlyph>
    <TTGlyph name="atilde" xMin="21" yMin="-10" xMax="423" yMax="698">
      <component glyphName="a" x="0" y="0" flags="0x204"/>
      <component glyphName="tilde" x="33" y="3" flags="0x4"/>
    </TTGlyph>
    <TTGlyph name="b" xMin="43" yMin="-6" xMax="472" yMax="722">
      <contour>
        <pt x="472" y="261" on="1"/>
        <pt x="472" y="121" on="0"/>
        <pt x="342" y="-6" on="0"/>
        <pt x="232" y="-6" on="1"/>
        <pt x="178" y="-6" on="0"/>
        <pt x="82" y="12" on="0"/>
        <pt x="43" y="28" on="1"/>
        <pt x="43" y="699" on="1"/>
        <pt x="193" y="722" on="1"/>
        <pt x="193" y="447" on="1"/>
        <pt x="215" y="467" on="0"/>
        <pt x="270" y="500" on="0"/>
        <pt x="308" y="500" on="1"/>
        <pt x="378" y="500" on="0"/>
        <pt x="472" y="380" on="0"/>
      </contour>
      <contour>
        <pt x="324" y="250" on="1"/>
        <pt x="324" y="314" on="0"/>
        <pt x="285" y="370" on="0"/>
        <pt x="257" y="370" on="1"/>
        <pt x="239" y="370" on="0"/>
        <pt x="208" y="351" on="0"/>
        <pt x="193" y="336" on="1"/>
        <pt x="193" y="122" on="1"/>
        <pt x="203" y="118" on="0"/>
        <pt x="220" y="115" on="0"/>
        <pt x="232" y="115" on="1"/>
        <pt x="273" y="115" on="0"/>
        <pt x="324" y="177" on="0"/>
      </contour>
    </TTGlyph>
    <TTGlyph name="backslash" xMin="5" yMin="-126" xMax="465" yMax="699">
      <contour>
        <pt x="465" y="-101" on="1"/>
        <pt x="348" y="-126" on="1"/>
        <pt x="5" y="674" on="1"/>
        <pt x="122" y="699" on="1"/>
      </contour>
    </TTGlyph>
    <TTGlyph name="baht" xMin="-21" yMin="-123" xMax="494" yMax="744">
      <contour>
        <pt x="242" y="570" on="1"/>
        <pt x="198" y="570" on="1"/>
        <pt x="198" y="402" on="1"/>
        <pt x="240" y="402" on="1"/>
        <pt x="286" y="402" on="0"/>
        <pt x="334" y="449" on="0"/>
        <pt x="334" y="488" on="1"/>
        <pt x="334" y="525" on="0"/>
        <pt x="290" y="570" on="0"/>
      </contour>
      <contour>
        <pt x="236" y="304" on="1"/>
        <pt x="198" y="304" on="1"/>
        <pt x="198" y="115" on="1"/>
        <pt x="239" y="115" on="1"/>
        <pt x="290" y="115" on="0"/>
        <pt x="343" y="163" on="0"/>
        <pt x="343" y="208" on="1"/>
        <pt x="343" y="254" on="0"/>
        <pt x="289" y="304" on="0"/>
      </contour>
      <contour>
        <pt x="242" y="0" on="1"/>
        <pt x="116" y="0" on="1"/>
        <pt x="51" y="-123" on="1"/>
        <pt x="-21" y="-106" on="1"/>
        <pt x="53" y="39" on="1"/>
        <pt x="53" y="685" on="1"/>
        <pt x="248" y="685" on="1"/>
        <pt x="282" y="685" on="0"/>
        <pt x="340" y="676" on="0"/>
        <pt x="365" y="668" on="1"/>
        <pt x="404" y="744" on="1"/>
        <pt x="476" y="726" on="1"/>
        <pt x="428" y="632" on="1"/>
        <pt x="452" y="611" on="0"/>
        <pt x="478" y="551" on="0"/>
        <pt x="478" y="514" on="1"/>
        <pt x="478" y="457" on="0"/>
        <pt x="421" y="379" on="0"/>
        <pt x="377" y="362" on="1"/>
        <pt x="430" y="342" on="0"/>
        <pt x="494" y="264" on="0"/>
        <pt x="494" y="197" on="1"/>
        <pt x="494" y="98" on="0"/>
        <pt x="355" y="0" on="0"/>
      </contour>
    </TTGlyph>
    <TTGlyph name="bar" xMin="72" yMin="-186" xMax="191" yMax="722">
      <contour>
        <pt x="191" y="-168" on="1"/>
        <pt x="72" y="-186" on="1"/>
        <pt x="72" y="703" on="1"/>
        <pt x="191" y="722" on="1"/>
      </contour>
    </TTGlyph>
    <TTGlyph name="bar.tab" xMin="63" yMin="-132" xMax="180" yMax="811">
      <contour>
        <pt x="180" y="-115" on="1"/>
        <pt x="63" y="-132" on="1"/>
        <pt x="63" y="793" on="1"/>
        <pt x="180" y="811" on="1"/>
      </contour>
    </TTGlyph>
    <TTGlyph name="braceleft" xMin="20" yMin="-101" xMax="424" yMax="693">
      <contour>
        <pt x="424" y="-101" on="1"/>
        <pt x="293" y="-101" on="1"/>
        <pt x="216" y="-101" on="0"/>
        <pt x="138" y="-31" on="0"/>
        <pt x="138" y="29" on="1"/>
        <pt x="138" y="64" on="0"/>
        <pt x="151" y="129" on="0"/>
        <pt x="151" y="162" on="1"/>
        <pt x="151" y="211" on="0"/>
        <pt x="99" y="248" on="0"/>
        <pt x="54" y="248" on="1"/>
        <pt x="34" y="248" on="1"/>
        <pt x="20" y="345" on="1"/>
        <pt x="51" y="345" on="1"/>
        <pt x="97" y="345" on="0"/>
        <pt x="151" y="381" on="0"/>
        <pt x="151" y="430" on="1"/>
        <pt x="151" y="464" on="0"/>
        <pt x="138" y="528" on="0"/>
        <pt x="138" y="562" on="1"/>
        <pt x="138" y="622" on="0"/>
        <pt x="217" y="693" on="0"/>
        <pt x="293" y="693" on="1"/>
        <pt x="419" y="693" on="1"/>
        <pt x="419" y="599" on="1"/>
        <pt x="346" y="599" on="1"/>
        <pt x="312" y="599" on="0"/>
        <pt x="280" y="570" on="0"/>
        <pt x="280" y="543" on="1"/>
        <pt x="280" y="514" on="0"/>
        <pt x="293" y="457" on="0"/>
        <pt x="293" y="423" on="1"/>
        <pt x="293" y="368" on="0"/>
        <pt x="234" y="309" on="0"/>
        <pt x="180" y="297" on="1"/>
        <pt x="180" y="295" on="1"/>
        <pt x="234" y="283" on="0"/>
        <pt x="293" y="224" on="0"/>
        <pt x="293" y="169" on="1"/>
        <pt x="293" y="136" on="0"/>
        <pt x="280" y="78" on="0"/>
        <pt x="280" y="48" on="1"/>
        <pt x="280" y="22" on="0"/>
        <pt x="312" y="-7" on="0"/>
        <pt x="346" y="-7" on="1"/>
        <pt x="409" y="-7" on="1"/>
      </contour>
    </TTGlyph>
    <TTGlyph name="braceleft.flat" xMin="26" yMin="-101" xMax="419" yMax="693">
      <contour>
        <pt x="419" y="-101" on="1"/>
        <pt x="293" y="-101" on="1"/>
        <pt x="216" y="-101" on="0"/>
        <pt x="138" y="-31" on="0"/>
        <pt x="138" y="29" on="1"/>
        <pt x="138" y="64" on="0"/>
        <pt x="151" y="129" on="0"/>
        <pt x="151" y="162" on="1"/>
        <pt x="151" y="211" on="0"/>
        <pt x="99" y="248" on="0"/>
        <pt x="54" y="248" on="1"/>
        <pt x="26" y="248" on="1"/>
        <pt x="26" y="345" on="1"/>
        <pt x="51" y="345" on="1"/>
        <pt x="97" y="345" on="0"/>
        <pt x="151" y="381" on="0"/>
        <pt x="151" y="430" on="1"/>
        <pt x="151" y="464" on="0"/>
        <pt x="138" y="528" on="0"/>
        <pt x="138" y="562" on="1"/>
        <pt x="138" y="622" on="0"/>
        <pt x="217" y="693" on="0"/>
        <pt x="293" y="693" on="1"/>
        <pt x="419" y="693" on="1"/>
        <pt x="419" y="599" on="1"/>
        <pt x="346" y="599" on="1"/>
        <pt x="312" y="599" on="0"/>
        <pt x="280" y="570" on="0"/>
        <pt x="280" y="543" on="1"/>
        <pt x="280" y="514" on="0"/>
        <pt x="293" y="457" on="0"/>
        <pt x="293" y="423" on="1"/>
        <pt x="293" y="368" on="0"/>
        <pt x="234" y="309" on="0"/>
        <pt x="180" y="297" on="1"/>
        <pt x="180" y="295" on="1"/>
        <pt x="234" y="283" on="0"/>
        <pt x="293" y="224" on="0"/>
        <pt x="293" y="169" on="1"/>
        <pt x="293" y="136" on="0"/>
        <pt x="280" y="78" on="0"/>
        <pt x="280" y="48" on="1"/>
        <pt x="280" y="22" on="0"/>
        <pt x="312" y="-7" on="0"/>
        <pt x="346" y="-7" on="1"/>
        <pt x="419" y="-7" on="1"/>
      </contour>
    </TTGlyph>
    <TTGlyph name="braceright" xMin="23" yMin="-101" xMax="427" yMax="693">
      <contour>
        <pt x="23" y="693" on="1"/>
        <pt x="154" y="693" on="1"/>
        <pt x="231" y="693" on="0"/>
        <pt x="309" y="623" on="0"/>
        <pt x="309" y="563" on="1"/>
        <pt x="309" y="528" on="0"/>
        <pt x="296" y="463" on="0"/>
        <pt x="296" y="430" on="1"/>
        <pt x="296" y="381" on="0"/>
        <pt x="348" y="344" on="0"/>
        <pt x="393" y="344" on="1"/>
        <pt x="412" y="344" on="1"/>
        <pt x="427" y="247" on="1"/>
        <pt x="396" y="247" on="1"/>
        <pt x="350" y="247" on="0"/>
        <pt x="296" y="211" on="0"/>
        <pt x="296" y="162" on="1"/>
        <pt x="296" y="128" on="0"/>
        <pt x="309" y="64" on="0"/>
        <pt x="309" y="30" on="1"/>
        <pt x="309" y="-30" on="0"/>
        <pt x="230" y="-101" on="0"/>
        <pt x="154" y="-101" on="1"/>
        <pt x="28" y="-101" on="1"/>
        <pt x="28" y="-7" on="1"/>
        <pt x="101" y="-7" on="1"/>
        <pt x="135" y="-7" on="0"/>
        <pt x="167" y="22" on="0"/>
        <pt x="167" y="49" on="1"/>
        <pt x="167" y="78" on="0"/>
        <pt x="154" y="135" on="0"/>
        <pt x="154" y="169" on="1"/>
        <pt x="154" y="224" on="0"/>
        <pt x="213" y="283" on="0"/>
        <pt x="267" y="295" on="1"/>
        <pt x="267" y="297" on="1"/>
        <pt x="213" y="309" on="0"/>
        <pt x="154" y="368" on="0"/>
        <pt x="154" y="423" on="1"/>
        <pt x="154" y="456" on="0"/>
        <pt x="167" y="514" on="0"/>
        <pt x="167" y="544" on="1"/>
        <pt x="167" y="570" on="0"/>
        <pt x="135" y="599" on="0"/>
        <pt x="101" y="599" on="1"/>
        <pt x="38" y="599" on="1"/>
      </contour>
    </TTGlyph>
    <TTGlyph name="braceright.flat" xMin="28" yMin="-101" xMax="420" yMax="693">
      <contour>
        <pt x="28" y="693" on="1"/>
        <pt x="154" y="693" on="1"/>
        <pt x="231" y="693" on="0"/>
        <pt x="309" y="623" on="0"/>
        <pt x="309" y="563" on="1"/>
        <pt x="309" y="528" on="0"/>
        <pt x="296" y="463" on="0"/>
        <pt x="296" y="430" on="1"/>
        <pt x="296" y="381" on="0"/>
        <pt x="348" y="344" on="0"/>
        <pt x="393" y="344" on="1"/>
        <pt x="420" y="344" on="1"/>
        <pt x="420" y="247" on="1"/>
        <pt x="396" y="247" on="1"/>
        <pt x="350" y="247" on="0"/>
        <pt x="296" y="211" on="0"/>
        <pt x="296" y="162" on="1"/>
        <pt x="296" y="128" on="0"/>
        <pt x="309" y="64" on="0"/>
        <pt x="309" y="30" on="1"/>
        <pt x="309" y="-30" on="0"/>
        <pt x="230" y="-101" on="0"/>
        <pt x="154" y="-101" on="1"/>
        <pt x="28" y="-101" on="1"/>
        <pt x="28" y="-7" on="1"/>
        <pt x="101" y="-7" on="1"/>
        <pt x="135" y="-7" on="0"/>
        <pt x="167" y="22" on="0"/>
        <pt x="167" y="49" on="1"/>
        <pt x="167" y="78" on="0"/>
        <pt x="154" y="135" on="0"/>
        <pt x="154" y="169" on="1"/>
        <pt x="154" y="224" on="0"/>
        <pt x="213" y="283" on="0"/>
        <pt x="267" y="295" on="1"/>
        <pt x="267" y="297" on="1"/>
        <pt x="213" y="309" on="0"/>
        <pt x="154" y="368" on="0"/>
        <pt x="154" y="423" on="1"/>
        <pt x="154" y="456" on="0"/>
        <pt x="167" y="514" on="0"/>
        <pt x="167" y="544" on="1"/>
        <pt x="167" y="570" on="0"/>
        <pt x="135" y="599" on="0"/>
        <pt x="101" y="599" on="1"/>
        <pt x="28" y="599" on="1"/>
      </contour>
    </TTGlyph>
    <TTGlyph name="bracketleft" xMin="61" yMin="-101" xMax="347" yMax="693">
      <contour>
        <pt x="347" y="-101" on="1"/>
        <pt x="61" y="-101" on="1"/>
        <pt x="61" y="693" on="1"/>
        <pt x="341" y="693" on="1"/>
        <pt x="341" y="599" on="1"/>
        <pt x="201" y="599" on="1"/>
        <pt x="201" y="-7" on="1"/>
        <pt x="331" y="-7" on="1"/>
      </contour>
    </TTGlyph>
    <TTGlyph name="bracketleft.flat" xMin="61" yMin="-101" xMax="341" yMax="693">
      <contour>
        <pt x="341" y="-101" on="1"/>
        <pt x="61" y="-101" on="1"/>
        <pt x="61" y="693" on="1"/>
        <pt x="341" y="693" on="1"/>
        <pt x="341" y="599" on="1"/>
        <pt x="201" y="599" on="1"/>
        <pt x="201" y="-7" on="1"/>
        <pt x="341" y="-7" on="1"/>
      </contour>
    </TTGlyph>
    <TTGlyph name="bracketright" xMin="23" yMin="-101" xMax="309" yMax="693">
      <contour>
        <pt x="23" y="693" on="1"/>
        <pt x="309" y="693" on="1"/>
        <pt x="309" y="-101" on="1"/>
        <pt x="28" y="-101" on="1"/>
        <pt x="28" y="-7" on="1"/>
        <pt x="169" y="-7" on="1"/>
        <pt x="169" y="599" on="1"/>
        <pt x="38" y="599" on="1"/>
      </contour>
    </TTGlyph>
    <TTGlyph name="bracketright.flat" xMin="28" yMin="-101" xMax="309" yMax="693">
      <contour>
        <pt x="28" y="693" on="1"/>
        <pt x="309" y="693" on="1"/>
        <pt x="309" y="-101" on="1"/>
        <pt x="28" y="-101" on="1"/>
        <pt x="28" y="-7" on="1"/>
        <pt x="169" y="-7" on="1"/>
        <pt x="169" y="599" on="1"/>
        <pt x="28" y="599" on="1"/>
      </contour>
    </TTGlyph>
    <TTGlyph name="breve" xMin="55" yMin="539" xMax="352" yMax="688">
      <contour>
        <pt x="352" y="674" on="1"/>
        <pt x="343" y="610" on="0"/>
        <pt x="269" y="539" on="0"/>
        <pt x="203" y="539" on="1"/>
        <pt x="138" y="539" on="0"/>
        <pt x="64" y="610" on="0"/>
        <pt x="55" y="674" on="1"/>
        <pt x="136" y="688" on="1"/>
        <pt x="145" y="658" on="0"/>
        <pt x="178" y="632" on="0"/>
        <pt x="204" y="632" on="1"/>
        <pt x="229" y="632" on="0"/>
        <pt x="262" y="658" on="0"/>
        <pt x="271" y="688" on="1"/>
      </contour>
    </TTGlyph>
    <TTGlyph name="bullet" xMin="64" yMin="178" xMax="366" yMax="510">
      <contour>
        <pt x="366" y="344" on="1"/>
        <pt x="344" y="199" on="1"/>
        <pt x="215" y="178" on="1"/>
        <pt x="87" y="199" on="1"/>
        <pt x="64" y="344" on="1"/>
        <pt x="87" y="490" on="1"/>
        <pt x="215" y="510" on="1"/>
        <pt x="344" y="490" on="1"/>
      </contour>
    </TTGlyph>
    <TTGlyph name="c" xMin="24" yMin="-8" xMax="388" yMax="500">
      <contour>
        <pt x="388" y="30" on="1"/>
        <pt x="357" y="12" on="0"/>
        <pt x="286" y="-8" on="0"/>
        <pt x="246" y="-8" on="1"/>
        <pt x="143" y="-8" on="0"/>
        <pt x="24" y="125" on="0"/>
        <pt x="24" y="243" on="1"/>
        <pt x="24" y="367" on="0"/>
        <pt x="154" y="500" on="0"/>
        <pt x="256" y="500" on="1"/>
        <pt x="296" y="500" on="0"/>
        <pt x="359" y="482" on="0"/>
        <pt x="384" y="469" on="1"/>
        <pt x="363" y="340" on="1"/>
        <pt x="339" y="356" on="0"/>
        <pt x="296" y="371" on="0"/>
        <pt x="271" y="371" on="1"/>
        <pt x="228" y="371" on="0"/>
        <pt x="173" y="309" on="0"/>
        <pt x="173" y="246" on="1"/>
        <pt x="173" y="181" on="0"/>
        <pt x="232" y="120" on="0"/>
        <pt x="273" y="120" on="1"/>
        <pt x="298" y="120" on="0"/>
        <pt x="343" y="135" on="0"/>
        <pt x="370" y="151" on="1"/>
      </contour>
    </TTGlyph>
    <TTGlyph name="cacute" xMin="24" yMin="-8" xMax="418" yMax="694">
      <component glyphName="c" x="0" y="0" flags="0x204"/>
      <component glyphName="acute" x="88" y="3" flags="0x4"/>
    </TTGlyph>
    <TTGlyph name="caron" xMin="42" yMin="541" xMax="364" yMax="688">
      <contour>
        <pt x="42" y="688" on="1"/>
        <pt x="139" y="688" on="1"/>
        <pt x="203" y="629" on="1"/>
        <pt x="267" y="688" on="1"/>
        <pt x="364" y="688" on="1"/>
        <pt x="269" y="541" on="1"/>
        <pt x="137" y="541" on="1"/>
      </contour>
    </TTGlyph>
    <TTGlyph name="caron.alt" xMin="134" yMin="503" xMax="269" yMax="708">
      <contour>
        <pt x="257" y="708" on="1"/>
        <pt x="263" y="690" on="0"/>
        <pt x="269" y="655" on="0"/>
        <pt x="269" y="639" on="1"/>
        <pt x="269" y="604" on="0"/>
        <pt x="236" y="534" on="0"/>
        <pt x="205" y="503" on="1"/>
        <pt x="134" y="518" on="1"/>
        <pt x="147" y="546" on="0"/>
        <pt x="159" y="591" on="0"/>
        <pt x="159" y="613" on="1"/>
        <pt x="159" y="631" on="0"/>
        <pt x="149" y="671" on="0"/>
        <pt x="141" y="692" on="1"/>
      </contour>
    </TTGlyph>
    <TTGlyph name="ccaron" xMin="24" yMin="-8" xMax="402" yMax="691">
      <component glyphName="c" x="0" y="0" flags="0x204"/>
      <component glyphName="caron" x="38" y="3" flags="0x4"/>
    </TTGlyph>
    <TTGlyph name="ccedilla" xMin="24" yMin="-179" xMax="388" yMax="500">
      <component glyphName="c" x="0" y="0" flags="0x204"/>
      <component glyphName="cedilla" x="16" y="0" flags="0x4"/>
    </TTGlyph>
    <TTGlyph name="cdotaccent" xMin="24" yMin="-8" xMax="388" yMax="675">
      <component glyphName="c" x="0" y="0" flags="0x204"/>
      <component glyphName="dotaccent" x="38" y="3" flags="0x4"/>
    </TTGlyph>
    <TTGlyph name="cedilla" xMin="89" yMin="-179" xMax="318" yMax="-43">
      <contour>
        <pt x="318" y="-74" on="1"/>
        <pt x="185" y="-179" on="1"/>
        <pt x="89" y="-179" on="1"/>
        <pt x="138" y="-43" on="1"/>
      </contour>
    </TTGlyph>
    <TTGlyph name="cent" xMin="29" yMin="-10" xMax="425" yMax="692">
      <contour>
        <pt x="173" y="341" on="1"/>
        <pt x="173" y="300" on="0"/>
        <pt x="200" y="240" on="0"/>
        <pt x="226" y="224" on="1"/>
        <pt x="265" y="472" on="1"/>
        <pt x="220" y="466" on="0"/>
        <pt x="173" y="396" on="0"/>
      </contour>
      <contour>
        <pt x="425" y="130" on="1"/>
        <pt x="391" y="111" on="0"/>
        <pt x="320" y="90" on="0"/>
        <pt x="277" y="89" on="1"/>
        <pt x="261" y="-10" on="1"/>
        <pt x="185" y="7" on="1"/>
        <pt x="199" y="97" on="1"/>
        <pt x="123" y="115" on="0"/>
        <pt x="29" y="239" on="0"/>
        <pt x="29" y="339" on="1"/>
        <pt x="29" y="401" on="0"/>
        <pt x="67" y="496" on="0"/>
        <pt x="133" y="560" on="0"/>
        <pt x="224" y="593" on="0"/>
        <pt x="276" y="593" on="1"/>
        <pt x="277" y="593" on="1"/>
        <pt x="292" y="692" on="1"/>
        <pt x="369" y="675" on="1"/>
        <pt x="354" y="585" on="1"/>
        <pt x="373" y="581" on="0"/>
        <pt x="405" y="568" on="0"/>
        <pt x="420" y="560" on="1"/>
        <pt x="402" y="437" on="1"/>
        <pt x="386" y="447" on="0"/>
        <pt x="349" y="463" on="0"/>
        <pt x="328" y="467" on="1"/>
        <pt x="289" y="211" on="1"/>
        <pt x="319" y="212" on="0"/>
        <pt x="375" y="228" on="0"/>
        <pt x="409" y="247" on="1"/>
      </contour>
    </TTGlyph>
    <TTGlyph name="cent.tab" xMin="45" yMin="-11" xMax="441" yMax="691">
      <contour>
        <pt x="182" y="339" on="1"/>
        <pt x="182" y="296" on="0"/>
        <pt x="213" y="234" on="0"/>
        <pt x="243" y="220" on="1"/>
        <pt x="281" y="472" on="1"/>
        <pt x="233" y="468" on="0"/>
        <pt x="182" y="399" on="0"/>
      </contour>
      <contour>
        <pt x="441" y="131" on="1"/>
        <pt x="407" y="112" on="0"/>
        <pt x="336" y="90" on="0"/>
        <pt x="293" y="89" on="1"/>
        <pt x="278" y="-11" on="1"/>
        <pt x="203" y="6" on="1"/>
        <pt x="217" y="96" on="1"/>
        <pt x="139" y="115" on="0"/>
        <pt x="45" y="239" on="0"/>
        <pt x="45" y="339" on="1"/>
        <pt x="45" y="400" on="0"/>
        <pt x="83" y="495" on="0"/>
        <pt x="149" y="559" on="0"/>
        <pt x="239" y="592" on="0"/>
        <pt x="291" y="592" on="1"/>
        <pt x="292" y="592" on="1"/>
        <pt x="307" y="691" on="1"/>
        <pt x="382" y="674" on="1"/>
        <pt x="367" y="584" on="1"/>
        <pt x="387" y="580" on="0"/>
        <pt x="421" y="566" on="0"/>
        <pt x="437" y="558" on="1"/>
        <pt x="419" y="435" on="1"/>
        <pt x="402" y="445" on="0"/>
        <pt x="364" y="462" on="0"/>
        <pt x="342" y="466" on="1"/>
        <pt x="304" y="211" on="1"/>
        <pt x="335" y="212" on="0"/>
        <pt x="392" y="228" on="0"/>
        <pt x="426" y="247" on="1"/>
      </contour>
    </TTGlyph>
    <TTGlyph name="circumflex" xMin="43" yMin="541" xMax="365" yMax="688">
      <contour>
        <pt x="365" y="541" on="1"/>
        <pt x="268" y="541" on="1"/>
        <pt x="204" y="600" on="1"/>
        <pt x="140" y="541" on="1"/>
        <pt x="43" y="541" on="1"/>
        <pt x="138" y="688" on="1"/>
        <pt x="270" y="688" on="1"/>
      </contour>
    </TTGlyph>
    <TTGlyph name="colon" xMin="40" yMin="0" xMax="195" yMax="491">
      <contour>
        <pt x="195" y="320" on="1"/>
        <pt x="40" y="320" on="1"/>
        <pt x="40" y="491" on="1"/>
        <pt x="195" y="491" on="1"/>
      </contour>
      <contour>
        <pt x="195" y="0" on="1"/>
        <pt x="40" y="0" on="1"/>
        <pt x="40" y="171" on="1"/>
        <pt x="195" y="171" on="1"/>
      </contour>
    </TTGlyph>
    <TTGlyph name="colon.tab" xMin="46" yMin="0" xMax="197" yMax="491">
      <contour>
        <pt x="197" y="319" on="1"/>
        <pt x="46" y="319" on="1"/>
        <pt x="46" y="491" on="1"/>
        <pt x="197" y="491" on="1"/>
      </contour>
      <contour>
        <pt x="197" y="0" on="1"/>
        <pt x="46" y="0" on="1"/>
        <pt x="46" y="173" on="1"/>
        <pt x="197" y="173" on="1"/>
      </contour>
    </TTGlyph>
    <TTGlyph name="colonmonetary" xMin="31" yMin="-120" xMax="506" yMax="761">
      <contour>
        <pt x="366" y="-120" on="1"/>
        <pt x="298" y="-104" on="1"/>
        <pt x="314" y="-4" on="1"/>
        <pt x="313" y="-4" on="1"/>
        <pt x="299" y="-4" on="0"/>
        <pt x="272" y="-2" on="0"/>
        <pt x="259" y="0" on="1"/>
        <pt x="239" y="-120" on="1"/>
        <pt x="170" y="-104" on="1"/>
        <pt x="190" y="20" on="1"/>
        <pt x="112" y="54" on="0"/>
        <pt x="31" y="219" on="0"/>
        <pt x="31" y="339" on="1"/>
        <pt x="31" y="415" on="0"/>
        <pt x="67" y="541" on="0"/>
        <pt x="135" y="631" on="0"/>
        <pt x="235" y="684" on="0"/>
        <pt x="299" y="687" on="1"/>
        <pt x="310" y="761" on="1"/>
        <pt x="379" y="745" on="1"/>
        <pt x="369" y="684" on="1"/>
        <pt x="384" y="682" on="0"/>
        <pt x="410" y="675" on="0"/>
        <pt x="423" y="671" on="1"/>
        <pt x="437" y="761" on="1"/>
        <pt x="506" y="745" on="1"/>
        <pt x="407" y="135" on="1"/>
        <pt x="421" y="139" on="0"/>
        <pt x="450" y="154" on="0"/>
        <pt x="466" y="162" on="1"/>
        <pt x="486" y="39" on="1"/>
        <pt x="463" y="28" on="0"/>
        <pt x="414" y="9" on="0"/>
        <pt x="386" y="3" on="1"/>
      </contour>
      <contour>
        <pt x="326" y="120" on="1"/>
        <pt x="332" y="120" on="0"/>
        <pt x="343" y="120" on="0"/>
        <pt x="349" y="121" on="1"/>
        <pt x="416" y="541" on="1"/>
        <pt x="400" y="549" on="0"/>
        <pt x="365" y="559" on="0"/>
        <pt x="347" y="561" on="1"/>
        <pt x="277" y="126" on="1"/>
        <pt x="287" y="123" on="0"/>
        <pt x="313" y="120" on="0"/>
      </contour>
      <contour>
        <pt x="178" y="328" on="1"/>
        <pt x="178" y="268" on="0"/>
        <pt x="201" y="182" on="0"/>
        <pt x="225" y="157" on="1"/>
        <pt x="290" y="560" on="1"/>
        <pt x="230" y="547" on="0"/>
        <pt x="178" y="424" on="0"/>
      </contour>
    </TTGlyph>
    <TTGlyph name="comma" xMin="18" yMin="-133" xMax="214" yMax="172">
      <contour>
        <pt x="214" y="172" on="1"/>
        <pt x="102" y="-133" on="1"/>
        <pt x="18" y="-113" on="1"/>
        <pt x="49" y="172" on="1"/>
      </contour>
    </TTGlyph>
    <TTGlyph name="comma.alt" xMin="7" yMin="-134" xMax="201" yMax="172">
      <contour>
        <pt x="40" y="172" on="1"/>
        <pt x="191" y="172" on="1"/>
        <pt x="195" y="154" on="0"/>
        <pt x="201" y="116" on="0"/>
        <pt x="201" y="97" on="1"/>
        <pt x="201" y="37" on="0"/>
        <pt x="145" y="-74" on="0"/>
        <pt x="88" y="-134" on="1"/>
        <pt x="7" y="-107" on="1"/>
        <pt x="32" y="-56" on="0"/>
        <pt x="52" y="29" on="0"/>
        <pt x="53" y="69" on="1"/>
        <pt x="53" y="94" on="0"/>
        <pt x="46" y="144" on="0"/>
      </contour>
    </TTGlyph>
    <TTGlyph name="comma.tab" xMin="24" yMin="-136" xMax="221" yMax="175">
      <contour>
        <pt x="221" y="175" on="1"/>
        <pt x="111" y="-136" on="1"/>
        <pt x="24" y="-119" on="1"/>
        <pt x="61" y="175" on="1"/>
      </contour>
    </TTGlyph>
    <TTGlyph name="comma.tab_alt" xMin="18" yMin="-137" xMax="210" yMax="175">
      <contour>
        <pt x="52" y="175" on="1"/>
        <pt x="199" y="175" on="1"/>
        <pt x="204" y="157" on="0"/>
        <pt x="210" y="118" on="0"/>
        <pt x="210" y="99" on="1"/>
        <pt x="210" y="37" on="0"/>
        <pt x="152" y="-76" on="0"/>
        <pt x="93" y="-137" on="1"/>
        <pt x="18" y="-109" on="1"/>
        <pt x="44" y="-57" on="0"/>
        <pt x="66" y="29" on="0"/>
        <pt x="66" y="72" on="1"/>
        <pt x="66" y="97" on="0"/>
        <pt x="59" y="147" on="0"/>
      </contour>
    </TTGlyph>
    <TTGlyph name="commaaccent" xMin="114" yMin="-243" xMax="286" yMax="-43">
      <contour>
        <pt x="126" y="-67" on="1"/>
        <pt x="249" y="-43" on="1"/>
        <pt x="267" y="-62" on="0"/>
        <pt x="286" y="-100" on="0"/>
        <pt x="286" y="-123" on="1"/>
        <pt x="286" y="-154" on="0"/>
        <pt x="246" y="-213" on="0"/>
        <pt x="203" y="-243" on="1"/>
        <pt x="114" y="-227" on="1"/>
        <pt x="137" y="-199" on="0"/>
        <pt x="158" y="-157" on="0"/>
        <pt x="158" y="-137" on="1"/>
        <pt x="158" y="-121" on="0"/>
        <pt x="144" y="-88" on="0"/>
      </contour>
    </TTGlyph>
    <TTGlyph name="commaaccent.rot" xMin="148" yMin="537" xMax="320" yMax="737">
      <contour>
        <pt x="308" y="561" on="1"/>
        <pt x="185" y="537" on="1"/>
        <pt x="167" y="556" on="0"/>
        <pt x="148" y="594" on="0"/>
        <pt x="148" y="617" on="1"/>
        <pt x="148" y="648" on="0"/>
        <pt x="188" y="707" on="0"/>
        <pt x="231" y="737" on="1"/>
        <pt x="320" y="721" on="1"/>
        <pt x="297" y="693" on="0"/>
        <pt x="276" y="651" on="0"/>
        <pt x="276" y="631" on="1"/>
        <pt x="276" y="615" on="0"/>
        <pt x="290" y="582" on="0"/>
      </contour>
    </TTGlyph>
    <TTGlyph name="copyright" xMin="43" yMin="-18" xMax="666" yMax="708">
      <contour>
        <pt x="666" y="346" on="1"/>
        <pt x="666" y="265" on="0"/>
        <pt x="620" y="131" on="0"/>
        <pt x="538" y="35" on="0"/>
        <pt x="423" y="-18" on="0"/>
        <pt x="354" y="-18" on="1"/>
        <pt x="284" y="-18" on="0"/>
        <pt x="169" y="35" on="0"/>
        <pt x="88" y="129" on="0"/>
        <pt x="43" y="263" on="0"/>
        <pt x="43" y="344" on="1"/>
        <pt x="43" y="425" on="0"/>
        <pt x="88" y="560" on="0"/>
        <pt x="170" y="655" on="0"/>
        <pt x="286" y="708" on="0"/>
        <pt x="355" y="708" on="1"/>
        <pt x="424" y="708" on="0"/>
        <pt x="540" y="655" on="0"/>
        <pt x="621" y="561" on="0"/>
        <pt x="666" y="427" on="0"/>
      </contour>
      <contour>
        <pt x="623" y="345" on="1"/>
        <pt x="623" y="422" on="0"/>
        <pt x="581" y="544" on="0"/>
        <pt x="509" y="628" on="0"/>
        <pt x="411" y="672" on="0"/>
        <pt x="355" y="672" on="1"/>
        <pt x="298" y="672" on="0"/>
        <pt x="200" y="628" on="0"/>
        <pt x="127" y="544" on="0"/>
        <pt x="86" y="422" on="0"/>
        <pt x="86" y="345" on="1"/>
        <pt x="86" y="268" on="0"/>
        <pt x="128" y="146" on="0"/>
        <pt x="200" y="63" on="0"/>
        <pt x="299" y="19" on="0"/>
        <pt x="355" y="19" on="1"/>
        <pt x="411" y="19" on="0"/>
        <pt x="509" y="63" on="0"/>
        <pt x="581" y="146" on="0"/>
        <pt x="623" y="268" on="0"/>
      </contour>
      <contour>
        <pt x="485" y="169" on="1"/>
        <pt x="459" y="154" on="0"/>
        <pt x="405" y="140" on="0"/>
        <pt x="371" y="140" on="1"/>
        <pt x="287" y="140" on="0"/>
        <pt x="190" y="251" on="0"/>
        <pt x="190" y="348" on="1"/>
        <pt x="190" y="444" on="0"/>
        <pt x="290" y="557" on="0"/>
        <pt x="372" y="557" on="1"/>
        <pt x="404" y="557" on="0"/>
        <pt x="455" y="544" on="0"/>
        <pt x="479" y="532" on="1"/>
        <pt x="464" y="436" on="1"/>
        <pt x="441" y="451" on="0"/>
        <pt x="405" y="464" on="0"/>
        <pt x="384" y="464" on="1"/>
        <pt x="347" y="464" on="0"/>
        <pt x="304" y="403" on="0"/>
        <pt x="304" y="349" on="1"/>
        <pt x="304" y="293" on="0"/>
        <pt x="349" y="233" on="0"/>
        <pt x="389" y="233" on="1"/>
        <pt x="407" y="233" on="0"/>
        <pt x="446" y="245" on="0"/>
        <pt x="471" y="260" on="1"/>
      </contour>
    </TTGlyph>
    <TTGlyph name="d" xMin="25" yMin="-9" xMax="457" yMax="722">
      <contour>
        <pt x="174" y="241" on="1"/>
        <pt x="174" y="177" on="0"/>
        <pt x="214" y="121" on="0"/>
        <pt x="242" y="121" on="1"/>
        <pt x="261" y="121" on="0"/>
        <pt x="292" y="141" on="0"/>
        <pt x="307" y="157" on="1"/>
        <pt x="307" y="366" on="1"/>
        <pt x="296" y="371" on="0"/>
        <pt x="275" y="376" on="0"/>
        <pt x="260" y="376" on="1"/>
        <pt x="223" y="376" on="0"/>
        <pt x="174" y="313" on="0"/>
      </contour>
      <contour>
        <pt x="25" y="230" on="1"/>
        <pt x="25" y="301" on="0"/>
        <pt x="59" y="402" on="0"/>
        <pt x="115" y="465" on="0"/>
        <pt x="190" y="495" on="0"/>
        <pt x="231" y="495" on="1"/>
        <pt x="254" y="495" on="0"/>
        <pt x="291" y="488" on="0"/>
        <pt x="307" y="484" on="1"/>
        <pt x="307" y="699" on="1"/>
        <pt x="457" y="722" on="1"/>
        <pt x="457" y="0" on="1"/>
        <pt x="327" y="0" on="1"/>
        <pt x="318" y="56" on="1"/>
        <pt x="294" y="31" on="0"/>
        <pt x="232" y="-9" on="0"/>
        <pt x="191" y="-9" on="1"/>
        <pt x="119" y="-9" on="0"/>
        <pt x="25" y="112" on="0"/>
      </contour>
    </TTGlyph>
    <TTGlyph name="dagger" xMin="40" yMin="-105" xMax="441" yMax="691">
      <contour>
        <pt x="299" y="617" on="1"/>
        <pt x="256" y="489" on="1"/>
        <pt x="225" y="489" on="1"/>
        <pt x="182" y="617" on="1"/>
        <pt x="182" y="691" on="1"/>
        <pt x="299" y="691" on="1"/>
      </contour>
      <contour>
        <pt x="203" y="438" on="1"/>
        <pt x="80" y="396" on="1"/>
        <pt x="40" y="396" on="1"/>
        <pt x="40" y="511" on="1"/>
        <pt x="80" y="511" on="1"/>
        <pt x="203" y="467" on="1"/>
      </contour>
      <contour>
        <pt x="441" y="396" on="1"/>
        <pt x="401" y="396" on="1"/>
        <pt x="278" y="438" on="1"/>
        <pt x="278" y="467" on="1"/>
        <pt x="401" y="511" on="1"/>
        <pt x="441" y="511" on="1"/>
      </contour>
      <contour>
        <pt x="291" y="21" on="1"/>
        <pt x="254" y="-105" on="1"/>
        <pt x="226" y="-105" on="1"/>
        <pt x="189" y="21" on="1"/>
        <pt x="189" y="295" on="1"/>
        <pt x="225" y="417" on="1"/>
        <pt x="256" y="417" on="1"/>
        <pt x="291" y="295" on="1"/>
      </contour>
    </TTGlyph>
    <TTGlyph name="daggerdbl" xMin="45" yMin="-171" xMax="445" yMax="691">
      <contour>
        <pt x="304" y="617" on="1"/>
        <pt x="260" y="489" on="1"/>
        <pt x="230" y="489" on="1"/>
        <pt x="187" y="617" on="1"/>
        <pt x="187" y="691" on="1"/>
        <pt x="304" y="691" on="1"/>
      </contour>
      <contour>
        <pt x="445" y="397" on="1"/>
        <pt x="405" y="397" on="1"/>
        <pt x="283" y="438" on="1"/>
        <pt x="283" y="467" on="1"/>
        <pt x="405" y="509" on="1"/>
        <pt x="445" y="509" on="1"/>
      </contour>
      <contour>
        <pt x="208" y="438" on="1"/>
        <pt x="85" y="397" on="1"/>
        <pt x="45" y="397" on="1"/>
        <pt x="45" y="509" on="1"/>
        <pt x="85" y="509" on="1"/>
        <pt x="208" y="467" on="1"/>
      </contour>
      <contour>
        <pt x="299" y="225" on="1"/>
        <pt x="260" y="104" on="1"/>
        <pt x="230" y="104" on="1"/>
        <pt x="191" y="225" on="1"/>
        <pt x="191" y="295" on="1"/>
        <pt x="230" y="417" on="1"/>
        <pt x="260" y="417" on="1"/>
        <pt x="299" y="295" on="1"/>
      </contour>
      <contour>
        <pt x="283" y="81" on="1"/>
        <pt x="405" y="123" on="1"/>
        <pt x="445" y="123" on="1"/>
        <pt x="445" y="11" on="1"/>
        <pt x="405" y="11" on="1"/>
        <pt x="283" y="53" on="1"/>
      </contour>
      <contour>
        <pt x="45" y="123" on="1"/>
        <pt x="85" y="123" on="1"/>
        <pt x="208" y="81" on="1"/>
        <pt x="208" y="53" on="1"/>
        <pt x="85" y="11" on="1"/>
        <pt x="45" y="11" on="1"/>
      </contour>
      <contour>
        <pt x="187" y="-97" on="1"/>
        <pt x="230" y="31" on="1"/>
        <pt x="260" y="31" on="1"/>
        <pt x="304" y="-97" on="1"/>
        <pt x="304" y="-171" on="1"/>
        <pt x="187" y="-171" on="1"/>
      </contour>
    </TTGlyph>
    <TTGlyph name="dcaron" xMin="25" yMin="-9" xMax="620" yMax="724">
      <component glyphName="d" x="0" y="0" flags="0x204"/>
      <component glyphName="caron.alt" x="351" y="16" flags="0x4"/>
    </TTGlyph>
    <TTGlyph name="dcroat" xMin="25" yMin="-10" xMax="515" yMax="722">
      <contour>
        <pt x="174" y="242" on="1"/>
        <pt x="174" y="179" on="0"/>
        <pt x="214" y="123" on="0"/>
        <pt x="242" y="123" on="1"/>
        <pt x="261" y="123" on="0"/>
        <pt x="292" y="143" on="0"/>
        <pt x="307" y="159" on="1"/>
        <pt x="307" y="366" on="1"/>
        <pt x="296" y="371" on="0"/>
        <pt x="275" y="376" on="0"/>
        <pt x="260" y="376" on="1"/>
        <pt x="223" y="376" on="0"/>
        <pt x="174" y="313" on="0"/>
      </contour>
      <contour>
        <pt x="318" y="56" on="1"/>
        <pt x="295" y="31" on="0"/>
        <pt x="232" y="-10" on="0"/>
        <pt x="190" y="-10" on="1"/>
        <pt x="119" y="-10" on="0"/>
        <pt x="25" y="111" on="0"/>
        <pt x="25" y="230" on="1"/>
        <pt x="25" y="301" on="0"/>
        <pt x="59" y="402" on="0"/>
        <pt x="115" y="465" on="0"/>
        <pt x="190" y="495" on="0"/>
        <pt x="231" y="495" on="1"/>
        <pt x="254" y="495" on="0"/>
        <pt x="291" y="488" on="0"/>
        <pt x="307" y="484" on="1"/>
        <pt x="307" y="551" on="1"/>
        <pt x="204" y="551" on="1"/>
        <pt x="189" y="643" on="1"/>
        <pt x="307" y="643" on="1"/>
        <pt x="307" y="699" on="1"/>
        <pt x="457" y="722" on="1"/>
        <pt x="457" y="643" on="1"/>
        <pt x="515" y="643" on="1"/>
        <pt x="515" y="550" on="1"/>
        <pt x="457" y="550" on="1"/>
        <pt x="457" y="0" on="1"/>
        <pt x="327" y="0" on="1"/>
      </contour>
    </TTGlyph>
    <TTGlyph name="dcroat.flat" xMin="25" yMin="-10" xMax="515" yMax="722">
      <contour>
        <pt x="174" y="242" on="1"/>
        <pt x="174" y="179" on="0"/>
        <pt x="214" y="123" on="0"/>
        <pt x="242" y="123" on="1"/>
        <pt x="261" y="123" on="0"/>
        <pt x="292" y="143" on="0"/>
        <pt x="307" y="159" on="1"/>
        <pt x="307" y="366" on="1"/>
        <pt x="296" y="371" on="0"/>
        <pt x="275" y="376" on="0"/>
        <pt x="260" y="376" on="1"/>
        <pt x="223" y="376" on="0"/>
        <pt x="174" y="313" on="0"/>
      </contour>
      <contour>
        <pt x="318" y="56" on="1"/>
        <pt x="295" y="31" on="0"/>
        <pt x="232" y="-10" on="0"/>
        <pt x="190" y="-10" on="1"/>
        <pt x="119" y="-10" on="0"/>
        <pt x="25" y="111" on="0"/>
        <pt x="25" y="230" on="1"/>
        <pt x="25" y="301" on="0"/>
        <pt x="59" y="402" on="0"/>
        <pt x="115" y="465" on="0"/>
        <pt x="190" y="495" on="0"/>
        <pt x="231" y="495" on="1"/>
        <pt x="254" y="495" on="0"/>
        <pt x="291" y="488" on="0"/>
        <pt x="307" y="484" on="1"/>
        <pt x="307" y="551" on="1"/>
        <pt x="196" y="551" on="1"/>
        <pt x="196" y="643" on="1"/>
        <pt x="307" y="643" on="1"/>
        <pt x="307" y="699" on="1"/>
        <pt x="457" y="722" on="1"/>
        <pt x="457" y="643" on="1"/>
        <pt x="515" y="643" on="1"/>
        <pt x="515" y="550" on="1"/>
        <pt x="457" y="550" on="1"/>
        <pt x="457" y="0" on="1"/>
        <pt x="327" y="0" on="1"/>
      </contour>
    </TTGlyph>
    <TTGlyph name="degree" xMin="34" yMin="363" xMax="362" yMax="690">
      <contour>
        <pt x="362" y="526" on="1"/>
        <pt x="362" y="455" on="0"/>
        <pt x="270" y="363" on="0"/>
        <pt x="198" y="363" on="1"/>
        <pt x="127" y="363" on="0"/>
        <pt x="34" y="455" on="0"/>
        <pt x="34" y="526" on="1"/>
        <pt x="34" y="596" on="0"/>
        <pt x="127" y="690" on="0"/>
        <pt x="198" y="690" on="1"/>
        <pt x="269" y="690" on="0"/>
        <pt x="362" y="596" on="0"/>
      </contour>
      <contour>
        <pt x="275" y="526" on="1"/>
        <pt x="275" y="561" on="0"/>
        <pt x="232" y="609" on="0"/>
        <pt x="198" y="609" on="1"/>
        <pt x="164" y="609" on="0"/>
        <pt x="122" y="561" on="0"/>
        <pt x="122" y="526" on="1"/>
        <pt x="122" y="490" on="0"/>
        <pt x="164" y="444" on="0"/>
        <pt x="198" y="444" on="1"/>
        <pt x="233" y="444" on="0"/>
        <pt x="275" y="490" on="0"/>
      </contour>
    </TTGlyph>
    <TTGlyph name="degree.tab" xMin="61" yMin="331" xMax="425" yMax="693">
      <contour>
        <pt x="425" y="511" on="1"/>
        <pt x="425" y="433" on="0"/>
        <pt x="322" y="331" on="0"/>
        <pt x="243" y="331" on="1"/>
        <pt x="164" y="331" on="0"/>
        <pt x="61" y="433" on="0"/>
        <pt x="61" y="511" on="1"/>
        <pt x="61" y="589" on="0"/>
        <pt x="164" y="693" on="0"/>
        <pt x="243" y="693" on="1"/>
        <pt x="322" y="693" on="0"/>
        <pt x="425" y="589" on="0"/>
      </contour>
      <contour>
        <pt x="149" y="512" on="1"/>
        <pt x="149" y="468" on="0"/>
        <pt x="201" y="412" on="0"/>
        <pt x="243" y="412" on="1"/>
        <pt x="285" y="412" on="0"/>
        <pt x="337" y="468" on="0"/>
        <pt x="337" y="512" on="1"/>
        <pt x="337" y="555" on="0"/>
        <pt x="285" y="612" on="0"/>
        <pt x="243" y="612" on="1"/>
        <pt x="201" y="612" on="0"/>
        <pt x="149" y="555" on="0"/>
      </contour>
    </TTGlyph>
    <TTGlyph name="dieresis" xMin="50" yMin="542" xMax="357" yMax="672">
      <contour>
        <pt x="174" y="542" on="1"/>
        <pt x="50" y="542" on="1"/>
        <pt x="50" y="672" on="1"/>
        <pt x="174" y="672" on="1"/>
      </contour>
      <contour>
        <pt x="357" y="542" on="1"/>
        <pt x="232" y="542" on="1"/>
        <pt x="232" y="672" on="1"/>
        <pt x="357" y="672" on="1"/>
      </contour>
    </TTGlyph>
    <TTGlyph name="divide" xMin="42" yMin="96" xMax="461" yMax="587">
      <contour>
        <pt x="315" y="461" on="1"/>
        <pt x="188" y="461" on="1"/>
        <pt x="188" y="587" on="1"/>
        <pt x="315" y="587" on="1"/>
      </contour>
      <contour>
        <pt x="461" y="285" on="1"/>
        <pt x="42" y="285" on="1"/>
        <pt x="42" y="398" on="1"/>
        <pt x="461" y="398" on="1"/>
      </contour>
      <contour>
        <pt x="315" y="96" on="1"/>
        <pt x="188" y="96" on="1"/>
        <pt x="188" y="221" on="1"/>
        <pt x="315" y="221" on="1"/>
      </contour>
    </TTGlyph>
    <TTGlyph name="divide.tab" xMin="34" yMin="96" xMax="452" yMax="587">
      <contour>
        <pt x="307" y="461" on="1"/>
        <pt x="179" y="461" on="1"/>
        <pt x="179" y="587" on="1"/>
        <pt x="307" y="587" on="1"/>
      </contour>
      <contour>
        <pt x="452" y="285" on="1"/>
        <pt x="34" y="285" on="1"/>
        <pt x="34" y="398" on="1"/>
        <pt x="452" y="398" on="1"/>
      </contour>
      <contour>
        <pt x="307" y="96" on="1"/>
        <pt x="179" y="96" on="1"/>
        <pt x="179" y="221" on="1"/>
        <pt x="307" y="221" on="1"/>
      </contour>
    </TTGlyph>
    <TTGlyph name="dollar" xMin="18" yMin="-123" xMax="486" yMax="763">
      <contour>
        <pt x="177" y="505" on="1"/>
        <pt x="177" y="483" on="0"/>
        <pt x="205" y="452" on="0"/>
        <pt x="245" y="434" on="1"/>
        <pt x="265" y="565" on="1"/>
        <pt x="264" y="565" on="0"/>
        <pt x="259" y="565" on="0"/>
        <pt x="258" y="565" on="1"/>
        <pt x="219" y="565" on="0"/>
        <pt x="177" y="532" on="0"/>
      </contour>
      <contour>
        <pt x="349" y="187" on="1"/>
        <pt x="349" y="211" on="0"/>
        <pt x="322" y="247" on="0"/>
        <pt x="282" y="265" on="1"/>
        <pt x="260" y="119" on="1"/>
        <pt x="301" y="120" on="0"/>
        <pt x="349" y="156" on="0"/>
      </contour>
      <contour>
        <pt x="252" y="-5" on="1"/>
        <pt x="251" y="-5" on="0"/>
        <pt x="248" y="-5" on="0"/>
        <pt x="247" y="-5" on="1"/>
        <pt x="229" y="-123" on="1"/>
        <pt x="155" y="-107" on="1"/>
        <pt x="172" y="3" on="1"/>
        <pt x="130" y="10" on="0"/>
        <pt x="52" y="40" on="0"/>
        <pt x="18" y="59" on="1"/>
        <pt x="40" y="190" on="1"/>
        <pt x="80" y="167" on="0"/>
        <pt x="158" y="133" on="0"/>
        <pt x="197" y="125" on="1"/>
        <pt x="222" y="288" on="1"/>
        <pt x="138" y="322" on="0"/>
        <pt x="39" y="407" on="0"/>
        <pt x="39" y="494" on="1"/>
        <pt x="39" y="541" on="0"/>
        <pt x="73" y="613" on="0"/>
        <pt x="133" y="662" on="0"/>
        <pt x="218" y="688" on="0"/>
        <pt x="268" y="688" on="1"/>
        <pt x="270" y="688" on="0"/>
        <pt x="275" y="688" on="0"/>
        <pt x="277" y="688" on="1"/>
        <pt x="289" y="763" on="1"/>
        <pt x="363" y="746" on="1"/>
        <pt x="353" y="679" on="1"/>
        <pt x="384" y="673" on="0"/>
        <pt x="441" y="651" on="0"/>
        <pt x="466" y="636" on="1"/>
        <pt x="443" y="505" on="1"/>
        <pt x="415" y="524" on="0"/>
        <pt x="356" y="550" on="0"/>
        <pt x="327" y="557" on="1"/>
        <pt x="305" y="410" on="1"/>
        <pt x="392" y="376" on="0"/>
        <pt x="486" y="287" on="0"/>
        <pt x="486" y="200" on="1"/>
        <pt x="486" y="147" on="0"/>
        <pt x="449" y="69" on="0"/>
        <pt x="385" y="19" on="0"/>
        <pt x="300" y="-5" on="0"/>
      </contour>
    </TTGlyph>
    <TTGlyph name="dollar.tab" xMin="16" yMin="-121" xMax="459" yMax="761">
      <contour>
        <pt x="162" y="503" on="1"/>
        <pt x="162" y="477" on="0"/>
        <pt x="190" y="442" on="0"/>
        <pt x="227" y="426" on="1"/>
        <pt x="247" y="572" on="1"/>
        <pt x="243" y="572" on="1"/>
        <pt x="241" y="572" on="1"/>
        <pt x="204" y="572" on="0"/>
        <pt x="162" y="532" on="0"/>
      </contour>
      <contour>
        <pt x="330" y="191" on="1"/>
        <pt x="330" y="217" on="0"/>
        <pt x="302" y="256" on="0"/>
        <pt x="266" y="272" on="1"/>
        <pt x="244" y="112" on="1"/>
        <pt x="284" y="113" on="0"/>
        <pt x="330" y="154" on="0"/>
      </contour>
      <contour>
        <pt x="216" y="-121" on="1"/>
        <pt x="142" y="-107" on="1"/>
        <pt x="158" y="2" on="1"/>
        <pt x="119" y="9" on="0"/>
        <pt x="49" y="35" on="0"/>
        <pt x="16" y="52" on="1"/>
        <pt x="37" y="180" on="1"/>
        <pt x="74" y="159" on="0"/>
        <pt x="148" y="126" on="0"/>
        <pt x="183" y="119" on="1"/>
        <pt x="207" y="290" on="1"/>
        <pt x="117" y="321" on="0"/>
        <pt x="33" y="411" on="0"/>
        <pt x="33" y="490" on="1"/>
        <pt x="33" y="581" on="0"/>
        <pt x="146" y="688" on="0"/>
        <pt x="247" y="688" on="1"/>
        <pt x="249" y="688" on="0"/>
        <pt x="254" y="688" on="0"/>
        <pt x="256" y="688" on="1"/>
        <pt x="266" y="761" on="1"/>
        <pt x="341" y="746" on="1"/>
        <pt x="331" y="679" on="1"/>
        <pt x="364" y="672" on="0"/>
        <pt x="418" y="650" on="0"/>
        <pt x="441" y="637" on="1"/>
        <pt x="420" y="508" on="1"/>
        <pt x="396" y="523" on="0"/>
        <pt x="338" y="552" on="0"/>
        <pt x="307" y="562" on="1"/>
        <pt x="285" y="407" on="1"/>
        <pt x="378" y="373" on="0"/>
        <pt x="459" y="281" on="0"/>
        <pt x="459" y="204" on="1"/>
        <pt x="459" y="152" on="0"/>
        <pt x="425" y="73" on="0"/>
        <pt x="364" y="21" on="0"/>
        <pt x="281" y="-5" on="0"/>
        <pt x="233" y="-5" on="1"/>
      </contour>
    </TTGlyph>
    <TTGlyph name="dotaccent" xMin="138" yMin="542" xMax="269" yMax="672">
      <contour>
        <pt x="269" y="542" on="1"/>
        <pt x="138" y="542" on="1"/>
        <pt x="138" y="672" on="1"/>
        <pt x="269" y="672" on="1"/>
      </contour>
    </TTGlyph>
    <TTGlyph name="dotlessi" xMin="46" yMin="0" xMax="196" yMax="491">
      <contour>
        <pt x="196" y="0" on="1"/>
        <pt x="46" y="0" on="1"/>
        <pt x="46" y="491" on="1"/>
        <pt x="196" y="491" on="1"/>
      </contour>
    </TTGlyph>
    <TTGlyph name="e" xMin="23" yMin="-9" xMax="441" yMax="501">
      <contour>
        <pt x="236" y="399" on="1"/>
        <pt x="209" y="399" on="0"/>
        <pt x="173" y="345" on="0"/>
        <pt x="170" y="291" on="1"/>
        <pt x="300" y="291" on="1"/>
        <pt x="299" y="344" on="0"/>
        <pt x="265" y="399" on="0"/>
      </contour>
      <contour>
        <pt x="440" y="40" on="1"/>
        <pt x="404" y="18" on="0"/>
        <pt x="312" y="-9" on="0"/>
        <pt x="258" y="-9" on="1"/>
        <pt x="150" y="-9" on="0"/>
        <pt x="23" y="117" on="0"/>
        <pt x="23" y="245" on="1"/>
        <pt x="23" y="302" on="0"/>
        <pt x="54" y="396" on="0"/>
        <pt x="110" y="464" on="0"/>
        <pt x="190" y="501" on="0"/>
        <pt x="239" y="501" on="1"/>
        <pt x="291" y="501" on="0"/>
        <pt x="367" y="463" on="0"/>
        <pt x="417" y="396" on="0"/>
        <pt x="441" y="304" on="0"/>
        <pt x="441" y="251" on="1"/>
        <pt x="441" y="240" on="0"/>
        <pt x="439" y="209" on="0"/>
        <pt x="438" y="203" on="1"/>
        <pt x="171" y="203" on="1"/>
        <pt x="178" y="149" on="0"/>
        <pt x="235" y="102" on="0"/>
        <pt x="281" y="102" on="1"/>
        <pt x="316" y="102" on="0"/>
        <pt x="387" y="126" on="0"/>
        <pt x="424" y="148" on="1"/>
      </contour>
    </TTGlyph>
    <TTGlyph name="eacute" xMin="23" yMin="-9" xMax="441" yMax="694">
      <component glyphName="e" x="0" y="0" flags="0x204"/>
      <component glyphName="acute" x="87" y="3" flags="0x4"/>
    </TTGlyph>
    <TTGlyph name="ebreve" xMin="23" yMin="-9" xMax="441" yMax="691">
      <component glyphName="e" x="0" y="0" flags="0x204"/>
      <component glyphName="breve" x="37" y="3" flags="0x4"/>
    </TTGlyph>
    <TTGlyph name="ecaron" xMin="23" yMin="-9" xMax="441" yMax="691">
      <component glyphName="e" x="0" y="0" flags="0x204"/>
      <component glyphName="caron" x="38" y="3" flags="0x4"/>
    </TTGlyph>
    <TTGlyph name="ecircumflex" xMin="23" yMin="-9" xMax="441" yMax="691">
      <component glyphName="e" x="0" y="0" flags="0x204"/>
      <component glyphName="circumflex" x="36" y="3" flags="0x4"/>
    </TTGlyph>
    <TTGlyph name="edieresis" xMin="23" yMin="-9" xMax="441" yMax="675">
      <component glyphName="e" x="0" y="0" flags="0x204"/>
      <component glyphName="dieresis" x="37" y="3" flags="0x4"/>
    </TTGlyph>
    <TTGlyph name="edotaccent" xMin="23" yMin="-9" xMax="441" yMax="675">
      <component glyphName="e" x="0" y="0" flags="0x204"/>
      <component glyphName="dotaccent" x="37" y="3" flags="0x4"/>
    </TTGlyph>
    <TTGlyph name="egrave" xMin="23" yMin="-9" xMax="441" yMax="694">
      <component glyphName="e" x="0" y="0" flags="0x204"/>
      <component glyphName="grave" x="-13" y="3" flags="0x4"/>
    </TTGlyph>
    <TTGlyph name="eight" xMin="29" yMin="-13" xMax="520" yMax="696">
      <contour>
        <pt x="276" y="-13" on="1"/>
        <pt x="156" y="-13" on="0"/>
        <pt x="29" y="95" on="0"/>
        <pt x="29" y="177" on="1"/>
        <pt x="29" y="232" on="0"/>
        <pt x="91" y="320" on="0"/>
        <pt x="145" y="353" on="1"/>
        <pt x="99" y="382" on="0"/>
        <pt x="48" y="461" on="0"/>
        <pt x="48" y="512" on="1"/>
        <pt x="48" y="596" on="0"/>
        <pt x="174" y="696" on="0"/>
        <pt x="278" y="696" on="1"/>
        <pt x="381" y="696" on="0"/>
        <pt x="503" y="598" on="0"/>
        <pt x="503" y="520" on="1"/>
        <pt x="503" y="472" on="0"/>
        <pt x="453" y="393" on="0"/>
        <pt x="405" y="362" on="1"/>
        <pt x="462" y="331" on="0"/>
        <pt x="520" y="248" on="0"/>
        <pt x="520" y="185" on="1"/>
        <pt x="520" y="100" on="0"/>
        <pt x="389" y="-13" on="0"/>
      </contour>
      <contour>
        <pt x="197" y="516" on="1"/>
        <pt x="197" y="484" on="0"/>
        <pt x="241" y="437" on="0"/>
        <pt x="298" y="411" on="1"/>
        <pt x="325" y="433" on="0"/>
        <pt x="354" y="482" on="0"/>
        <pt x="354" y="511" on="1"/>
        <pt x="354" y="545" on="0"/>
        <pt x="311" y="588" on="0"/>
        <pt x="275" y="588" on="1"/>
        <pt x="240" y="588" on="0"/>
        <pt x="197" y="546" on="0"/>
      </contour>
      <contour>
        <pt x="277" y="100" on="1"/>
        <pt x="314" y="100" on="0"/>
        <pt x="366" y="146" on="0"/>
        <pt x="366" y="184" on="1"/>
        <pt x="366" y="223" on="0"/>
        <pt x="313" y="274" on="0"/>
        <pt x="247" y="303" on="1"/>
        <pt x="218" y="279" on="0"/>
        <pt x="184" y="221" on="0"/>
        <pt x="184" y="189" on="1"/>
        <pt x="184" y="149" on="0"/>
        <pt x="236" y="100" on="0"/>
      </contour>
    </TTGlyph>
    <TTGlyph name="eight.den" xMin="24" yMin="-10" xMax="300" yMax="368">
      <component glyphName="eight.num" x="0" y="-327" flags="0x4"/>
    </TTGlyph>
    <TTGlyph name="eight.inf" xMin="24" yMin="-160" xMax="300" yMax="218">
      <component glyphName="eight.num" x="0" y="-477" flags="0x4"/>
    </TTGlyph>
    <TTGlyph name="eight.num" xMin="24" yMin="317" xMax="300" yMax="695">
      <contour>
        <pt x="161" y="317" on="1"/>
        <pt x="94" y="317" on="0"/>
        <pt x="24" y="376" on="0"/>
        <pt x="24" y="422" on="1"/>
        <pt x="24" y="449" on="0"/>
        <pt x="54" y="496" on="0"/>
        <pt x="86" y="513" on="1"/>
        <pt x="59" y="528" on="0"/>
        <pt x="32" y="569" on="0"/>
        <pt x="32" y="595" on="1"/>
        <pt x="32" y="640" on="0"/>
        <pt x="103" y="695" on="0"/>
        <pt x="163" y="695" on="1"/>
        <pt x="219" y="695" on="0"/>
        <pt x="291" y="645" on="0"/>
        <pt x="291" y="603" on="1"/>
        <pt x="291" y="572" on="0"/>
        <pt x="261" y="531" on="0"/>
        <pt x="236" y="516" on="1"/>
        <pt x="270" y="500" on="0"/>
        <pt x="300" y="456" on="0"/>
        <pt x="300" y="425" on="1"/>
        <pt x="300" y="379" on="0"/>
        <pt x="227" y="317" on="0"/>
      </contour>
      <contour>
        <pt x="121" y="593" on="1"/>
        <pt x="121" y="577" on="0"/>
        <pt x="146" y="551" on="0"/>
        <pt x="180" y="538" on="1"/>
        <pt x="190" y="550" on="0"/>
        <pt x="202" y="576" on="0"/>
        <pt x="202" y="589" on="1"/>
        <pt x="202" y="608" on="0"/>
        <pt x="180" y="630" on="0"/>
        <pt x="162" y="630" on="1"/>
        <pt x="143" y="630" on="0"/>
        <pt x="121" y="609" on="0"/>
      </contour>
      <contour>
        <pt x="162" y="386" on="1"/>
        <pt x="182" y="386" on="0"/>
        <pt x="206" y="408" on="0"/>
        <pt x="206" y="427" on="1"/>
        <pt x="206" y="446" on="0"/>
        <pt x="179" y="476" on="0"/>
        <pt x="146" y="489" on="1"/>
        <pt x="132" y="476" on="0"/>
        <pt x="117" y="445" on="0"/>
        <pt x="117" y="430" on="1"/>
        <pt x="117" y="409" on="0"/>
        <pt x="143" y="386" on="0"/>
      </contour>
    </TTGlyph>
    <TTGlyph name="eight.sup" xMin="24" yMin="411" xMax="300" yMax="789">
      <component glyphName="eight.num" x="0" y="94" flags="0x4"/>
    </TTGlyph>
    <TTGlyph name="eight.tab" xMin="20" yMin="-10" xMax="464" yMax="697">
      <contour>
        <pt x="243" y="-10" on="1"/>
        <pt x="135" y="-10" on="0"/>
        <pt x="20" y="98" on="0"/>
        <pt x="20" y="177" on="1"/>
        <pt x="20" y="234" on="0"/>
        <pt x="76" y="325" on="0"/>
        <pt x="127" y="359" on="1"/>
        <pt x="81" y="387" on="0"/>
        <pt x="33" y="465" on="0"/>
        <pt x="33" y="513" on="1"/>
        <pt x="33" y="593" on="0"/>
        <pt x="149" y="697" on="0"/>
        <pt x="246" y="697" on="1"/>
        <pt x="342" y="697" on="0"/>
        <pt x="453" y="598" on="0"/>
        <pt x="453" y="521" on="1"/>
        <pt x="453" y="467" on="0"/>
        <pt x="397" y="387" on="0"/>
        <pt x="357" y="358" on="1"/>
        <pt x="413" y="325" on="0"/>
        <pt x="464" y="238" on="0"/>
        <pt x="464" y="184" on="1"/>
        <pt x="464" y="101" on="0"/>
        <pt x="346" y="-10" on="0"/>
      </contour>
      <contour>
        <pt x="174" y="515" on="1"/>
        <pt x="174" y="478" on="0"/>
        <pt x="216" y="426" on="0"/>
        <pt x="265" y="402" on="1"/>
        <pt x="287" y="423" on="0"/>
        <pt x="311" y="478" on="0"/>
        <pt x="311" y="509" on="1"/>
        <pt x="311" y="548" on="0"/>
        <pt x="273" y="589" on="0"/>
        <pt x="243" y="589" on="1"/>
        <pt x="211" y="589" on="0"/>
        <pt x="174" y="548" on="0"/>
      </contour>
      <contour>
        <pt x="244" y="100" on="1"/>
        <pt x="278" y="100" on="0"/>
        <pt x="320" y="146" on="0"/>
        <pt x="320" y="185" on="1"/>
        <pt x="320" y="225" on="0"/>
        <pt x="275" y="288" on="0"/>
        <pt x="220" y="315" on="1"/>
        <pt x="193" y="290" on="0"/>
        <pt x="164" y="226" on="0"/>
        <pt x="164" y="192" on="1"/>
        <pt x="164" y="146" on="0"/>
        <pt x="210" y="100" on="0"/>
      </contour>
    </TTGlyph>
    <TTGlyph name="ellipsis" xMin="39" yMin="0" xMax="656" yMax="170">
      <contour>
        <pt x="656" y="0" on="1"/>
        <pt x="504" y="0" on="1"/>
        <pt x="504" y="170" on="1"/>
        <pt x="656" y="170" on="1"/>
      </contour>
      <contour>
        <pt x="424" y="0" on="1"/>
        <pt x="271" y="0" on="1"/>
        <pt x="271" y="170" on="1"/>
        <pt x="424" y="170" on="1"/>
      </contour>
      <contour>
        <pt x="191" y="0" on="1"/>
        <pt x="39" y="0" on="1"/>
        <pt x="39" y="170" on="1"/>
        <pt x="191" y="170" on="1"/>
      </contour>
    </TTGlyph>
    <TTGlyph name="emacron" xMin="23" yMin="-9" xMax="441" yMax="657">
      <component glyphName="e" x="0" y="0" flags="0x204"/>
      <component glyphName="macron" x="37" y="3" flags="0x4"/>
    </TTGlyph>
    <TTGlyph name="emdash" xMin="31" yMin="222" xMax="769" yMax="361">
      <contour>
        <pt x="769" y="222" on="1"/>
        <pt x="31" y="222" on="1"/>
        <pt x="31" y="361" on="1"/>
        <pt x="769" y="361" on="1"/>
      </contour>
    </TTGlyph>
    <TTGlyph name="endash" xMin="31" yMin="221" xMax="388" yMax="361">
      <contour>
        <pt x="388" y="221" on="1"/>
        <pt x="31" y="221" on="1"/>
        <pt x="31" y="361" on="1"/>
        <pt x="388" y="361" on="1"/>
      </contour>
    </TTGlyph>
    <TTGlyph name="eogonek" xMin="23" yMin="-198" xMax="441" yMax="501">
      <contour>
        <pt x="332" y="-198" on="1"/>
        <pt x="286" y="-198" on="0"/>
        <pt x="233" y="-156" on="0"/>
        <pt x="233" y="-116" on="1"/>
        <pt x="234" y="-91" on="0"/>
        <pt x="263" y="-36" on="0"/>
        <pt x="291" y="-7" on="1"/>
        <pt x="284" y="-8" on="0"/>
        <pt x="267" y="-9" on="0"/>
        <pt x="258" y="-9" on="1"/>
        <pt x="151" y="-9" on="0"/>
        <pt x="23" y="117" on="0"/>
        <pt x="23" y="245" on="1"/>
        <pt x="23" y="302" on="0"/>
        <pt x="54" y="396" on="0"/>
        <pt x="110" y="464" on="0"/>
        <pt x="190" y="501" on="0"/>
        <pt x="239" y="501" on="1"/>
        <pt x="291" y="501" on="0"/>
        <pt x="367" y="463" on="0"/>
        <pt x="417" y="396" on="0"/>
        <pt x="441" y="304" on="0"/>
        <pt x="441" y="251" on="1"/>
        <pt x="441" y="241" on="0"/>
        <pt x="439" y="208" on="0"/>
        <pt x="438" y="203" on="1"/>
        <pt x="171" y="203" on="1"/>
        <pt x="178" y="151" on="0"/>
        <pt x="235" y="102" on="0"/>
        <pt x="281" y="102" on="1"/>
        <pt x="316" y="102" on="0"/>
        <pt x="387" y="126" on="0"/>
        <pt x="424" y="148" on="1"/>
        <pt x="438" y="50" on="1"/>
        <pt x="393" y="0" on="1"/>
        <pt x="367" y="-28" on="0"/>
        <pt x="343" y="-67" on="0"/>
        <pt x="343" y="-82" on="1"/>
        <pt x="343" y="-96" on="0"/>
        <pt x="362" y="-114" on="0"/>
        <pt x="383" y="-114" on="1"/>
        <pt x="395" y="-114" on="0"/>
        <pt x="416" y="-110" on="0"/>
        <pt x="429" y="-107" on="1"/>
        <pt x="429" y="-179" on="1"/>
        <pt x="404" y="-188" on="0"/>
        <pt x="358" y="-198" on="0"/>
      </contour>
      <contour>
        <pt x="170" y="291" on="1"/>
        <pt x="300" y="291" on="1"/>
        <pt x="299" y="344" on="0"/>
        <pt x="265" y="399" on="0"/>
        <pt x="236" y="399" on="1"/>
        <pt x="209" y="399" on="0"/>
        <pt x="174" y="346" on="0"/>
      </contour>
    </TTGlyph>
    <TTGlyph name="equal" xMin="54" yMin="177" xMax="458" yMax="507">
      <contour>
        <pt x="458" y="392" on="1"/>
        <pt x="54" y="392" on="1"/>
        <pt x="54" y="507" on="1"/>
        <pt x="458" y="507" on="1"/>
      </contour>
      <contour>
        <pt x="458" y="177" on="1"/>
        <pt x="54" y="177" on="1"/>
        <pt x="54" y="291" on="1"/>
        <pt x="458" y="291" on="1"/>
      </contour>
    </TTGlyph>
    <TTGlyph name="equal.tab" xMin="41" yMin="177" xMax="445" yMax="507">
      <contour>
        <pt x="445" y="392" on="1"/>
        <pt x="41" y="392" on="1"/>
        <pt x="41" y="507" on="1"/>
        <pt x="445" y="507" on="1"/>
      </contour>
      <contour>
        <pt x="445" y="177" on="1"/>
        <pt x="41" y="177" on="1"/>
        <pt x="41" y="291" on="1"/>
        <pt x="445" y="291" on="1"/>
      </contour>
    </TTGlyph>
    <TTGlyph name="eth" xMin="24" yMin="-11" xMax="472" yMax="722">
      <contour>
        <pt x="239" y="-11" on="1"/>
        <pt x="195" y="-11" on="0"/>
        <pt x="117" y="20" on="0"/>
        <pt x="58" y="80" on="0"/>
        <pt x="24" y="168" on="0"/>
        <pt x="24" y="225" on="1"/>
        <pt x="24" y="331" on="0"/>
        <pt x="124" y="460" on="0"/>
        <pt x="199" y="460" on="1"/>
        <pt x="236" y="460" on="0"/>
        <pt x="297" y="434" on="0"/>
        <pt x="324" y="409" on="1"/>
        <pt x="317" y="449" on="0"/>
        <pt x="282" y="513" on="0"/>
        <pt x="254" y="537" on="1"/>
        <pt x="228" y="501" on="1"/>
        <pt x="141" y="501" on="1"/>
        <pt x="191" y="577" on="1"/>
        <pt x="175" y="584" on="0"/>
        <pt x="138" y="598" on="0"/>
        <pt x="118" y="604" on="1"/>
        <pt x="136" y="722" on="1"/>
        <pt x="170" y="714" on="0"/>
        <pt x="233" y="692" on="0"/>
        <pt x="261" y="678" on="1"/>
        <pt x="289" y="722" on="1"/>
        <pt x="374" y="704" on="1"/>
        <pt x="327" y="638" on="1"/>
        <pt x="396" y="585" on="0"/>
        <pt x="472" y="421" on="0"/>
        <pt x="472" y="308" on="1"/>
        <pt x="472" y="215" on="0"/>
        <pt x="428" y="86" on="0"/>
        <pt x="390" y="47" on="1"/>
        <pt x="361" y="17" on="0"/>
        <pt x="286" y="-11" on="0"/>
      </contour>
      <contour>
        <pt x="246" y="108" on="1"/>
        <pt x="283" y="108" on="0"/>
        <pt x="328" y="196" on="0"/>
        <pt x="328" y="295" on="1"/>
        <pt x="328" y="296" on="0"/>
        <pt x="328" y="302" on="0"/>
        <pt x="328" y="306" on="1"/>
        <pt x="307" y="324" on="0"/>
        <pt x="264" y="342" on="0"/>
        <pt x="243" y="342" on="1"/>
        <pt x="208" y="342" on="0"/>
        <pt x="170" y="279" on="0"/>
        <pt x="170" y="221" on="1"/>
        <pt x="170" y="172" on="0"/>
        <pt x="212" y="108" on="0"/>
      </contour>
    </TTGlyph>
    <TTGlyph name="exclam" xMin="42" yMin="0" xMax="224" yMax="690">
      <contour>
        <pt x="224" y="690" on="1"/>
        <pt x="178" y="250" on="1"/>
        <pt x="90" y="233" on="1"/>
        <pt x="42" y="690" on="1"/>
      </contour>
      <contour>
        <pt x="211" y="0" on="1"/>
        <pt x="56" y="0" on="1"/>
        <pt x="56" y="170" on="1"/>
        <pt x="211" y="170" on="1"/>
      </contour>
    </TTGlyph>
    <TTGlyph name="exclam.flat" xMin="42" yMin="0" xMax="224" yMax="690">
      <contour>
        <pt x="224" y="690" on="1"/>
        <pt x="177" y="242" on="1"/>
        <pt x="90" y="242" on="1"/>
        <pt x="42" y="690" on="1"/>
      </contour>
      <contour>
        <pt x="211" y="0" on="1"/>
        <pt x="56" y="0" on="1"/>
        <pt x="56" y="170" on="1"/>
        <pt x="211" y="170" on="1"/>
      </contour>
    </TTGlyph>
    <TTGlyph name="exclamdown" xMin="42" yMin="0" xMax="224" yMax="690">
      <contour>
        <pt x="211" y="520" on="1"/>
        <pt x="56" y="520" on="1"/>
        <pt x="56" y="690" on="1"/>
        <pt x="211" y="690" on="1"/>
      </contour>
      <contour>
        <pt x="224" y="0" on="1"/>
        <pt x="42" y="0" on="1"/>
        <pt x="88" y="440" on="1"/>
        <pt x="176" y="457" on="1"/>
      </contour>
    </TTGlyph>
    <TTGlyph name="exclamdown.flat" xMin="42" yMin="0" xMax="224" yMax="690">
      <contour>
        <pt x="56" y="690" on="1"/>
        <pt x="211" y="690" on="1"/>
        <pt x="211" y="520" on="1"/>
        <pt x="56" y="520" on="1"/>
      </contour>
      <contour>
        <pt x="42" y="0" on="1"/>
        <pt x="90" y="448" on="1"/>
        <pt x="177" y="448" on="1"/>
        <pt x="224" y="0" on="1"/>
      </contour>
    </TTGlyph>
    <TTGlyph name="f" xMin="12" yMin="0" xMax="327" yMax="715">
      <contour>
        <pt x="327" y="592" on="1"/>
        <pt x="317" y="594" on="0"/>
        <pt x="290" y="598" on="0"/>
        <pt x="277" y="598" on="1"/>
        <pt x="249" y="598" on="0"/>
        <pt x="221" y="570" on="0"/>
        <pt x="221" y="541" on="1"/>
        <pt x="221" y="491" on="1"/>
        <pt x="301" y="491" on="1"/>
        <pt x="321" y="368" on="1"/>
        <pt x="221" y="368" on="1"/>
        <pt x="221" y="0" on="1"/>
        <pt x="73" y="0" on="1"/>
        <pt x="73" y="368" on="1"/>
        <pt x="12" y="368" on="1"/>
        <pt x="12" y="491" on="1"/>
        <pt x="73" y="491" on="1"/>
        <pt x="73" y="558" on="1"/>
        <pt x="73" y="641" on="0"/>
        <pt x="165" y="715" on="0"/>
        <pt x="245" y="715" on="1"/>
        <pt x="262" y="715" on="0"/>
        <pt x="295" y="711" on="0"/>
        <pt x="308" y="709" on="1"/>
      </contour>
    </TTGlyph>
    <TTGlyph name="f.flat" xMin="12" yMin="0" xMax="327" yMax="715">
      <contour>
        <pt x="327" y="592" on="1"/>
        <pt x="317" y="594" on="0"/>
        <pt x="290" y="598" on="0"/>
        <pt x="277" y="598" on="1"/>
        <pt x="249" y="598" on="0"/>
        <pt x="221" y="570" on="0"/>
        <pt x="221" y="541" on="1"/>
        <pt x="221" y="491" on="1"/>
        <pt x="311" y="491" on="1"/>
        <pt x="311" y="368" on="1"/>
        <pt x="221" y="368" on="1"/>
        <pt x="221" y="0" on="1"/>
        <pt x="73" y="0" on="1"/>
        <pt x="73" y="368" on="1"/>
        <pt x="12" y="368" on="1"/>
        <pt x="12" y="491" on="1"/>
        <pt x="73" y="491" on="1"/>
        <pt x="73" y="558" on="1"/>
        <pt x="73" y="641" on="0"/>
        <pt x="165" y="715" on="0"/>
        <pt x="245" y="715" on="1"/>
        <pt x="262" y="715" on="0"/>
        <pt x="295" y="711" on="0"/>
        <pt x="308" y="709" on="1"/>
      </contour>
    </TTGlyph>
    <TTGlyph name="f_f" xMin="12" yMin="0" xMax="658" yMax="715">
      <component glyphName="f" x="0" y="0" flags="0x4"/>
      <component glyphName="f" x="331" y="0" flags="0x4"/>
    </TTGlyph>
    <TTGlyph name="f_f.flat" xMin="12" yMin="0" xMax="657" yMax="715">
      <component glyphName="f.flat" x="0" y="0" flags="0x4"/>
      <component glyphName="f.flat" x="330" y="0" flags="0x4"/>
    </TTGlyph>
    <TTGlyph name="f_f_i" xMin="12" yMin="0" xMax="858" yMax="715">
      <component glyphName="f" x="0" y="0" flags="0x4"/>
      <component glyphName="f" x="331" y="0" flags="0x4"/>
      <component glyphName="i" x="652" y="0" flags="0x4"/>
    </TTGlyph>
    <TTGlyph name="f_f_i.flat" xMin="12" yMin="0" xMax="856" yMax="715">
      <component glyphName="f.flat" x="0" y="0" flags="0x4"/>
      <component glyphName="f.flat" x="330" y="0" flags="0x4"/>
      <component glyphName="i" x="650" y="0" flags="0x4"/>
    </TTGlyph>
    <TTGlyph name="f_f_l" xMin="12" yMin="0" xMax="848" yMax="722">
      <component glyphName="f" x="0" y="0" flags="0x4"/>
      <component glyphName="f" x="331" y="0" flags="0x4"/>
      <component glyphName="l" x="652" y="0" flags="0x4"/>
    </TTGlyph>
    <TTGlyph name="f_f_l.flat" xMin="12" yMin="0" xMax="846" yMax="722">
      <component glyphName="f.flat" x="0" y="0" flags="0x4"/>
      <component glyphName="f.flat" x="330" y="0" flags="0x4"/>
      <component glyphName="l" x="650" y="0" flags="0x4"/>
    </TTGlyph>
    <TTGlyph name="fi" xMin="12" yMin="0" xMax="527" yMax="715">
      <component glyphName="f" x="0" y="0" flags="0x4"/>
      <component glyphName="i" x="321" y="0" flags="0x4"/>
    </TTGlyph>
    <TTGlyph name="fi.flat" xMin="12" yMin="0" xMax="526" yMax="715">
      <component glyphName="f.flat" x="0" y="0" flags="0x4"/>
      <component glyphName="i" x="320" y="0" flags="0x4"/>
    </TTGlyph>
    <TTGlyph name="five" xMin="27" yMin="-12" xMax="484" yMax="683">
      <contour>
        <pt x="484" y="228" on="1"/>
        <pt x="484" y="170" on="0"/>
        <pt x="446" y="80" on="0"/>
        <pt x="378" y="19" on="0"/>
        <pt x="282" y="-12" on="0"/>
        <pt x="225" y="-12" on="1"/>
        <pt x="167" y="-12" on="0"/>
        <pt x="70" y="13" on="0"/>
        <pt x="27" y="34" on="1"/>
        <pt x="50" y="173" on="1"/>
        <pt x="90" y="151" on="0"/>
        <pt x="176" y="126" on="0"/>
        <pt x="220" y="126" on="1"/>
        <pt x="266" y="126" on="0"/>
        <pt x="328" y="175" on="0"/>
        <pt x="328" y="221" on="1"/>
        <pt x="328" y="262" on="0"/>
        <pt x="281" y="306" on="0"/>
        <pt x="242" y="306" on="1"/>
        <pt x="216" y="306" on="0"/>
        <pt x="174" y="293" on="0"/>
        <pt x="157" y="284" on="1"/>
        <pt x="51" y="309" on="1"/>
        <pt x="75" y="683" on="1"/>
        <pt x="445" y="683" on="1"/>
        <pt x="465" y="546" on="1"/>
        <pt x="201" y="546" on="1"/>
        <pt x="193" y="419" on="1"/>
        <pt x="209" y="425" on="0"/>
        <pt x="253" y="433" on="0"/>
        <pt x="280" y="433" on="1"/>
        <pt x="323" y="433" on="0"/>
        <pt x="398" y="406" on="0"/>
        <pt x="453" y="354" on="0"/>
        <pt x="484" y="277" on="0"/>
      </contour>
    </TTGlyph>
    <TTGlyph name="five.den" xMin="27" yMin="-8" xMax="294" yMax="358">
      <component glyphName="five.num" x="0" y="-327" flags="0x4"/>
    </TTGlyph>
    <TTGlyph name="five.den_flat" xMin="27" yMin="-8" xMax="294" yMax="358">
      <component glyphName="five.num_flat" x="0" y="-327" flags="0x4"/>
    </TTGlyph>
    <TTGlyph name="five.flat" xMin="27" yMin="-12" xMax="484" yMax="683">
      <contour>
        <pt x="484" y="228" on="1"/>
        <pt x="484" y="170" on="0"/>
        <pt x="446" y="80" on="0"/>
        <pt x="378" y="19" on="0"/>
        <pt x="282" y="-12" on="0"/>
        <pt x="225" y="-12" on="1"/>
        <pt x="167" y="-12" on="0"/>
        <pt x="70" y="13" on="0"/>
        <pt x="27" y="34" on="1"/>
        <pt x="50" y="173" on="1"/>
        <pt x="90" y="151" on="0"/>
        <pt x="176" y="126" on="0"/>
        <pt x="220" y="126" on="1"/>
        <pt x="266" y="126" on="0"/>
        <pt x="328" y="175" on="0"/>
        <pt x="328" y="221" on="1"/>
        <pt x="328" y="262" on="0"/>
        <pt x="281" y="306" on="0"/>
        <pt x="242" y="306" on="1"/>
        <pt x="216" y="306" on="0"/>
        <pt x="174" y="293" on="0"/>
        <pt x="157" y="284" on="1"/>
        <pt x="51" y="309" on="1"/>
        <pt x="75" y="683" on="1"/>
        <pt x="457" y="683" on="1"/>
        <pt x="457" y="546" on="1"/>
        <pt x="201" y="546" on="1"/>
        <pt x="193" y="419" on="1"/>
        <pt x="209" y="425" on="0"/>
        <pt x="253" y="433" on="0"/>
        <pt x="280" y="433" on="1"/>
        <pt x="323" y="433" on="0"/>
        <pt x="398" y="406" on="0"/>
        <pt x="453" y="354" on="0"/>
        <pt x="484" y="277" on="0"/>
      </contour>
    </TTGlyph>
    <TTGlyph name="five.inf" xMin="27" yMin="-158" xMax="294" yMax="208">
      <component glyphName="five.num" x="0" y="-477" flags="0x4"/>
    </TTGlyph>
    <TTGlyph name="five.inf_flat" xMin="27" yMin="-158" xMax="294" yMax="208">
      <component glyphName="five.num_flat" x="0" y="-477" flags="0x4"/>
    </TTGlyph>
    <TTGlyph name="five.num" xMin="27" yMin="319" xMax="294" yMax="685">
      <contour>
        <pt x="294" y="446" on="1"/>
        <pt x="294" y="383" on="0"/>
        <pt x="211" y="319" on="0"/>
        <pt x="145" y="319" on="1"/>
        <pt x="111" y="319" on="0"/>
        <pt x="51" y="332" on="0"/>
        <pt x="27" y="342" on="1"/>
        <pt x="42" y="421" on="1"/>
        <pt x="64" y="412" on="0"/>
        <pt x="116" y="399" on="0"/>
        <pt x="137" y="399" on="1"/>
        <pt x="163" y="399" on="0"/>
        <pt x="193" y="422" on="0"/>
        <pt x="193" y="443" on="1"/>
        <pt x="193" y="462" on="0"/>
        <pt x="171" y="483" on="0"/>
        <pt x="150" y="483" on="1"/>
        <pt x="137" y="483" on="0"/>
        <pt x="115" y="474" on="0"/>
        <pt x="108" y="470" on="1"/>
        <pt x="41" y="486" on="1"/>
        <pt x="57" y="685" on="1"/>
        <pt x="271" y="685" on="1"/>
        <pt x="284" y="604" on="1"/>
        <pt x="130" y="604" on="1"/>
        <pt x="126" y="541" on="1"/>
        <pt x="136" y="545" on="0"/>
        <pt x="167" y="552" on="0"/>
        <pt x="189" y="552" on="1"/>
        <pt x="233" y="552" on="0"/>
        <pt x="294" y="497" on="0"/>
      </contour>
    </TTGlyph>
    <TTGlyph name="five.num_flat" xMin="27" yMin="319" xMax="294" yMax="685">
      <contour>
        <pt x="294" y="446" on="1"/>
        <pt x="294" y="383" on="0"/>
        <pt x="211" y="319" on="0"/>
        <pt x="145" y="319" on="1"/>
        <pt x="111" y="319" on="0"/>
        <pt x="51" y="332" on="0"/>
        <pt x="27" y="342" on="1"/>
        <pt x="42" y="421" on="1"/>
        <pt x="64" y="412" on="0"/>
        <pt x="116" y="399" on="0"/>
        <pt x="137" y="399" on="1"/>
        <pt x="163" y="399" on="0"/>
        <pt x="193" y="422" on="0"/>
        <pt x="193" y="443" on="1"/>
        <pt x="193" y="462" on="0"/>
        <pt x="171" y="483" on="0"/>
        <pt x="150" y="483" on="1"/>
        <pt x="137" y="483" on="0"/>
        <pt x="115" y="474" on="0"/>
        <pt x="108" y="470" on="1"/>
        <pt x="41" y="486" on="1"/>
        <pt x="57" y="685" on="1"/>
        <pt x="279" y="685" on="1"/>
        <pt x="279" y="604" on="1"/>
        <pt x="130" y="604" on="1"/>
        <pt x="126" y="541" on="1"/>
        <pt x="136" y="545" on="0"/>
        <pt x="167" y="552" on="0"/>
        <pt x="189" y="552" on="1"/>
        <pt x="233" y="552" on="0"/>
        <pt x="294" y="497" on="0"/>
      </contour>
    </TTGlyph>
    <TTGlyph name="five.sup" xMin="27" yMin="413" xMax="294" yMax="779">
      <component glyphName="five.num" x="0" y="94" flags="0x4"/>
    </TTGlyph>
    <TTGlyph name="five.sup_flat" xMin="27" yMin="413" xMax="294" yMax="779">
      <component glyphName="five.num_flat" x="0" y="94" flags="0x4"/>
    </TTGlyph>
    <TTGlyph name="five.tab" xMin="28" yMin="-10" xMax="458" yMax="685">
      <contour>
        <pt x="458" y="231" on="1"/>
        <pt x="458" y="115" on="0"/>
        <pt x="324" y="-10" on="0"/>
        <pt x="216" y="-10" on="1"/>
        <pt x="159" y="-10" on="0"/>
        <pt x="68" y="15" on="0"/>
        <pt x="28" y="34" on="1"/>
        <pt x="50" y="164" on="1"/>
        <pt x="86" y="144" on="0"/>
        <pt x="166" y="119" on="0"/>
        <pt x="205" y="119" on="1"/>
        <pt x="254" y="119" on="0"/>
        <pt x="309" y="173" on="0"/>
        <pt x="309" y="222" on="1"/>
        <pt x="309" y="265" on="0"/>
        <pt x="265" y="310" on="0"/>
        <pt x="228" y="310" on="1"/>
        <pt x="204" y="310" on="0"/>
        <pt x="167" y="297" on="0"/>
        <pt x="152" y="288" on="1"/>
        <pt x="53" y="313" on="1"/>
        <pt x="77" y="685" on="1"/>
        <pt x="425" y="685" on="1"/>
        <pt x="444" y="555" on="1"/>
        <pt x="199" y="555" on="1"/>
        <pt x="190" y="421" on="1"/>
        <pt x="206" y="426" on="0"/>
        <pt x="245" y="434" on="0"/>
        <pt x="267" y="434" on="1"/>
        <pt x="351" y="434" on="0"/>
        <pt x="458" y="332" on="0"/>
      </contour>
    </TTGlyph>
    <TTGlyph name="five.tab_flat" xMin="28" yMin="-10" xMax="458" yMax="685">
      <contour>
        <pt x="458" y="231" on="1"/>
        <pt x="458" y="115" on="0"/>
        <pt x="324" y="-10" on="0"/>
        <pt x="216" y="-10" on="1"/>
        <pt x="159" y="-10" on="0"/>
        <pt x="68" y="15" on="0"/>
        <pt x="28" y="34" on="1"/>
        <pt x="50" y="164" on="1"/>
        <pt x="86" y="144" on="0"/>
        <pt x="166" y="119" on="0"/>
        <pt x="205" y="119" on="1"/>
        <pt x="254" y="119" on="0"/>
        <pt x="309" y="173" on="0"/>
        <pt x="309" y="222" on="1"/>
        <pt x="309" y="265" on="0"/>
        <pt x="265" y="310" on="0"/>
        <pt x="228" y="310" on="1"/>
        <pt x="204" y="310" on="0"/>
        <pt x="167" y="297" on="0"/>
        <pt x="152" y="288" on="1"/>
        <pt x="53" y="313" on="1"/>
        <pt x="77" y="685" on="1"/>
        <pt x="434" y="685" on="1"/>
        <pt x="434" y="555" on="1"/>
        <pt x="199" y="555" on="1"/>
        <pt x="190" y="421" on="1"/>
        <pt x="206" y="426" on="0"/>
        <pt x="245" y="434" on="0"/>
        <pt x="267" y="434" on="1"/>
        <pt x="351" y="434" on="0"/>
        <pt x="458" y="332" on="0"/>
      </contour>
    </TTGlyph>
    <TTGlyph name="fiveeighths" xMin="28" yMin="-12" xMax="703" yMax="690">
      <component glyphName="eight.num" x="403" y="-327" flags="0x4"/>
      <component glyphName="fraction" x="244" y="0" flags="0x4"/>
      <component glyphName="five.num" x="1" y="0" flags="0x4"/>
    </TTGlyph>
    <TTGlyph name="fiveeighths.flat" xMin="28" yMin="-12" xMax="703" yMax="690">
      <component glyphName="eight.num" x="403" y="-327" flags="0x4"/>
      <component glyphName="fraction" x="244" y="0" flags="0x4"/>
      <component glyphName="five.num_flat" x="1" y="0" flags="0x4"/>
    </TTGlyph>
    <TTGlyph name="fivesixths" xMin="28" yMin="-12" xMax="700" yMax="690">
      <component glyphName="six.num" x="397" y="-327" flags="0x4"/>
      <component glyphName="fraction" x="251" y="0" flags="0x4"/>
      <component glyphName="five.num" x="1" y="0" flags="0x4"/>
    </TTGlyph>
    <TTGlyph name="fivesixths.flat" xMin="28" yMin="-12" xMax="700" yMax="690">
      <component glyphName="six.num" x="397" y="-327" flags="0x4"/>
      <component glyphName="fraction" x="251" y="0" flags="0x4"/>
      <component glyphName="five.num_flat" x="1" y="0" flags="0x4"/>
    </TTGlyph>
    <TTGlyph name="fl" xMin="12" yMin="0" xMax="517" yMax="722">
      <component glyphName="f" x="0" y="0" flags="0x4"/>
      <component glyphName="l" x="321" y="0" flags="0x4"/>
    </TTGlyph>
    <TTGlyph name="fl.flat" xMin="12" yMin="0" xMax="516" yMax="722">
      <component glyphName="f.flat" x="0" y="0" flags="0x4"/>
      <component glyphName="l" x="320" y="0" flags="0x4"/>
    </TTGlyph>
    <TTGlyph name="florin" xMin="34" yMin="0" xMax="401" yMax="692">
      <contour>
        <pt x="364" y="336" on="1"/>
        <pt x="255" y="336" on="1"/>
        <pt x="202" y="0" on="1"/>
        <pt x="49" y="0" on="1"/>
        <pt x="102" y="336" on="1"/>
        <pt x="34" y="336" on="1"/>
        <pt x="53" y="460" on="1"/>
        <pt x="122" y="460" on="1"/>
        <pt x="133" y="530" on="1"/>
        <pt x="146" y="616" on="0"/>
        <pt x="239" y="692" on="0"/>
        <pt x="324" y="692" on="1"/>
        <pt x="347" y="692" on="0"/>
        <pt x="385" y="689" on="0"/>
        <pt x="401" y="685" on="1"/>
        <pt x="401" y="564" on="1"/>
        <pt x="391" y="566" on="0"/>
        <pt x="367" y="569" on="0"/>
        <pt x="354" y="569" on="1"/>
        <pt x="322" y="569" on="0"/>
        <pt x="287" y="537" on="0"/>
        <pt x="282" y="502" on="1"/>
        <pt x="276" y="460" on="1"/>
        <pt x="364" y="460" on="1"/>
      </contour>
    </TTGlyph>
    <TTGlyph name="four" xMin="21" yMin="0" xMax="547" yMax="683">
      <contour>
        <pt x="310" y="0" on="1"/>
        <pt x="310" y="133" on="1"/>
        <pt x="21" y="133" on="1"/>
        <pt x="21" y="240" on="1"/>
        <pt x="274" y="683" on="1"/>
        <pt x="459" y="683" on="1"/>
        <pt x="459" y="250" on="1"/>
        <pt x="547" y="250" on="1"/>
        <pt x="547" y="133" on="1"/>
        <pt x="459" y="133" on="1"/>
        <pt x="459" y="0" on="1"/>
      </contour>
      <contour>
        <pt x="310" y="249" on="1"/>
        <pt x="310" y="518" on="1"/>
        <pt x="158" y="249" on="1"/>
      </contour>
    </TTGlyph>
    <TTGlyph name="four.alt" xMin="21" yMin="0" xMax="546" yMax="690">
      <contour>
        <pt x="313" y="0" on="1"/>
        <pt x="313" y="133" on="1"/>
        <pt x="21" y="133" on="1"/>
        <pt x="21" y="244" on="1"/>
        <pt x="268" y="690" on="1"/>
        <pt x="414" y="656" on="1"/>
        <pt x="182" y="250" on="1"/>
        <pt x="314" y="250" on="1"/>
        <pt x="314" y="396" on="1"/>
        <pt x="461" y="429" on="1"/>
        <pt x="461" y="251" on="1"/>
        <pt x="546" y="251" on="1"/>
        <pt x="546" y="133" on="1"/>
        <pt x="461" y="133" on="1"/>
        <pt x="461" y="0" on="1"/>
      </contour>
    </TTGlyph>
    <TTGlyph name="four.alt_flat" xMin="21" yMin="0" xMax="546" yMax="683">
      <contour>
        <pt x="313" y="0" on="1"/>
        <pt x="313" y="133" on="1"/>
        <pt x="21" y="133" on="1"/>
        <pt x="21" y="244" on="1"/>
        <pt x="264" y="683" on="1"/>
        <pt x="429" y="683" on="1"/>
        <pt x="182" y="250" on="1"/>
        <pt x="314" y="250" on="1"/>
        <pt x="314" y="398" on="1"/>
        <pt x="461" y="426" on="1"/>
        <pt x="461" y="251" on="1"/>
        <pt x="546" y="251" on="1"/>
        <pt x="546" y="133" on="1"/>
        <pt x="461" y="133" on="1"/>
        <pt x="461" y="0" on="1"/>
      </contour>
    </TTGlyph>
    <TTGlyph name="four.den" xMin="16" yMin="-2" xMax="309" yMax="362">
      <component glyphName="four.num" x="0" y="-327" flags="0x4"/>
    </TTGlyph>
    <TTGlyph name="four.inf" xMin="16" yMin="-152" xMax="309" yMax="212">
      <component glyphName="four.num" x="0" y="-477" flags="0x4"/>
    </TTGlyph>
    <TTGlyph name="four.num" xMin="16" yMin="325" xMax="309" yMax="689">
      <contour>
        <pt x="309" y="394" on="1"/>
        <pt x="266" y="394" on="1"/>
        <pt x="266" y="325" on="1"/>
        <pt x="172" y="325" on="1"/>
        <pt x="172" y="394" on="1"/>
        <pt x="16" y="394" on="1"/>
        <pt x="16" y="457" on="1"/>
        <pt x="141" y="689" on="1"/>
        <pt x="266" y="689" on="1"/>
        <pt x="266" y="462" on="1"/>
        <pt x="309" y="462" on="1"/>
      </contour>
      <contour>
        <pt x="180" y="460" on="1"/>
        <pt x="180" y="518" on="1"/>
        <pt x="187" y="621" on="1"/>
        <pt x="178" y="621" on="1"/>
        <pt x="146" y="545" on="1"/>
        <pt x="123" y="504" on="1"/>
        <pt x="96" y="461" on="1"/>
        <pt x="99" y="456" on="1"/>
        <pt x="141" y="460" on="1"/>
      </contour>
    </TTGlyph>
    <TTGlyph name="four.sup" xMin="16" yMin="419" xMax="309" yMax="783">
      <component glyphName="four.num" x="0" y="94" flags="0x4"/>
    </TTGlyph>
    <TTGlyph name="four.tab" xMin="15" yMin="0" xMax="476" yMax="688">
      <contour>
        <pt x="476" y="139" on="1"/>
        <pt x="405" y="139" on="1"/>
        <pt x="405" y="0" on="1"/>
        <pt x="262" y="0" on="1"/>
        <pt x="262" y="139" on="1"/>
        <pt x="15" y="139" on="1"/>
        <pt x="15" y="245" on="1"/>
        <pt x="221" y="688" on="1"/>
        <pt x="405" y="688" on="1"/>
        <pt x="405" y="253" on="1"/>
        <pt x="476" y="253" on="1"/>
      </contour>
      <contour>
        <pt x="271" y="249" on="1"/>
        <pt x="271" y="399" on="1"/>
        <pt x="279" y="552" on="1"/>
        <pt x="270" y="552" on="1"/>
        <pt x="216" y="408" on="1"/>
        <pt x="141" y="249" on="1"/>
      </contour>
    </TTGlyph>
    <TTGlyph name="fourfifths" xMin="17" yMin="-12" xMax="697" yMax="690">
      <component glyphName="four.num" x="1" y="0" flags="0x4"/>
      <component glyphName="five.num" x="403" y="-327" flags="0x4"/>
      <component glyphName="fraction" x="252" y="0" flags="0x4"/>
    </TTGlyph>
    <TTGlyph name="fourfifths.flat" xMin="17" yMin="-12" xMax="697" yMax="690">
      <component glyphName="four.num" x="1" y="0" flags="0x4"/>
      <component glyphName="five.num_flat" x="403" y="-327" flags="0x4"/>
      <component glyphName="fraction" x="252" y="0" flags="0x4"/>
    </TTGlyph>
    <TTGlyph name="fraction" xMin="-92" yMin="-12" xMax="335" yMax="690">
      <contour>
        <pt x="-22" y="-12" on="1"/>
        <pt x="-92" y="4" on="1"/>
        <pt x="94" y="346" on="1"/>
        <pt x="265" y="690" on="1"/>
        <pt x="335" y="674" on="1"/>
        <pt x="149" y="332" on="1"/>
      </contour>
    </TTGlyph>
    <TTGlyph name="g" xMin="-3" yMin="-182" xMax="485" yMax="501">
      <contour>
        <pt x="284" y="331" on="1"/>
        <pt x="284" y="369" on="0"/>
        <pt x="251" y="414" on="0"/>
        <pt x="223" y="414" on="1"/>
        <pt x="195" y="414" on="0"/>
        <pt x="163" y="369" on="0"/>
        <pt x="163" y="330" on="1"/>
        <pt x="163" y="292" on="0"/>
        <pt x="195" y="248" on="0"/>
        <pt x="223" y="248" on="1"/>
        <pt x="251" y="248" on="0"/>
        <pt x="284" y="292" on="0"/>
      </contour>
      <contour>
        <pt x="471" y="-11" on="1"/>
        <pt x="471" y="-50" on="0"/>
        <pt x="431" y="-114" on="0"/>
        <pt x="363" y="-158" on="0"/>
        <pt x="271" y="-182" on="0"/>
        <pt x="218" y="-182" on="1"/>
        <pt x="171" y="-182" on="0"/>
        <pt x="90" y="-167" on="0"/>
        <pt x="31" y="-137" on="0"/>
        <pt x="-3" y="-93" on="0"/>
        <pt x="-3" y="-64" on="1"/>
        <pt x="-3" y="-32" on="0"/>
        <pt x="40" y="20" on="0"/>
        <pt x="80" y="42" on="1"/>
        <pt x="65" y="53" on="0"/>
        <pt x="47" y="83" on="0"/>
        <pt x="47" y="99" on="1"/>
        <pt x="47" y="123" on="0"/>
        <pt x="79" y="166" on="0"/>
        <pt x="112" y="187" on="1"/>
        <pt x="72" y="208" on="0"/>
        <pt x="26" y="281" on="0"/>
        <pt x="26" y="328" on="1"/>
        <pt x="26" y="406" on="0"/>
        <pt x="137" y="500" on="0"/>
        <pt x="221" y="500" on="1"/>
        <pt x="262" y="500" on="0"/>
        <pt x="333" y="477" on="0"/>
        <pt x="358" y="456" on="1"/>
        <pt x="466" y="501" on="1"/>
        <pt x="485" y="387" on="1"/>
        <pt x="408" y="387" on="1"/>
        <pt x="412" y="374" on="0"/>
        <pt x="417" y="346" on="0"/>
        <pt x="417" y="331" on="1"/>
        <pt x="417" y="292" on="0"/>
        <pt x="387" y="229" on="0"/>
        <pt x="334" y="186" on="0"/>
        <pt x="263" y="162" on="0"/>
        <pt x="223" y="162" on="1"/>
        <pt x="213" y="162" on="0"/>
        <pt x="193" y="164" on="0"/>
        <pt x="183" y="165" on="1"/>
        <pt x="179" y="160" on="0"/>
        <pt x="175" y="150" on="0"/>
        <pt x="175" y="146" on="1"/>
        <pt x="175" y="136" on="0"/>
        <pt x="198" y="126" on="0"/>
        <pt x="240" y="120" on="1"/>
        <pt x="287" y="117" on="1"/>
        <pt x="383" y="104" on="0"/>
        <pt x="471" y="46" on="0"/>
      </contour>
      <contour>
        <pt x="230" y="-103" on="1"/>
        <pt x="279" y="-103" on="0"/>
        <pt x="335" y="-70" on="0"/>
        <pt x="335" y="-47" on="1"/>
        <pt x="335" y="-28" on="0"/>
        <pt x="297" y="-7" on="0"/>
        <pt x="237" y="2" on="1"/>
        <pt x="200" y="6" on="1"/>
        <pt x="182" y="7" on="0"/>
        <pt x="159" y="11" on="0"/>
        <pt x="146" y="14" on="1"/>
        <pt x="133" y="1" on="0"/>
        <pt x="122" y="-23" on="0"/>
        <pt x="122" y="-36" on="1"/>
        <pt x="122" y="-65" on="0"/>
        <pt x="176" y="-103" on="0"/>
      </contour>
    </TTGlyph>
    <TTGlyph name="g.alt" xMin="25" yMin="-182" xMax="455" yMax="497">
      <contour>
        <pt x="305" y="164" on="1"/>
        <pt x="305" y="369" on="1"/>
        <pt x="295" y="373" on="0"/>
        <pt x="276" y="376" on="0"/>
        <pt x="265" y="376" on="1"/>
        <pt x="225" y="376" on="0"/>
        <pt x="174" y="316" on="0"/>
        <pt x="174" y="246" on="1"/>
        <pt x="174" y="185" on="0"/>
        <pt x="213" y="131" on="0"/>
        <pt x="241" y="131" on="1"/>
        <pt x="258" y="131" on="0"/>
        <pt x="289" y="149" on="0"/>
      </contour>
      <contour>
        <pt x="455" y="19" on="1"/>
        <pt x="455" y="-82" on="0"/>
        <pt x="346" y="-182" on="0"/>
        <pt x="236" y="-182" on="1"/>
        <pt x="181" y="-182" on="0"/>
        <pt x="89" y="-163" on="0"/>
        <pt x="50" y="-147" on="1"/>
        <pt x="71" y="-35" on="1"/>
        <pt x="105" y="-51" on="0"/>
        <pt x="180" y="-69" on="0"/>
        <pt x="216" y="-69" on="1"/>
        <pt x="260" y="-69" on="0"/>
        <pt x="305" y="-29" on="0"/>
        <pt x="305" y="14" on="1"/>
        <pt x="305" y="57" on="1"/>
        <pt x="283" y="38" on="0"/>
        <pt x="228" y="5" on="0"/>
        <pt x="190" y="5" on="1"/>
        <pt x="120" y="5" on="0"/>
        <pt x="25" y="123" on="0"/>
        <pt x="25" y="237" on="1"/>
        <pt x="25" y="373" on="0"/>
        <pt x="156" y="497" on="0"/>
        <pt x="266" y="497" on="1"/>
        <pt x="318" y="497" on="0"/>
        <pt x="415" y="479" on="0"/>
        <pt x="455" y="463" on="1"/>
      </contour>
    </TTGlyph>
    <TTGlyph name="gbreve" xMin="-3" yMin="-182" xMax="485" yMax="691">
      <component glyphName="g" x="0" y="0" flags="0x204"/>
      <component glyphName="breve" x="27" y="3" flags="0x4"/>
    </TTGlyph>
    <TTGlyph name="gbreve.alt" xMin="25" yMin="-182" xMax="455" yMax="691">
      <component glyphName="g.alt" x="0" y="0" flags="0x204"/>
      <component glyphName="breve" x="56" y="3" flags="0x4"/>
    </TTGlyph>
    <TTGlyph name="gcommaaccent" xMin="-3" yMin="-182" xMax="485" yMax="737">
      <component glyphName="g" x="0" y="0" flags="0x204"/>
      <component glyphName="commaaccent.rot" x="0" y="0" flags="0x4"/>
    </TTGlyph>
    <TTGlyph name="gcommaaccent.alt" xMin="25" yMin="-182" xMax="455" yMax="737">
      <component glyphName="g.alt" x="0" y="0" flags="0x204"/>
      <component glyphName="commaaccent.rot" x="30" y="0" flags="0x4"/>
    </TTGlyph>
    <TTGlyph name="gdotaccent" xMin="-3" yMin="-182" xMax="485" yMax="675">
      <component glyphName="g" x="0" y="0" flags="0x204"/>
      <component glyphName="dotaccent" x="27" y="3" flags="0x4"/>
    </TTGlyph>
    <TTGlyph name="gdotaccent.alt" xMin="25" yMin="-182" xMax="455" yMax="675">
      <component glyphName="g.alt" x="0" y="0" flags="0x204"/>
      <component glyphName="dotaccent" x="56" y="3" flags="0x4"/>
    </TTGlyph>
</ttFont>
